<svg width="32" height="32" viewBox="0 0 32 32" fill="none" xmlns="http://www.w3.org/2000/svg">
    <path
        d="M0.320068 5.99995C0.320068 2.87995 2.88007 0.319946 6.00007 0.319946H26.0001C29.1201 0.319946 31.6801 2.87995 31.6801 5.99995V25.9999C31.6801 29.1199 29.1201 31.6799 26.0001 31.6799H6.00007C2.88007 31.6799 0.320068 29.1199 0.320068 25.9999C0.320068 25.9999 0.320068 5.99995 0.320068 5.99995Z"
        fill="#072DA0" />
    <path fill-rule="evenodd" clip-rule="evenodd"
        d="M6 32H26.08C29.36 32 32 29.36 32 26V6C32 2.64 29.36 0 26 0H6C2.64 0 0 2.64 0 6V26C0 29.36 2.64 32 6 32ZM0.64 6C0.64 3.04 3.04 0.64 6 0.64H26C28.96 0.64 31.36 3.04 31.36 6V26C31.36 28.96 28.96 31.36 26 31.36H6C3.04 31.36 0.64 28.96 0.64 26V6ZM11.2 8H8V14.4H11.2V17.6H8V24H11.2V20.8H14.4V24H17.6V20.8H20.8V24H24V20.8H20.8V17.6H24V11.2H20.8V8H14.4V11.2H11.2V8ZM17.6 17.6V20.8H14.4V17.6H17.6ZM17.6 14.4H20.8V17.6H17.6V14.4ZM17.6 14.4V11.2H14.4V14.4H17.6Z"
        fill="white" />
</svg>
    