<svg width="24" height="24" viewBox="0 0 24 24" fill="none" xmlns="http://www.w3.org/2000/svg">
    <g clip-path="url(#clip0_4994_9335)">
        <path
            d="M13.1949 8.51099H10.853V11.8088H13.1949C13.7206 11.8088 14.1508 11.6654 14.4375 11.3786C14.7721 11.0919 14.9155 10.6617 14.9155 10.1838C14.9155 9.70584 14.7721 9.32349 14.4375 8.98893C14.1508 8.70216 13.7206 8.51099 13.1949 8.51099Z"
            fill="url(#paint0_linear_4994_9335)" />
        <path
            d="M12 0C5.35293 0 0 5.35293 0 12C0 18.647 5.35293 24 12 24C18.647 24 24 18.647 24 12C23.9412 5.35293 18.5882 0 12 0ZM16.5882 12.5882C15.8235 13.2941 14.8235 13.7059 13.6471 13.7059H10.5882V14.7647H15.1176C15.1765 14.7647 15.2941 14.7647 15.3529 14.8235C15.4118 14.8824 15.4118 14.9412 15.4118 15.0588V16.2353C15.4118 16.2941 15.4118 16.4118 15.3529 16.4706C15.2941 16.5294 15.2353 16.5294 15.1176 16.5294H10.5882V18.2353C10.5882 18.2941 10.5882 18.4118 10.5294 18.4706C10.4706 18.5294 10.4118 18.5294 10.3529 18.5294H8.82353C8.7647 18.5294 8.64706 18.5294 8.58823 18.4706C8.52941 18.4118 8.52941 18.3529 8.52941 18.2353V16.5294H6.52941C6.47059 16.5294 6.35295 16.5294 6.29412 16.4706C6.2353 16.4118 6.23529 16.3529 6.23529 16.2353V15.0588C6.23529 15 6.2353 14.8824 6.29412 14.8235C6.35295 14.7647 6.41177 14.7647 6.52941 14.7647H8.52941V13.7059H6.52941C6.47059 13.7059 6.35295 13.7059 6.29412 13.6471C6.2353 13.5882 6.23529 13.5294 6.23529 13.4118V12.0588C6.23529 12 6.2353 11.9412 6.29412 11.8824C6.35295 11.8235 6.41177 11.8235 6.52941 11.8235H8.52941V6.17647C8.52941 6.11764 8.52941 6 8.58823 5.94118C8.64706 5.88235 8.70588 5.88235 8.82353 5.88235H13.7059C14.8824 5.88235 15.8824 6.2353 16.6471 7C17.4118 7.70588 17.7647 8.70589 17.7647 9.82353C17.7647 10.8824 17.3529 11.8235 16.5882 12.5882Z"
            fill="url(#paint1_linear_4994_9335)" />
    </g>
    <defs>
        <linearGradient id="paint0_linear_4994_9335" x1="10.853" y1="8.51099" x2="14.0803"
            y2="12.4867" gradientUnits="userSpaceOnUse">
            <stop stop-color="#4FAD89" />
            <stop offset="1" stop-color="#2F9971" />
        </linearGradient>
        <linearGradient id="paint1_linear_4994_9335" x1="0" y1="0" x2="24" y2="24"
            gradientUnits="userSpaceOnUse">
            <stop stop-color="#4FAD89" />
            <stop offset="1" stop-color="#2F9971" />
        </linearGradient>
        <clipPath id="clip0_4994_9335">
            <rect width="24" height="24" fill="white" />
        </clipPath>
    </defs>
</svg>
    