<svg width="24" height="24" viewBox="0 0 24 24" fill="none" xmlns="http://www.w3.org/2000/svg">
    <path
        d="M21.2111 4.66211C21.7735 5.39912 22.2497 6.19981 22.6299 7.04812L11.8439 15.1061L7.33612 12.2424V8.7971L11.8439 11.6609L21.2111 4.66211Z"
        fill="#21A038" />
    <path
        d="M2.73556 11.9997C2.73556 11.8451 2.73928 11.6916 2.74672 11.5389L0.0148781 11.4032C0.00557979 11.6011 3.3013e-06 11.8009 3.3013e-06 12.0025C-0.00115902 13.578 0.304613 15.1381 0.899786 16.5935C1.49495 18.0489 2.36781 19.3709 3.46827 20.4836L5.40603 18.5207C4.55894 17.6657 3.88693 16.6494 3.42864 15.5303C2.97035 14.4112 2.73481 13.2113 2.73556 11.9997Z"
        fill="url(#paint0_linear_4994_9350)" />
    <path
        d="M11.8414 2.77221C11.9939 2.77221 12.1454 2.77786 12.296 2.7854L12.4327 0.0158524C12.2369 0.00642902 12.0397 0.00171788 11.8414 0.00171788C10.2861 -0.000204265 8.74586 0.309236 7.30896 0.912269C5.87205 1.5153 4.56684 2.40005 3.46826 3.51572L5.40603 5.47956C6.24974 4.62078 7.25264 3.93949 8.35705 3.47487C9.46147 3.01024 10.6456 2.77144 11.8414 2.77221Z"
        fill="url(#paint1_linear_4994_9350)" />
    <path
        d="M11.8414 21.228C11.6889 21.228 11.5374 21.228 11.3858 21.2157L11.2491 23.9843C11.4456 23.9944 11.6431 23.9994 11.8414 23.9994C13.3961 24.0011 14.9356 23.6914 16.3717 23.0882C17.8079 22.485 19.1122 21.6001 20.21 20.4845L18.2759 18.5216C17.432 19.3799 16.4292 20.0608 15.325 20.5253C14.2208 20.9897 13.037 21.2286 11.8414 21.228Z"
        fill="url(#paint2_linear_4994_9350)" />
    <path
        d="M16.9743 4.38191L19.2765 2.66214C17.1722 0.935255 14.5455 -0.00479364 11.8378 1.83827e-05V2.77145C13.6714 2.76914 15.4623 3.3307 16.9743 4.38191Z"
        fill="url(#paint3_linear_4994_9350)" />
    <path
        d="M23.6819 12.0002C23.6834 11.2792 23.6212 10.5595 23.4959 9.84973L20.9473 11.7533C20.9473 11.8353 20.9473 11.9172 20.9473 12.0002C20.9479 13.2896 20.6812 14.5647 20.1645 15.7429C19.6478 16.9212 18.8925 17.9762 17.9476 18.8397L19.7859 20.8987C21.0143 19.7749 21.9959 18.402 22.667 16.8691C23.3382 15.3361 23.684 13.6773 23.6819 12.0002Z"
        fill="#21A038" />
    <path
        d="M11.8415 21.2281C10.5691 21.2286 9.31084 20.9582 8.14809 20.4345C6.9854 19.9108 5.94417 19.1455 5.09184 18.1881L3.0611 20.0502C4.16988 21.2953 5.5245 22.2902 7.03712 22.9706C8.54974 23.6509 10.1866 24.0015 11.8415 23.9995V21.2281Z"
        fill="url(#paint4_linear_4994_9350)" />
    <path
        d="M5.7352 5.16009L3.89785 3.10107C2.66915 4.2247 1.68721 5.59752 1.01571 7.1305C0.344218 8.66346 -0.00183072 10.3224 7.2835e-06 11.9996H2.73557C2.735 10.7103 3.00174 9.43513 3.51847 8.2569C4.03521 7.0787 4.79043 6.02363 5.7352 5.16009Z"
        fill="url(#paint5_linear_4994_9350)" />
    <defs>
        <linearGradient id="paint0_linear_4994_9350" x1="4.02152" y1="20.1378" x2="0.960927"
            y2="11.4077" gradientUnits="userSpaceOnUse">
            <stop offset="0.14" stop-color="#F1E813" />
            <stop offset="0.3" stop-color="#E6E418" />
            <stop offset="0.58" stop-color="#C9DA26" />
            <stop offset="0.89" stop-color="#A2CC39" />
        </linearGradient>
        <linearGradient id="paint1_linear_4994_9350" x1="4.24931" y1="4.00574" x2="11.9732"
            y2="1.10136" gradientUnits="userSpaceOnUse">
            <stop offset="0.06" stop-color="#0FA7DF" />
            <stop offset="0.54" stop-color="#0098F8" />
            <stop offset="0.92" stop-color="#0290EA" />
        </linearGradient>
        <linearGradient id="paint2_linear_4994_9350" x1="11.0688" y1="22.3268" x2="19.785"
            y2="20.3838" gradientUnits="userSpaceOnUse">
            <stop offset="0.12" stop-color="#A2CC39" />
            <stop offset="0.28" stop-color="#86C239" />
            <stop offset="0.87" stop-color="#219F38" />
        </linearGradient>
        <linearGradient id="paint3_linear_4994_9350" x1="11.2688" y1="0.928226" x2="18.7283"
            y2="3.19962" gradientUnits="userSpaceOnUse">
            <stop offset="0.06" stop-color="#0290EA" />
            <stop offset="0.79" stop-color="#0C89CA" />
        </linearGradient>
        <linearGradient id="paint4_linear_4994_9350" x1="3.74731" y1="19.7128" x2="11.8743"
            y2="22.7098" gradientUnits="userSpaceOnUse">
            <stop offset="0.13" stop-color="#F1E813" />
            <stop offset="0.3" stop-color="#EAE616" />
            <stop offset="0.53" stop-color="#D8DF1F" />
            <stop offset="0.8" stop-color="#BAD52D" />
            <stop offset="0.98" stop-color="#A2CC39" />
        </linearGradient>
        <linearGradient id="paint5_linear_4994_9350" x1="1.0191" y1="12.3351" x2="4.34722"
            y2="3.79241" gradientUnits="userSpaceOnUse">
            <stop offset="0.07" stop-color="#A2CC39" />
            <stop offset="0.26" stop-color="#81C45E" />
            <stop offset="0.92" stop-color="#0FA7DF" />
        </linearGradient>
    </defs>
</svg>
    