<svg width="24" height="24" viewBox="0 0 24 24" fill="none" xmlns="http://www.w3.org/2000/svg">
    <rect width="24" height="24" rx="12" fill="#35AFF2" />
    <path
        d="M18.7364 9.28196L12.6342 18.9995C12.5599 19.1169 12.4571 19.2134 12.3355 19.2804C12.2137 19.3474 12.0771 19.3825 11.9383 19.3825C11.7983 19.3828 11.6606 19.3474 11.5381 19.2797C11.4156 19.212 11.3124 19.1141 11.2382 18.9955L5.25536 9.27784C5.08775 9.00547 4.99935 8.69178 5.00007 8.37196C5.00765 7.89981 5.20224 7.44994 5.54113 7.12109C5.88002 6.79223 6.33553 6.61125 6.8077 6.61785H17.2006C18.193 6.61785 19 7.40021 19 8.36784C19 8.68902 18.9094 9.00608 18.7364 9.28196ZM6.72535 8.95667L11.1765 15.8208V8.26491H7.19064C6.72946 8.26491 6.52359 8.56961 6.72535 8.95667ZM12.8235 15.8208L17.2747 8.95667C17.4806 8.56961 17.2706 8.26491 16.8094 8.26491H12.8235V15.8208Z"
        fill="white" />
</svg>
    