<svg width="24" height="24" viewBox="0 0 24 24" fill="none" xmlns="http://www.w3.org/2000/svg">
    <g clip-path="url(#clip0_4994_9359)">
        <path
            d="M23.9997 11.9988C23.9997 18.6254 18.6277 23.9976 12 23.9976C5.37226 23.9976 0.000244141 18.6254 0.000244141 11.9988C0.000244141 5.37227 5.37238 0 12 0C18.6275 0 23.9997 5.37176 23.9997 11.9988Z"
            fill="white" />
        <path
            d="M11.9993 0C5.37396 0 -0.00756991 5.37987 0.000864393 11.9984C0.00252569 13.3226 0.213703 14.5964 0.610051 15.7878H4.20025V5.69414L11.9993 13.4923L19.798 5.69414V15.788H23.3889C23.7859 14.5966 23.9959 13.3229 23.9983 11.9986C24.0096 5.37316 18.6253 0.00159724 11.9993 0.00159724V0Z"
            fill="#F26822" />
        <path
            d="M10.2063 15.285L6.80279 11.8817V18.2331H4.20063L1.74518 18.2335C3.85138 21.6886 7.65778 23.9998 11.9999 23.9998C16.342 23.9998 20.1486 21.6881 22.2552 18.233H17.1962V11.8817L13.7925 15.285L11.9995 17.0778L10.2065 15.285H10.2063Z"
            fill="#4D4D4D" />
    </g>
    <defs>
        <clipPath id="clip0_4994_9359">
            <rect width="24" height="24" fill="white" />
        </clipPath>
    </defs>
</svg>
    