<svg xmlns="http://www.w3.org/2000/svg" style="display:none">
  <!-- Paste your <symbol id="icon-name">...</symbol> icons here -->
  <symbol id="circle-arrow-up-right-round" viewBox="0 0 33 32">
    <circle cx="16.5" cy="16" r="14" fill="#007BFF"/>
    <path d="M20.6597 11.3403L12 20M20.6597 11.3403C19.9017 10.5823 16.3268 11.325 15.2474 11.3403M20.6597 11.3403C21.4177 12.0983 20.675 15.6732 20.6597 16.7526" stroke="white" stroke-width="1.5" stroke-linecap="round" stroke-linejoin="round"/>
  </symbol>
  <symbol id="plus-sign-circle" viewBox="0 0 33 32">
    <circle cx="16" cy="16" r="14" fill="#007BFF"/>
    <path d="M16 10V22M22 16H10" stroke="white" stroke-width="1.5" stroke-linecap="round" stroke-linejoin="round"/>
  </symbol>
  <symbol id="circle-arrow-reload-01-round" viewBox="0 0 33 32">
    <circle cx="16.5" cy="16" r="14" fill="#007BFF"/>
    <path d="M22.5 13.4286H11.9216C11.0595 13.4286 10.6285 13.4286 10.5212 13.164C10.4139 12.8995 10.7187 12.5881 11.3283 11.9654L13.2522 10M10.5 18.5715H21.0784C21.9405 18.5715 22.3715 18.5715 22.4788 18.836C22.5861 19.1006 22.2813 19.412 21.6717 20.0347L19.7478 22" stroke="white" stroke-width="1.5" stroke-linecap="round" stroke-linejoin="round"/>
  </symbol>
  <symbol id="clock-02" viewBox="0 0 33 32">
    <circle cx="16.5" cy="16" r="14" fill="#007BFF"/>
    <path d="M9.87649 13.5177C11.136 10.1934 14.7521 8.29998 18.2777 9.24136C22.0328 10.244 24.2633 14.0828 23.2596 17.8155C22.2559 21.5482 18.3981 23.7614 14.643 22.7587C11.8549 22.0143 9.90734 19.7063 9.5 17.0391M9.87649 13.5177L13.5 13M9.87649 13.5177L8.5 10.5" stroke="white" stroke-width="1.5" stroke-linecap="round" stroke-linejoin="round"/>
  </symbol>
  <symbol id="circle-arrow-down-left-round" viewBox="0 0 33 32">
    <circle cx="16.5" cy="16" r="14" fill="#007BFF"/>
    <path d="M12.8025 19.6975L20.5 12M12.8025 19.6975C13.4762 20.3713 16.6539 19.7112 17.6134 19.6975M12.8025 19.6975C12.1287 19.0238 12.7889 15.8461 12.8025 14.8866" stroke="white" stroke-width="1.5" stroke-linecap="round" stroke-linejoin="round"/>
  </symbol>
  <symbol id="rotate-left" viewBox="0 0 24 24">
    <path d="M12 22.75C6.79996 22.75 2.57996 18.52 2.57996 13.33C2.57996 11.46 3.12996 9.65 4.16996 8.09C4.39996 7.75 4.86996 7.65 5.20996 7.88C5.54996 8.11 5.64996 8.58 5.41996 8.92C4.54996 10.22 4.08996 11.75 4.08996 13.32C4.08996 17.69 7.63996 21.24 12.01 21.24C16.38 21.24 19.93 17.69 19.93 13.32C19.93 8.95 16.37 5.4 12 5.4C11.08 5.4 10.18 5.53 9.32996 5.79C8.92996 5.91 8.50996 5.69 8.38996 5.29C8.26996 4.89 8.48996 4.47 8.88996 4.35C9.88996 4.05 10.93 3.89 12 3.89C17.2 3.89 21.42 8.12 21.42 13.31C21.42 18.5 17.2 22.75 12 22.75Z" fill="#292D32"/>
    <path d="M7.86999 6.07C7.69999 6.07 7.51999 6.01 7.37999 5.89C7.05999 5.61 7.02999 5.14 7.29999 4.83L10.19 1.51C10.46 1.2 10.94 1.16 11.25 1.44C11.56 1.71 11.59 2.19 11.32 2.5L8.42999 5.81C8.27999 5.98 8.06999 6.07 7.86999 6.07Z" fill="#292D32"/>
    <path d="M11.24 8.53C11.09 8.53 10.93 8.48 10.8 8.39L7.41995 5.92C7.08995 5.68 7.01995 5.21 7.25995 4.88C7.49995 4.54 7.96995 4.47 8.30995 4.71L11.68 7.17C12.01 7.41 12.09 7.88 11.84 8.22C11.7 8.43 11.47 8.53 11.24 8.53Z" fill="#292D32"/>
  </symbol>
  <symbol id="check-list" viewBox="0 0 24 24">
    <path fill-rule="evenodd" clip-rule="evenodd" d="M10.0001 6.00005C10.0001 5.44776 10.4478 5.00005 11.0001 5.00005L21.0001 5.00005C21.5524 5.00005 22.0001 5.44776 22.0001 6.00005C22.0001 6.55233 21.5524 7.00005 21.0001 7.00005L11.0001 7.00005C10.4478 7.00005 10.0001 6.55233 10.0001 6.00005Z" fill="#141B34"/>
    <path fill-rule="evenodd" clip-rule="evenodd" d="M10.0001 12C10.0001 11.4478 10.4478 11 11.0001 11L21.0001 11C21.5524 11 22.0001 11.4478 22.0001 12C22.0001 12.5523 21.5524 13 21.0001 13L11.0001 13C10.4478 13 10.0001 12.5523 10.0001 12Z" fill="#141B34"/>
    <path fill-rule="evenodd" clip-rule="evenodd" d="M10.0001 18C10.0001 17.4478 10.4478 17 11.0001 17L21.0001 17C21.5524 17 22.0001 17.4478 22.0001 18C22.0001 18.5523 21.5524 19 21.0001 19L11.0001 19C10.4478 19 10.0001 18.5523 10.0001 18Z" fill="#141B34"/>
    <path d="M8.84811 3.47008C9.14082 3.93842 8.99845 4.55537 8.53011 4.84808C7.75692 5.33132 6.98454 6.38665 6.36836 7.46497C6.07342 7.98111 5.83636 8.46247 5.67314 8.81488C5.61083 8.94763 5.4842 9.24113 5.42867 9.37128C5.2836 9.73364 4.94076 9.97896 4.55093 9.99879C4.16099 10.0186 3.79517 9.80971 3.61413 9.46379C3.44089 9.13278 3.16067 8.82283 2.89219 8.58023C2.78725 8.48162 2.55615 8.30596 2.45372 8.23046C1.99132 7.9288 1.86086 7.30945 2.16236 6.84689C2.46394 6.38421 3.08349 6.25361 3.54617 6.55519C3.68236 6.64696 4.01827 6.89082 4.27235 7.13209C4.38104 6.92327 4.5012 6.70138 4.63187 6.47269C5.26569 5.36352 6.24331 3.91884 7.47012 3.15208C7.93845 2.85937 8.5554 3.00174 8.84811 3.47008Z" fill="#141B34"/>
    <path d="M8.84811 14.47C9.14082 14.9383 8.99845 15.5553 8.53011 15.848C7.75692 16.3312 6.98454 17.3866 6.36836 18.4649C6.07342 18.981 5.83636 19.4624 5.67314 19.8148C5.61083 19.9476 5.4842 20.2411 5.42867 20.3712C5.2836 20.7336 4.94076 20.9789 4.55093 20.9987C4.16099 21.0186 3.79517 20.8096 3.61413 20.4637C3.44089 20.1327 3.16067 19.8228 2.89219 19.5802C2.78725 19.4815 2.55615 19.3059 2.45372 19.2304C1.99132 18.9287 1.86086 18.3094 2.16236 17.8468C2.46394 17.3841 3.08349 17.2535 3.54617 17.5551C3.68236 17.6469 4.01827 17.8907 4.27235 18.132C4.38104 17.9232 4.5012 17.7013 4.63187 17.4726C5.26569 16.3634 6.24331 14.9188 7.47012 14.152C7.93845 13.8593 8.5554 14.0017 8.84811 14.47Z" fill="#141B34"/>
  </symbol>
  <symbol id="loading" viewBox="0 0 24 24">
    <circle opacity="0.4" cx="12" cy="12" r="9" stroke="#0B0C0E" stroke-width="2"/>
    <path d="M12 21C7.02944 21 3 16.9706 3 12" stroke="#0B0C0E" stroke-width="2"/>
  </symbol>
  <symbol id="chatting-01" viewBox="0 0 24 24">
    <path fill-rule="evenodd" clip-rule="evenodd" d="M11.0793 2.75C6.4417 2.75 2.75 6.30644 2.75 10.61C2.75 12.6831 3.60011 14.5725 5.00061 15.9822L5.00063 15.9822C5.44071 16.4252 5.82963 17.1258 5.67643 17.9306L5.67619 17.9318C5.58858 18.3878 5.44472 18.8288 5.24911 19.2445C6.01063 19.2093 6.76164 19.006 7.43827 18.6493L7.45301 18.6415C7.64652 18.5395 7.81385 18.4513 7.95065 18.3869C8.08261 18.3248 8.25315 18.2514 8.4398 18.2231C8.67913 18.1869 8.92805 18.2269 9.12689 18.2611C9.53513 18.3311 9.80927 18.7189 9.73919 19.1271C9.66911 19.5354 9.28135 19.8095 8.87311 19.7394C8.77202 19.7221 8.71036 19.7136 8.66987 19.7102C8.66878 19.7101 8.66773 19.71 8.6667 19.7099C8.65102 19.7162 8.62601 19.7268 8.58959 19.744C8.48729 19.7922 8.35037 19.8641 8.13776 19.9762C6.82495 20.6683 5.29389 20.9135 3.81706 20.6412C3.55605 20.5931 3.33992 20.4106 3.24872 20.1614C3.15752 19.9122 3.20484 19.6333 3.37315 19.4281C3.79009 18.9197 4.07655 18.3075 4.20314 17.6488L4.93966 17.7903L4.20289 17.65C4.23127 17.501 4.17027 17.2747 3.93646 17.0394C2.27626 15.3682 1.25 13.106 1.25 10.61C1.25 5.40399 5.68928 1.25 11.0793 1.25C15.8497 1.25 19.8664 4.49715 20.7355 8.85326C20.8165 9.25946 20.553 9.65446 20.1467 9.7355C19.7405 9.81655 19.3455 9.55295 19.2645 9.14674C18.5433 5.53195 15.1759 2.75 11.0793 2.75Z" fill="#0B0C0E"/>
    <path fill-rule="evenodd" clip-rule="evenodd" d="M10.25 16.2617C10.25 12.9108 13.0802 10.25 16.5 10.25C19.9198 10.25 22.75 12.9108 22.75 16.2617C22.75 17.8671 22.0953 19.3213 21.039 20.3939C20.9957 20.4379 20.9721 20.478 20.9621 20.5032C20.9595 20.5098 20.9581 20.5143 20.9575 20.5171C21.0261 20.8706 21.1789 21.1975 21.3988 21.468C21.5658 21.6733 21.6121 21.9514 21.5209 22.1998C21.4296 22.4482 21.2142 22.6301 20.954 22.6785C19.9913 22.8576 18.9951 22.6961 18.1416 22.2422C18.0361 22.1861 17.9664 22.1492 17.9148 22.1234C17.8665 22.1314 17.8009 22.1436 17.7025 22.1621C17.306 22.2365 16.9034 22.2739 16.4995 22.2734C13.08 22.2731 10.25 19.6125 10.25 16.2617ZM16.4995 22.2734C16.4994 22.2734 16.4992 22.2734 16.499 22.2734L16.5 21.5234V22.2734C16.4998 22.2734 16.4997 22.2734 16.4995 22.2734ZM16.5 11.75C13.8453 11.75 11.75 13.8011 11.75 16.2617C11.75 18.7222 13.8453 20.7734 16.5 20.7734L16.501 20.7734C16.8112 20.7738 17.1206 20.7451 17.4256 20.6878L17.4403 20.6851C17.5538 20.6638 17.6643 20.643 17.7572 20.6302C17.8499 20.6175 17.9904 20.6024 18.1441 20.6259C18.303 20.6501 18.4394 20.7115 18.5235 20.7514C18.6126 20.7937 18.7192 20.8504 18.8328 20.9108L18.8459 20.9178C19.078 21.0412 19.3258 21.1314 19.5808 21.1863C19.5409 21.0565 19.508 20.9242 19.4825 20.79L19.4822 20.7887C19.366 20.1725 19.663 19.6535 19.9702 19.3415L19.9702 19.3415C20.768 18.5313 21.25 17.4485 21.25 16.2617C21.25 13.8011 19.1547 11.75 16.5 11.75ZM20.9569 20.5204C20.9569 20.5205 20.9569 20.5201 20.957 20.5195L20.9569 20.5204Z" fill="#0B0C0E"/>
  </symbol>
  <symbol id="change-screen-mode" viewBox="0 0 24 24">
    <path d="M16.0585 1.25C17.423 1.24998 18.5286 1.24996 19.3993 1.37603C20.31 1.50789 21.0719 1.79079 21.6709 2.43593C22.2627 3.07319 22.5154 3.87028 22.6344 4.8236C22.75 5.74987 22.75 6.93067 22.75 8.40963V8.40968V9.59033V9.59037C22.75 11.0693 22.75 12.2501 22.6344 13.1764C22.5154 14.1297 22.2627 14.9268 21.6709 15.5641C21.0719 16.2092 20.31 16.4921 19.3993 16.624C18.5286 16.75 17.423 16.75 16.0584 16.75H11.9416C10.577 16.75 9.47144 16.75 8.60071 16.624C7.68997 16.4921 6.92815 16.2092 6.32909 15.5641C5.73735 14.9268 5.48463 14.1297 5.36561 13.1764C5.24997 12.2501 5.24998 11.0693 5.25 9.59033V9.59032V8.40968V8.40967C5.24998 6.93069 5.24997 5.74988 5.36561 4.8236C5.48463 3.87028 5.73735 3.07319 6.32909 2.43593C6.92815 1.79079 7.68997 1.50789 8.60071 1.37603C9.47143 1.24996 10.577 1.24998 11.9415 1.25H11.9416H16.0584H16.0585Z" fill="#0B0C0E"/>
    <path fill-rule="evenodd" clip-rule="evenodd" d="M7.08324 8.1873C7.10068 8.72205 6.67976 9.16963 6.1431 9.187C4.62769 9.23605 4.11421 9.4284 3.78943 9.77734C3.55957 10.0243 3.38871 10.391 3.29377 11.1497C3.19623 11.9292 3.19445 12.9658 3.19445 14.4686V15.5133C3.19445 17.0161 3.19623 18.0528 3.29377 18.8322C3.38871 19.5909 3.55957 19.9576 3.78943 20.2046C4.00964 20.4412 4.32244 20.6106 4.99495 20.7078C5.7034 20.8101 6.65154 20.8125 8.05619 20.8125H11.9455C13.3502 20.8125 14.2983 20.8101 15.0067 20.7078C15.6792 20.6106 15.9921 20.4412 16.2123 20.2046C16.4141 19.9877 16.5695 19.6796 16.6688 19.099C16.7718 18.4962 16.7996 17.6963 16.8056 16.5529C16.8083 16.0179 17.2459 15.5864 17.7828 15.5892C18.3197 15.592 18.7528 16.0279 18.75 16.5629C18.7441 17.6917 18.7192 18.6432 18.5856 19.4244C18.4483 20.2278 18.1832 20.9362 17.6379 21.5221C17.0038 22.2034 16.2019 22.4929 15.2857 22.6252C14.4214 22.7501 13.3313 22.75 12.0185 22.75H7.98322C6.67034 22.75 5.58025 22.7501 4.71599 22.6252C3.79982 22.4929 2.9979 22.2034 2.36375 21.5221C1.73924 20.8511 1.48292 20.0202 1.36427 19.072C1.24995 18.1585 1.24997 17.0004 1.25 15.5781V14.4038C1.24997 12.9815 1.24995 11.8234 1.36427 10.9099C1.48292 9.96172 1.73924 9.1308 2.36375 8.45983C3.28608 7.46888 4.57446 7.29925 6.07997 7.25052C6.61663 7.23315 7.06581 7.65256 7.08324 8.1873Z" fill="#0B0C0E"/>
  </symbol>
  <symbol id="link-forward" viewBox="0 0 24 24">
    <path fill-rule="evenodd" clip-rule="evenodd" d="M14.2393 4.84645C14.579 4.72674 14.922 4.71822 15.2608 4.82225C15.5757 4.91889 15.8486 5.10113 16.0874 5.29546C16.5392 5.66307 17.0952 6.27477 17.7577 6.93959C18.4247 7.60895 19.0917 8.27833 19.7588 8.94766C20.331 9.52188 20.8124 10.0049 21.1441 10.4393C21.4947 10.8986 21.75 11.3933 21.75 11.9945C21.75 12.5957 21.4947 13.0903 21.1441 13.5496C20.8124 13.984 20.331 14.467 19.7588 15.0413L17.7577 17.0493C17.2162 17.5928 16.7233 18.1986 16.1384 18.6964C15.9031 18.8967 15.6259 19.0885 15.2928 19.1852C14.9371 19.2883 14.5849 19.2642 14.2394 19.1425C13.7272 18.962 13.4428 18.5542 13.2903 18.1796C13.1407 17.8117 13.0832 17.3984 13.0608 17.0336C13.0384 16.6697 13.0484 16.303 13.0627 15.9944C12.2344 15.9758 11.4153 15.9381 10.5934 15.9405C9.52472 15.9436 8.51377 16.016 7.57996 16.2711C6.19418 16.6496 5.01677 17.4867 3.72537 18.4048C3.20917 18.7718 2.25 18.9112 2.25 18C2.25 15.7826 2.63928 13.5774 3.71853 11.7859C4.81541 9.96524 6.58967 8.6333 9.21137 8.14077C10.486 7.90131 11.8445 7.94934 13.0618 7.97463C13.048 7.67021 13.0389 7.31145 13.0608 6.95538C13.0832 6.59054 13.1407 6.1772 13.2903 5.80938C13.4428 5.43471 13.7272 5.02695 14.2393 4.84645Z" fill="#0B0C0E"/>
  </symbol>
  <symbol id="plus-sign-circle" viewBox="0 0 24 24">
    <path d="M12 1.25C17.9371 1.25 22.75 6.06294 22.75 12C22.75 17.9371 17.9371 22.75 12 22.75C6.06294 22.75 1.25 17.9371 1.25 12C1.25 6.06294 6.06294 1.25 12 1.25ZM12 7C11.4477 7 11 7.44772 11 8V11H8C7.44772 11 7 11.4477 7 12C7 12.5523 7.44772 13 8 13H11V16C11 16.5523 11.4477 17 12 17C12.5523 17 13 16.5523 13 16V13H16C16.5523 13 17 12.5523 17 12C17 11.4477 16.5523 11 16 11H13V8C13 7.44772 12.5523 7 12 7Z" fill="#0B0C0E"/>
  </symbol>
  <symbol id="arrow-up-right-01-round" viewBox="0 0 24 24">
    <path fill-rule="evenodd" clip-rule="evenodd" d="M17.7071 6.29297C18.0976 6.68349 18.0976 7.31666 17.7071 7.70718L6.70711 18.7072C6.31658 19.0977 5.68342 19.0977 5.29289 18.7072C4.90237 18.3167 4.90237 17.6835 5.29289 17.293L16.2929 6.29297C16.6834 5.90245 17.3166 5.90245 17.7071 6.29297Z" fill="#0B0C0E"/>
    <path d="M17.2444 5.28976C17.5251 5.37167 17.9065 5.51528 18.1956 5.80438C18.4847 6.09349 18.6284 6.47491 18.7103 6.7556C18.8008 7.06593 18.8606 7.41695 18.9018 7.77002C18.9846 8.47874 19.0051 9.31062 18.9991 10.0841C18.993 10.8637 18.9594 11.6122 18.9277 12.1638C18.9118 12.4403 18.8962 12.6687 18.8846 12.8287C18.8788 12.908 18.8686 13.0376 18.8651 13.0822L18.865 13.0834C18.8186 13.6337 18.3348 14.0428 17.7845 13.9964C17.2342 13.95 16.8257 13.4663 16.872 12.916C16.8751 12.8765 16.8844 12.7594 16.8899 12.6837C16.9009 12.5323 16.9157 12.3139 16.931 12.0489C16.9616 11.5175 16.9934 10.8042 16.9991 10.0685C17.0049 9.32676 16.984 8.58995 16.9153 8.00194C16.8808 7.70664 16.8116 7.39689 16.7645 7.2355C16.6031 7.1884 16.2934 7.11918 15.9981 7.0847C15.41 7.01605 14.6732 6.99506 13.9315 7.00086C13.1958 7.00662 12.4825 7.0384 11.9511 7.06898C11.686 7.08423 11.4677 7.09911 11.3163 7.11011C11.2406 7.11561 11.124 7.12479 11.0844 7.12791C10.5341 7.17425 10.05 6.76578 10.0036 6.21548C9.9572 5.66514 10.3657 5.1814 10.9161 5.13501L10.9183 5.13483C10.9639 5.13124 11.0926 5.12109 11.1713 5.11537C11.3313 5.10374 11.5598 5.08819 11.8362 5.07228C12.3878 5.04054 13.1363 5.00703 13.9159 5.00092C14.6894 4.99487 15.5213 5.01545 16.23 5.0982C16.5831 5.13942 16.9341 5.19919 17.2444 5.28976Z" fill="#0B0C0E"/>
  </symbol>
  <symbol id="arrow-horizontal-round" viewBox="0 0 24 24">
    <path d="M22 12.75C22.4142 12.75 22.75 12.4142 22.75 12C22.75 11.5858 22.4142 11.25 22 11.25V12.75ZM2 11.25C1.58579 11.25 1.25 11.5858 1.25 12C1.25 12.4142 1.58579 12.75 2 12.75L2 11.25ZM22 12V11.25L2 11.25L2 12L2 12.75L22 12.75V12Z" fill="#0B0C0E"/>
    <path d="M19 9C19.6068 9.58984 22 11.1597 22 12C22 12.8403 19.6068 14.4102 19 15" stroke="#0B0C0E" stroke-width="1.5" stroke-linecap="round" stroke-linejoin="round"/>
  </symbol>
  <symbol id="user" viewBox="0 0 24 24">
    <path fill-rule="evenodd" clip-rule="evenodd" d="M17.0388 16.126C13.9576 14.2913 10.0425 14.2913 6.96134 16.126C6.79344 16.226 6.60946 16.3303 6.41674 16.4397C5.70413 16.844 4.87211 17.316 4.29202 17.8838C3.93189 18.2363 3.77838 18.5271 3.75382 18.7517C3.73433 18.9301 3.77942 19.2242 4.23005 19.6536C5.2659 20.6404 6.31848 21.25 7.59092 21.25H16.4092C17.6816 21.25 18.7342 20.6404 19.7701 19.6535C20.2207 19.2242 20.2658 18.9301 20.2463 18.7517C20.2217 18.5271 20.0682 18.2363 19.7081 17.8838C19.128 17.316 18.296 16.844 17.5834 16.4397C17.3907 16.3303 17.2067 16.226 17.0388 16.126ZM17.8062 14.8372L17.4225 15.4816L17.8062 14.8372C17.9225 14.9064 18.0662 14.9875 18.2288 15.0793C18.9417 15.4814 20.0192 16.0893 20.7573 16.8118C21.219 17.2637 21.6577 17.8592 21.7374 18.5888C21.8222 19.3646 21.4837 20.0927 20.8047 20.7396C19.6333 21.8556 18.2275 22.75 16.4092 22.75H7.59092C5.77261 22.75 4.36683 21.8556 3.19538 20.7396C2.51636 20.0927 2.1779 19.3646 2.26271 18.5888C2.34245 17.8592 2.78111 17.2637 3.24277 16.8118C3.98094 16.0893 5.05845 15.4814 5.77126 15.0793C5.93393 14.9875 6.0776 14.9064 6.19392 14.8372C9.74797 12.7209 14.2521 12.7209 17.8062 14.8372Z" fill="#0B0C0E"/>
    <path fill-rule="evenodd" clip-rule="evenodd" d="M12 2.75C9.92893 2.75 8.25 4.42893 8.25 6.5C8.25 8.57107 9.92893 10.25 12 10.25C14.0711 10.25 15.75 8.57107 15.75 6.5C15.75 4.42893 14.0711 2.75 12 2.75ZM6.75 6.5C6.75 3.6005 9.1005 1.25 12 1.25C14.8995 1.25 17.25 3.6005 17.25 6.5C17.25 9.39949 14.8995 11.75 12 11.75C9.1005 11.75 6.75 9.39949 6.75 6.5Z" fill="#0B0C0E"/>
  </symbol>
  <symbol id="wallet-02" viewBox="0 0 24 24">
    <path d="M14.668 1.29394C15.4922 1.22174 16.9263 1.09611 17.8867 2.2666C18.591 3.12499 18.7556 4.30198 18.75 5.28711C18.7471 5.80449 18.6969 6.32158 18.6221 6.7998C18.5776 7.08402 18.5549 7.22645 18.6162 7.32227C18.6776 7.41808 18.8208 7.45826 19.1064 7.53906C19.7513 7.72151 20.31 8.00158 20.7432 8.46875C21.2989 9.06816 21.5336 9.81615 21.6436 10.6992C21.7502 11.5556 21.75 12.6461 21.75 14.0049V16.1299C21.75 17.5233 21.7501 18.652 21.6191 19.541C21.4819 20.472 21.188 21.2473 20.5225 21.8555C19.8643 22.4569 19.0973 22.6849 18.1943 22.7383C17.342 22.7886 16.2259 22.6796 14.9375 22.5537C12.3231 22.2982 9.39231 21.8509 6.59375 21.0947C5.06496 20.6828 3.79959 20.3411 3.02344 19.3223C2.61082 18.7806 2.42256 18.1911 2.33398 17.5049C2.25034 16.8566 2.24998 16.0678 2.25 15.1113V5.90137C2.25 4.68136 3.01848 3.51438 4.28711 3.13769C6.2393 2.55835 9.79399 1.70787 14.668 1.29394ZM16.5 13C15.3954 13 14.5 13.8954 14.5 15C14.5 16.1046 15.3954 17 16.5 17C17.6046 17 18.5 16.1046 18.5 15C18.5 13.8954 17.6046 13 16.5 13ZM15.8418 3.15137C15.5583 3.10642 15.2217 3.12814 14.7412 3.16894C10.0188 3.56998 6.69626 4.38332 4.8584 4.92871C4.7763 4.95307 4.69649 4.99108 4.62305 5.04101C4.45186 5.15741 4.3668 5.21621 4.4043 5.41016C4.44187 5.60379 4.58677 5.6358 4.87695 5.69922C7.22697 6.21282 10.8416 6.76462 15.0557 7.05664C15.4046 7.08082 15.7401 7.10322 16.0596 7.12695C16.311 7.14563 16.437 7.15541 16.5283 7.08398C16.6196 7.01251 16.6401 6.8936 16.6807 6.65625C16.7552 6.21952 16.806 5.74233 16.8086 5.27637C16.8134 4.4146 16.6499 3.77689 16.3662 3.43066C16.2318 3.26685 16.0785 3.18894 15.8418 3.15137Z" fill="#0B0C0E"/>
  </symbol>
  <symbol id="arrow-data-transfer-horizontal-round" viewBox="0 0 24 24">
    <path fill-rule="evenodd" clip-rule="evenodd" d="M8.7355 4.46405C9.0315 4.7538 9.03656 5.22865 8.7468 5.52465L6.50227 7.81754C6.33456 7.98886 6.19774 8.12916 6.08674 8.2469C6.24248 8.24964 6.43019 8.25 6.65851 8.25H18.9999C19.4142 8.25 19.7499 8.58579 19.7499 9C19.7499 9.41421 19.4142 9.75 18.9999 9.75H6.65851C6.64079 9.75 6.62312 9.75 6.6055 9.75001C6.14852 9.75007 5.7255 9.75014 5.40412 9.70371C5.09463 9.65901 4.55474 9.52834 4.32963 8.97316C4.1077 8.42585 4.39265 7.95572 4.57792 7.70411C4.77181 7.44081 5.06979 7.13649 5.39388 6.80551C5.40601 6.79312 5.41817 6.7807 5.43036 6.76824L7.6749 4.47535C7.96465 4.17935 8.4395 4.17429 8.7355 4.46405ZM5.72834 8.68279C5.7281 8.68288 5.72924 8.68005 5.73249 8.67401C5.73021 8.67968 5.72858 8.6827 5.72834 8.68279Z" fill="#141B34"/>
    <path fill-rule="evenodd" clip-rule="evenodd" d="M17.9132 15.7531C17.7575 15.7504 17.5698 15.75 17.3414 15.75H5C4.58579 15.75 4.25 15.4142 4.25 15C4.25 14.5858 4.58579 14.25 5 14.25H17.3414C17.3592 14.25 17.3768 14.25 17.3945 14.25C17.8514 14.2499 18.2744 14.2499 18.5958 14.2963C18.9053 14.341 19.4452 14.4717 19.6703 15.0268C19.8922 15.5742 19.6073 16.0443 19.422 16.2959C19.2281 16.5592 18.9302 16.8635 18.6061 17.1945C18.5939 17.2069 18.5818 17.2193 18.5696 17.2318L16.325 19.5246C16.0353 19.8206 15.5604 19.8257 15.2644 19.5359C14.9684 19.2462 14.9634 18.7713 15.2531 18.4753L17.4977 16.1825C17.6654 16.0111 17.8022 15.8708 17.9132 15.7531ZM18.2716 15.3172C18.2718 15.3171 18.2707 15.3199 18.2675 15.326C18.2697 15.3203 18.2714 15.3173 18.2716 15.3172Z" fill="#141B34"/>
  </symbol>
  <symbol id="candle-2" viewBox="0 0 24 24">
    <path d="M22.75 17.5C22.75 17.91 22.41 18.25 22 18.25H15V18.5C15 20 14.1 20.5 13 20.5H7C5.9 20.5 5 20 5 18.5V18.25H2C1.59 18.25 1.25 17.91 1.25 17.5C1.25 17.09 1.59 16.75 2 16.75H5V16.5C5 15 5.9 14.5 7 14.5H13C14.1 14.5 15 15 15 16.5V16.75H22C22.41 16.75 22.75 17.09 22.75 17.5Z" fill="#0B0C0E"/>
    <path d="M22.75 6.5C22.75 6.91 22.41 7.25 22 7.25H19V7.5C19 9 18.1 9.5 17 9.5H11C9.9 9.5 9 9 9 7.5V7.25H2C1.59 7.25 1.25 6.91 1.25 6.5C1.25 6.09 1.59 5.75 2 5.75H9V5.5C9 4 9.9 3.5 11 3.5H17C18.1 3.5 19 4 19 5.5V5.75H22C22.41 5.75 22.75 6.09 22.75 6.5Z" fill="#0B0C0E"/>
  </symbol>
  <symbol id="tick-01" viewBox="0 0 24 24">
    <path d="M19.9375 6.15241C20.1297 6.6702 19.8657 7.2457 19.3479 7.43782C18.289 7.83068 17.1274 8.64841 15.9514 9.72885C14.7866 10.799 13.6641 12.074 12.6793 13.3107C11.6965 14.5449 10.8631 15.7254 10.2751 16.5981C9.98143 17.0339 9.74984 17.3917 9.59237 17.6394C9.51365 17.7632 9.45351 17.8594 9.41344 17.924L9.36861 17.9966L9.35785 18.0142L9.35545 18.0182C9.17177 18.3209 8.84114 18.5048 8.48701 18.5002C8.13282 18.4956 7.8075 18.304 7.63176 17.9964C6.68252 16.3352 5.89836 15.5873 5.42654 15.257C5.19208 15.0929 5.03257 15.0302 4.96242 15.0079C4.94586 15.0026 4.93369 14.9994 4.92605 14.9976C4.4083 14.9597 4 14.5277 4 14.0003C4 13.448 4.44772 13.0003 5 13.0003C5.118 13.0082 5.39696 13.0397 5.56883 13.102C5.84243 13.1891 6.18292 13.3452 6.57346 13.6185C7.13325 14.0104 7.79014 14.6389 8.5059 15.6453C8.54176 15.5916 8.57862 15.5367 8.61646 15.4805C9.22514 14.5772 10.0902 13.3515 11.1148 12.0648C12.1374 10.7807 13.3311 9.42028 14.5983 8.25607C15.8543 7.10213 17.2404 6.08653 18.6521 5.56272C19.1699 5.37061 19.7454 5.63462 19.9375 6.15241Z" fill="#0B0C0E"/>
  </symbol>
  <symbol id="bookmark-02-B" viewBox="0 0 24 24">
    <path d="M12.0546 1.25C13.8939 1.24999 15.348 1.24997 16.4854 1.39731C17.6529 1.54853 18.5995 1.86672 19.3488 2.58863C20.102 3.31431 20.4376 4.23743 20.5964 5.37525C20.75 6.4765 20.75 7.88207 20.75 9.64945V18.0458C20.75 19.1434 20.7501 20.0553 20.6447 20.7405C20.5356 21.4495 20.2814 22.1395 19.5804 22.5139C18.9553 22.8477 18.2676 22.7798 17.6846 22.6028C17.0949 22.4238 16.4955 22.0989 15.9467 21.7521C15.3926 21.402 14.8494 21.0029 14.377 20.6538L14.3215 20.6127C13.8587 20.2706 13.4869 19.9958 13.2031 19.8249C12.8035 19.5843 12.5513 19.4335 12.3467 19.3371C12.158 19.2482 12.0663 19.234 12 19.234C11.9337 19.234 11.842 19.2482 11.6533 19.3371C11.4488 19.4335 11.1965 19.5843 10.7969 19.8249C10.5131 19.9958 10.1414 20.2706 9.67854 20.6127C9.2062 20.9618 8.60739 21.402 8.05335 21.7521C7.50454 22.0989 6.90514 22.4238 6.31544 22.6028C5.7324 22.7798 5.04476 22.8477 4.41957 22.5139C3.71856 22.1395 3.46438 21.4495 3.35533 20.7405C3.24993 20.0553 3.24996 19.1434 3.25 18.0458L3.25 9.64943C3.24998 7.88206 3.24997 6.4765 3.40365 5.37525C3.56243 4.23743 3.898 3.31431 4.65121 2.58863C5.40051 1.86672 6.34712 1.54853 7.51457 1.39731C8.652 1.24997 10.1061 1.24999 11.9454 1.25H12.0546Z" fill="#0B0C0E"/>
  </symbol>
  <symbol id="bookmark-02" viewBox="0 0 24 24">
    <path fill-rule="evenodd" clip-rule="evenodd" d="M11.9454 1.25H12.0546C13.8939 1.24999 15.348 1.24997 16.4854 1.39731C17.6529 1.54853 18.5995 1.86672 19.3488 2.58863C20.102 3.31431 20.4376 4.23743 20.5964 5.37525C20.75 6.4765 20.75 7.88207 20.75 9.64945V18.0458C20.75 19.1434 20.7501 20.0553 20.6447 20.7405C20.5356 21.4495 20.2814 22.1395 19.5804 22.5139C18.9553 22.8477 18.2676 22.7798 17.6846 22.6028C17.0949 22.4238 16.4955 22.0989 15.9467 21.7521C15.3926 21.402 14.8494 21.0029 14.377 20.6538L14.3215 20.6127C13.8587 20.2706 13.4869 19.9958 13.2031 19.8249C12.8035 19.5843 12.5513 19.4335 12.3467 19.3371C12.158 19.2482 12.0663 19.234 12 19.234C11.9337 19.234 11.842 19.2482 11.6533 19.3371C11.4488 19.4335 11.1965 19.5843 10.7969 19.8249C10.5131 19.9958 10.1414 20.2706 9.67854 20.6127C9.2062 20.9618 8.60739 21.402 8.05335 21.7521C7.50454 22.0989 6.90514 22.4238 6.31544 22.6028C5.7324 22.7798 5.04476 22.8477 4.41957 22.5139C3.71856 22.1395 3.46438 21.4495 3.35533 20.7405C3.24993 20.0553 3.24996 19.1434 3.25 18.0458L3.25 9.64943C3.24998 7.88206 3.24997 6.4765 3.40365 5.37525C3.56243 4.23743 3.898 3.31431 4.65121 2.58863C5.40051 1.86672 6.34712 1.54853 7.51457 1.39731C8.652 1.24997 10.1061 1.24999 11.9454 1.25H12.0546ZM7.70726 2.88488C6.6962 3.01584 6.11421 3.26202 5.69194 3.66885C5.27358 4.07192 5.02336 4.62151 4.88925 5.58256C4.75172 6.56814 4.75 7.86886 4.75 9.70753V17.9808C4.75 19.1601 4.75215 19.9551 4.83789 20.5125C4.92205 21.0596 5.05429 21.1523 5.12613 21.1907C5.24925 21.2564 5.47376 21.2907 5.87969 21.1675C6.27895 21.0463 6.74532 20.8043 7.25207 20.4841C7.75359 20.1671 8.25567 19.7991 8.73144 19.4475C8.76136 19.4254 8.79129 19.4032 8.8212 19.3811C9.25048 19.0636 9.6758 18.749 10.0231 18.5399L10.0525 18.5222C10.4139 18.3045 10.732 18.113 11.014 17.9801C11.3194 17.8363 11.6361 17.734 12 17.734C12.3639 17.734 12.6806 17.8363 12.986 17.9801C13.268 18.113 13.5861 18.3045 13.9475 18.5222L13.9769 18.5399C14.3242 18.749 14.7495 19.0636 15.1788 19.3811C15.2087 19.4032 15.2386 19.4254 15.2686 19.4475C15.7443 19.7991 16.2464 20.1671 16.7479 20.4841C17.2547 20.8043 17.7211 21.0463 18.1203 21.1675C18.5262 21.2907 18.7508 21.2564 18.8739 21.1907C18.9457 21.1523 19.078 21.0596 19.1621 20.5125C19.2479 19.9551 19.25 19.1601 19.25 17.9808V9.70753C19.25 7.86886 19.2483 6.56814 19.1108 5.58256C18.9766 4.62151 18.7264 4.07192 18.3081 3.66885C17.8858 3.26202 17.3038 3.01584 16.2927 2.88488C15.2629 2.75148 13.9061 2.75 12 2.75C10.0939 2.75 8.73711 2.75148 7.70726 2.88488Z" fill="#0B0C0E"/>
  </symbol>
  <symbol id="search-02" viewBox="0 0 24 24">
    <path d="M16.7771 15.3629C17.5518 15.1066 18.4392 15.2866 19.0555 15.9029L22.0971 18.9445C22.9676 19.8151 22.9676 21.2265 22.0971 22.0971C21.2265 22.9676 19.8151 22.9676 18.9445 22.0971L15.9029 19.0555C15.2866 18.4392 15.1066 17.5518 15.3629 16.7771L13.293 14.7072L14.7072 13.293L16.7771 15.3629Z" fill="#0B0C0E"/>
    <path fill-rule="evenodd" clip-rule="evenodd" d="M1 9C1 4.58172 4.58172 1 9 1C13.4183 1 17 4.58172 17 9C17 13.4183 13.4183 17 9 17C4.58172 17 1 13.4183 1 9ZM9 3C5.68629 3 3 5.68629 3 9C3 12.3137 5.68629 15 9 15C12.3137 15 15 12.3137 15 9C15 5.68629 12.3137 3 9 3Z" fill="#0B0C0E"/>
  </symbol>
  <symbol id="user-group" viewBox="0 0 25 24">
    <g clip-path="url(#clip0_4994_9053)">
      <path fill-rule="evenodd" clip-rule="evenodd" d="M17.7499 6C17.7499 5.58579 18.0857 5.25 18.4999 5.25C20.2948 5.25 21.7499 6.70507 21.7499 8.5C21.7499 10.2949 20.2948 11.75 18.4999 11.75C18.0857 11.75 17.7499 11.4142 17.7499 11C17.7499 10.5858 18.0857 10.25 18.4999 10.25C19.4664 10.25 20.2499 9.4665 20.2499 8.5C20.2499 7.5335 19.4664 6.75 18.4999 6.75C18.0857 6.75 17.7499 6.41421 17.7499 6ZM18.7529 12.9324C18.7902 12.5199 19.1549 12.2157 19.5675 12.2531C20.506 12.338 21.4185 12.699 22.2228 13.3184C22.2692 13.3541 22.3303 13.3985 22.402 13.4507C22.7427 13.6986 23.3243 14.1217 23.7163 14.6179C23.9668 14.935 24.2011 15.3499 24.2432 15.8489C24.2874 16.3714 24.1122 16.8791 23.7367 17.3418C23.1618 18.0501 22.373 18.75 21.2739 18.75C20.8597 18.75 20.5239 18.4142 20.5239 18C20.5239 17.5858 20.8597 17.25 21.2739 17.25C21.6734 17.25 22.0766 17.0069 22.572 16.3965C22.7442 16.1844 22.755 16.051 22.7486 15.9752C22.7402 15.8758 22.6873 15.7351 22.5393 15.5477C22.2901 15.2322 21.9407 14.9754 21.6011 14.7258C21.5015 14.6526 21.4028 14.5801 21.3076 14.5068C20.7173 14.0522 20.0726 13.8049 19.4323 13.747C19.0198 13.7096 18.7156 13.345 18.7529 12.9324Z" fill="#0B0C0E"/>
      <path fill-rule="evenodd" clip-rule="evenodd" d="M2.74992 8.5C2.74992 6.70507 4.205 5.25 5.99992 5.25C6.41413 5.25 6.74992 5.58579 6.74992 6C6.74992 6.41421 6.41413 6.75 5.99992 6.75C5.03342 6.75 4.24992 7.5335 4.24992 8.5C4.24992 9.4665 5.03342 10.25 5.99992 10.25C6.41413 10.25 6.74992 10.5858 6.74992 11C6.74992 11.4142 6.41413 11.75 5.99992 11.75C5.03342 11.75 4.24992 10.9665 4.24992 9.99992Z" fill="#0B0C0E"/>
    </g>
    <defs>
      <clipPath id="clip0_4994_9053">
        <rect width="24" height="24" fill="white" transform="translate(0.5)"/>
      </clipPath>
    </defs>
  </symbol>
  <symbol id="left-to-right-list-bullet" viewBox="0 0 25 24">
    <path fill-rule="evenodd" clip-rule="evenodd" d="M7.75 4.5C7.75 4.08579 8.08579 3.75 8.5 3.75L20.5 3.75C20.9142 3.75 21.25 4.08579 21.25 4.5C21.25 4.91421 20.9142 5.25 20.5 5.25L8.5 5.25C8.08579 5.25 7.75 4.91421 7.75 4.5Z" fill="#0B0C0E"/>
    <path fill-rule="evenodd" clip-rule="evenodd" d="M3.5 4.5C3.5 3.94772 3.94772 3.5 4.5 3.5H4.50898C5.06127 3.5 5.50898 3.94772 5.50898 4.5C5.50898 5.05228 5.06127 5.5 4.50898 5.5H4.5C3.94772 5.5 3.5 5.05228 3.5 4.5Z" fill="#0B0C0E"/>
    <path fill-rule="evenodd" clip-rule="evenodd" d="M3.5 9.5C3.5 8.94772 3.94772 8.5 4.5 8.5H4.50898C5.06127 8.5 5.50898 8.94772 5.50898 9.5C5.50898 10.0523 5.06127 10.5 4.50898 10.5H4.5C3.94772 10.5 3.5 10.0523 3.5 9.5Z" fill="#0B0C0E"/>
    <path fill-rule="evenodd" clip-rule="evenodd" d="M3.5 14.5C3.5 13.9477 3.94772 13.5 4.5 13.5H4.50898C5.06127 13.5 5.50898 13.9477 5.50898 14.5C5.50898 15.0523 5.06127 15.5 4.50898 15.5H4.5C3.94772 15.5 3.5 15.0523 3.5 14.5Z" fill="#0B0C0E"/>
    <path fill-rule="evenodd" clip-rule="evenodd" d="M3.5 19.5C3.5 18.9477 3.94772 18.5 4.5 18.5H4.50898C5.06127 18.5 5.50898 18.9477 5.50898 19.5C5.50898 20.0523 5.06127 20.5 4.50898 20.5H4.5C3.94772 20.5 3.5 20.0523 3.5 19.5Z" fill="#0B0C0E"/>
    <path fill-rule="evenodd" clip-rule="evenodd" d="M7.75 9.5C7.75 9.08579 8.08579 8.75 8.5 8.75L20.5 8.75C20.9142 8.75 21.25 9.08579 21.25 9.5C21.25 9.91421 20.9142 10.25 20.5 10.25L8.5 10.25C8.08579 10.25 7.75 9.91421 7.75 9.5Z" fill="#0B0C0E"/>
    <path fill-rule="evenodd" clip-rule="evenodd" d="M7.75 14.5C7.75 14.0858 8.08579 13.75 8.5 13.75L20.5 13.75C20.9142 13.75 21.25 14.0858 21.25 14.5C21.25 14.9142 20.9142 15.25 20.5 15.25L8.5 15.25C8.08579 15.25 7.75 14.9142 7.75 14.5Z" fill="#0B0C0E"/>
    <path fill-rule="evenodd" clip-rule="evenodd" d="M7.75 19.5C7.75 19.0858 8.08579 18.75 8.5 18.75L20.5 18.75C20.9142 18.75 21.25 19.0858 21.25 19.5C21.25 19.9142 20.9142 20.25 20.5 20.25L8.5 20.25C8.08579 20.25 7.75 19.9142 7.75 19.5Z" fill="#0B0C0E"/>
  </symbol>
  <symbol id="toggle-off" viewBox="0 0 25 24">
    <path fill-rule="evenodd" clip-rule="evenodd" d="M2.20409 12C2.20409 11.5858 2.53988 11.25 2.95409 11.25L22.046 11.25C22.4602 11.25 22.796 11.5858 22.796 12C22.796 12.4142 22.4602 12.75 22.046 12.75L2.95409 12.75C2.53988 12.75 2.20409 12.4142 2.20409 12Z" fill="#292D32"/>
  </symbol>
  <symbol id="toggle-on" viewBox="0 0 25 24">
    <path fill-rule="evenodd" clip-rule="evenodd" d="M12.5 2.70406C12.9142 2.70406 13.25 3.03984 13.25 3.45406V20.5459C13.25 20.9602 12.9142 21.2959 12.5 21.2959C12.0858 21.2959 11.75 20.9602 11.75 20.5459V3.45406C11.75 3.03985 12.0858 2.70406 12.5 2.70406Z" fill="#292D32"/>
    <path fill-rule="evenodd" clip-rule="evenodd" d="M3.20409 12C3.20409 11.5858 3.53988 11.25 3.95409 11.25L21.046 11.25C21.4602 11.25 21.796 11.5858 21.796 12C21.796 12.4142 21.4602 12.75 21.046 12.75L3.95409 12.75C3.53988 12.75 3.20409 12.4142 3.20409 12Z" fill="#292D32"/>
  </symbol>
  <symbol id="arrow-down" viewBox="0 0 25 24">
    <path fill-rule="evenodd" clip-rule="evenodd" d="M4.04963 8.41968C4.34252 8.12679 4.81739 8.12679 5.11029 8.41968L11.6303 14.9397C12.1074 15.4168 12.8925 15.4168 13.3696 14.9397L19.8896 8.41968C20.1825 8.12679 20.6574 8.12679 20.9503 8.41968C21.2432 8.71258 21.2432 9.18745 20.9503 9.48034L14.4303 16.0003C13.3674 17.0632 11.6325 17.0632 10.5696 16.0003L4.04963 9.48034C3.75673 9.18745 3.75673 8.71258 4.04963 8.41968Z" fill="#292D32"/>
  </symbol>
  <symbol id="arrow-up" viewBox="0 0 25 24">
    <path fill-rule="evenodd" clip-rule="evenodd" d="M10.5696 7.99968C11.6325 6.93679 13.3674 6.93679 14.4303 7.99968L20.9503 14.5197C21.2432 14.8126 21.2432 15.2875 20.9503 15.5803C20.6574 15.8732 20.1825 15.8732 19.8896 15.5803L13.3696 9.06034C12.8925 8.58324 12.1074 8.58324 11.6303 9.06034L5.11029 15.5803C4.81739 15.8732 4.34252 15.8732 4.04963 15.5803C3.75673 15.2875 3.75673 14.8126 4.04963 14.5197L10.5696 7.99968Z" fill="#292D32"/>
  </symbol>
  <symbol id="arrow-right" viewBox="0 0 25 24">
    <path fill-rule="evenodd" clip-rule="evenodd" d="M8.8797 3.54969C9.1726 3.25679 9.64747 3.25679 9.94036 3.54969L16.4604 10.0697C17.5233 11.1326 17.5233 12.8675 16.4604 13.9303L9.94036 20.4503C9.64747 20.7432 9.1726 20.7432 8.8797 20.4503C8.58681 20.1575 8.58681 19.6826 8.8797 19.3897L15.3997 12.8697C15.8768 12.3926 15.8768 11.6075 15.3997 11.1303L8.8797 4.61035C8.58681 4.31745 8.58681 3.84258 8.8797 3.54969Z" fill="#292D32"/>
  </symbol>
  <symbol id="arrow-left" viewBox="0 0 25 24">
    <path fill-rule="evenodd" clip-rule="evenodd" d="M16.0303 3.54969C16.3232 3.84258 16.3232 4.31745 16.0303 4.61035L9.5103 11.1303C9.03319 11.6075 9.03319 12.3926 9.5103 12.8697L16.0303 19.3897C16.3232 19.6826 16.3232 20.1575 16.0303 20.4503C15.7374 20.7432 15.2625 20.7432 14.9696 20.4503L8.44964 13.9303C7.38674 12.8675 7.38674 11.1326 8.44964 10.0697L14.9696 3.54969C15.2625 3.25679 15.7374 3.25679 16.0303 3.54969Z" fill="#292D32"/>
  </symbol>
  <symbol id="arrow-right-alt" viewBox="0 0 25 24">
    <path fill-rule="evenodd" clip-rule="evenodd" d="M14.3997 5.39966C14.6926 5.10677 15.1675 5.10677 15.4604 5.39966L21.5304 11.4697C21.671 11.6103 21.7501 11.8011 21.7501 12C21.7501 12.1989 21.671 12.3897 21.5304 12.5303L15.4604 18.6003C15.1675 18.8932 14.6926 18.8932 14.3997 18.6003C14.1068 18.3074 14.1068 17.8326 14.3997 17.5397L19.9394 12L14.3997 6.46032C14.1068 6.16743 14.1068 5.69256 14.3997 5.39966Z" fill="black"/>
    <path fill-rule="evenodd" clip-rule="evenodd" d="M3.25 12C3.25 11.5858 3.58579 11.25 4 11.25H20.83C21.2442 11.25 21.58 11.5858 21.58 12C21.58 12.4142 21.2442 12.75 20.83 12.75H4C3.58579 12.75 3.25 12.4142 3.25 12Z" fill="black"/>
  </symbol>
  <symbol id="arrow-left-alt" viewBox="0 0 25 24">
    <path fill-rule="evenodd" clip-rule="evenodd" d="M10.6003 5.39966C10.8932 5.69256 10.8932 6.16743 10.6003 6.46032L5.06066 12L10.6003 17.5397C10.8932 17.8326 10.8932 18.3074 10.6003 18.6003C10.3074 18.8932 9.83256 18.8932 9.53967 18.6003L3.46967 12.5303C3.32902 12.3897 3.25 12.1989 3.25 12C3.25 11.8011 3.32902 11.6103 3.46967 11.4697L9.53967 5.39966C9.83256 5.10677 10.3074 5.10677 10.6003 5.39966Z" fill="black"/>
    <path fill-rule="evenodd" clip-rule="evenodd" d="M3.42004 12C3.42004 11.5858 3.75583 11.25 4.17004 11.25H21C21.4143 11.25 21.75 11.5858 21.75 12C21.75 12.4142 21.4143 12.75 21 12.75H4.17004C3.75583 12.75 3.42004 12.4142 3.42004 12Z" fill="black"/>
  </symbol>
  <symbol id="arrow-up-alt" viewBox="0 0 25 24">
    <path fill-rule="evenodd" clip-rule="evenodd" d="M12.5001 2.75C12.699 2.75 12.8897 2.82902 13.0304 2.96967L19.1004 9.03967C19.3933 9.33256 19.3933 9.80744 19.1004 10.1003C18.8075 10.3932 18.3326 10.3932 18.0397 10.1003L12.5001 4.56066L6.96038 10.1003C6.66749 10.3932 6.19262 10.3932 5.89972 10.1003C5.60683 9.80744 5.60683 9.33256 5.89972 9.03967L11.9697 2.96967C12.1104 2.82902 12.3011 2.75 12.5001 2.75Z" fill="black"/>
    <path fill-rule="evenodd" clip-rule="evenodd" d="M12.5 2.91998C12.9142 2.91998 13.25 3.25577 13.25 3.66998V20.5C13.25 20.9142 12.9142 21.25 12.5 21.25C12.0858 21.25 11.75 20.9142 11.75 20.5V3.66998C11.75 3.25577 12.0858 2.91998 12.5 2.91998Z" fill="black"/>
  </symbol>
  <symbol id="arrow-down-alt" viewBox="0 0 25 24">
    <path fill-rule="evenodd" clip-rule="evenodd" d="M5.89972 13.8997C6.19262 13.6068 6.66749 13.6068 6.96038 13.8997L12.5001 19.4393L18.0397 13.8997C18.3326 13.6068 18.8075 13.6068 19.1004 13.8997C19.3933 14.1926 19.3933 14.6674 19.1004 14.9603L13.0304 21.0303C12.8897 21.171 12.699 21.25 12.5001 21.25C12.3011 21.25 12.1104 21.171 11.9697 21.0303L5.89972 14.9603C5.60683 14.6674 5.60683 14.1926 5.89972 13.8997Z" fill="black"/>
    <path fill-rule="evenodd" clip-rule="evenodd" d="M12.5 2.75C12.9142 2.75 13.25 3.08579 13.25 3.5V20.33C13.25 20.7442 12.9142 21.08 12.5 21.08C12.0858 21.08 11.75 20.7442 11.75 20.33V3.5C11.75 3.08579 12.0858 2.75 12.5 2.75Z" fill="black"/>
  </symbol>
  <symbol id="check" viewBox="0 0 24 24">
    <path fill-rule="evenodd" clip-rule="evenodd" d="M20.7803 6.21967C21.0732 6.51256 21.0732 6.98744 20.7803 7.28033L10.2803 17.7803C9.98744 18.0732 9.51256 18.0732 9.21967 17.7803L3.96967 12.5303C3.67678 12.2374 3.67678 11.7626 3.96967 11.4697C4.26256 11.1768 4.73744 11.1768 5.03033 11.4697L9.75 16.1893L19.7197 6.21967C20.0126 5.92678 20.4874 5.92678 20.7803 6.21967Z" fill="#292D32"/>
  </symbol>
  <symbol id="del-blue" viewBox="0 0 24 24">
    <rect x="0.5" y="0.5" width="23" height="23" rx="11.5" fill="#007BFF"/>
    <rect x="0.5" y="0.5" width="23" height="23" rx="11.5" stroke="white"/>
    <path fill-rule="evenodd" clip-rule="evenodd" d="M17.8536 8.14645C18.0488 8.34171 18.0488 8.65829 17.8536 8.85355L10.8536 15.8536C10.6583 16.0488 10.3417 16.0488 10.1464 15.8536L6.64645 12.3536C6.45118 12.1583 6.45118 11.8417 6.64645 11.6464C6.84171 11.4512 7.15829 11.4512 7.35355 11.6464L10.5 14.7929L17.1464 8.14645C17.3417 7.95118 17.6583 7.95118 17.8536 8.14645Z" fill="white"/>
  </symbol>
  <symbol id="del-red" viewBox="0 0 24 24">
    <rect x="0.5" y="0.5" width="23" height="23" rx="11.5" fill="#E53935"/>
    <rect x="0.5" y="0.5" width="23" height="23" rx="11.5" stroke="white"/>
    <path fill-rule="evenodd" clip-rule="evenodd" d="M16.8536 7.14645C17.0488 7.34171 17.0488 7.65829 16.8536 7.85355L7.85355 16.8536C7.65829 17.0488 7.34171 17.0488 7.14645 16.8536C6.95118 16.6583 6.95118 16.3417 7.14645 16.1464L16.1464 7.14645C16.3417 6.95118 16.6583 6.95118 16.8536 7.14645Z" fill="white"/>
    <path fill-rule="evenodd" clip-rule="evenodd" d="M7.14645 7.14645C7.34171 6.95118 7.65829 6.95118 7.85355 7.14645L16.8536 16.1464C17.0488 16.3417 17.0488 16.6583 16.8536 16.8536C16.6583 17.0488 16.3417 17.0488 16.1464 16.8536L7.14645 7.85355C6.95118 7.65829 6.95118 7.34171 7.14645 7.14645Z" fill="white"/>
  </symbol>
  <symbol id="del-outline" viewBox="0 0 24 24">
    <path fill-rule="evenodd" clip-rule="evenodd" d="M19.2803 4.71967C19.5732 5.01256 19.5732 5.48744 19.2803 5.78033L5.78033 19.2803C5.48744 19.5732 5.01256 19.5732 4.71967 19.2803C4.42678 18.9874 4.42678 18.5126 4.71967 18.2197L18.2197 4.71967C18.5126 4.42678 18.9874 4.42678 19.2803 4.71967Z" fill="#292D32"/>
    <path fill-rule="evenodd" clip-rule="evenodd" d="M4.71967 4.71967C5.01256 4.42678 5.48744 4.42678 5.78033 4.71967L19.2803 18.2197C19.5732 18.5126 19.5732 18.9874 19.2803 19.2803C18.9874 19.5732 18.5126 19.5732 18.2197 19.2803L4.71967 5.78033C4.42678 5.48744 4.42678 5.01256 4.71967 4.71967Z" fill="#292D32"/>
  </symbol>
  <symbol id="custom-90x60" viewBox="0 0 90 60">
    <rect x="0.5" y="0.5" width="89" height="59" rx="4.5" stroke="#9747FF" stroke-dasharray="10 5"/>
    <path d="M29.6464 32.9798L25.8535 29.1869C25.5385 28.8719 25.7616 28.3333 26.2071 28.3333H33.7928C34.2383 28.3333 34.4614 28.8719 34.1464 29.1869L30.3535 32.9798C30.1582 33.175 29.8417 33.175 29.6464 32.9798Z" fill="#818898"/>
    <path d="M59.6464 27.0202L55.8535 30.8131C55.5385 31.1281 55.7616 31.6667 56.2071 31.6667H63.7928C64.2383 31.6667 64.4614 31.1281 64.1464 30.8131L60.3535 27.0202C60.1582 26.825 59.8417 26.825 59.6464 27.0202Z" fill="#818898"/>
  </symbol>
  <symbol id="notification-02" viewBox="0 0 24 24">
    <path d="M18.7657 9.15332C18.5846 5.5886 15.6272 2.75 12 2.75C8.25603 2.75 5.22562 5.77442 5.22562 9.5L5.22171 9.91211C5.20242 10.8155 5.09287 11.7877 4.54105 12.7119L4.40628 12.9238L4.40335 12.9277C4.1099 13.3547 3.89999 13.6022 3.65921 13.9795C3.47267 14.2718 3.34882 14.5303 3.29202 14.7773L3.27151 14.8828C3.13361 15.7871 3.71002 16.503 4.71878 16.9209L5.12503 17.0811C9.37148 18.6911 15.1359 18.6381 19.2813 16.9209L19.4649 16.8389C20.2996 16.4409 20.7897 15.8202 20.7461 15.0498L20.7285 14.8828C20.6859 14.6035 20.5541 14.3136 20.3408 13.9795C20.1001 13.6022 19.8902 13.3547 19.5967 12.9277L19.5938 12.9238C18.8284 11.7964 18.7745 10.5823 18.7744 9.5L18.7657 9.15332ZM20.2793 9.88574C20.2996 10.7582 20.4065 11.4493 20.8321 12.0781L21.2002 12.5889C21.3408 12.7828 21.4882 12.9891 21.6055 13.1729C21.8676 13.5836 22.1239 14.0791 22.2119 14.6562L22.2334 14.8311C22.4041 16.5009 21.2922 17.6249 20.1016 18.1963L19.8555 18.3066C15.3543 20.1713 9.19111 20.2295 4.58597 18.4814L4.14456 18.3066C2.82544 17.7601 1.50078 16.5398 1.78812 14.6562L1.82913 14.4434C1.94077 13.9564 2.16524 13.5322 2.39456 13.1729C2.62921 12.8052 2.98275 12.3477 3.168 12.0781C3.59355 11.4493 3.70041 10.7582 3.72073 9.88574L3.72562 9.5C3.72562 4.94131 7.43229 1.25 12 1.25C16.5678 1.25 20.2744 4.94131 20.2744 9.5L20.2793 9.88574Z" fill="#0B0C0E"/>
    <path d="M15.2989 18.7344C15.4331 18.3788 15.8172 18.1757 16.1924 18.2754C16.5676 18.3751 16.801 18.7419 16.7412 19.1172L16.7246 19.1924C16.1772 21.2523 14.2582 22.75 12 22.75C9.81229 22.75 7.9424 21.3446 7.33011 19.3838L7.27542 19.1924L7.25882 19.1172C7.19903 18.7419 7.43248 18.3751 7.80765 18.2754C8.1829 18.1757 8.56698 18.3788 8.7012 18.7344L8.72464 18.8076L8.80472 19.0635C9.25933 20.3251 10.5085 21.25 12 21.25C13.5907 21.25 14.9058 20.1981 15.2754 18.8076L15.2989 18.7344Z" fill="#0B0C0E"/>
  </symbol>
  <symbol id="more-horizontal" viewBox="0 0 24 24">
    <path d="M12.0049 10.5C12.8333 10.5 13.5049 11.1716 13.5049 12C13.5049 12.8284 12.8333 13.5 12.0049 13.5H11.9961C11.1677 13.5 10.4961 12.8284 10.4961 12C10.4961 11.1716 11.1677 10.5 11.9961 10.5H12.0049Z" fill="#0B0C0E"/>
    <path d="M18.0088 10.5C18.8372 10.5 19.5088 11.1716 19.5088 12C19.5088 12.8284 18.8372 13.5 18.0088 13.5H18C17.1716 13.5 16.5 12.8284 16.5 12C16.5 11.1716 17.1716 10.5 18 10.5H18.0088Z" fill="#0B0C0E"/>
    <path d="M6.00879 10.5C6.83722 10.5 7.50879 11.1716 7.50879 12C7.50879 12.8284 6.83722 13.5 6.00879 13.5H6C5.17157 13.5 4.5 12.8284 4.5 12C4.5 11.1716 5.17157 10.5 6 10.5H6.00879Z" fill="#0B0C0E"/>
  </symbol>
  <symbol id="arrow-down-03-round" viewBox="0 0 24 24">
    <path d="M11.25 6V18C11.25 18.4142 11.5858 18.75 12 18.75C12.4142 18.75 12.75 18.4142 12.75 18V6C12.75 5.58579 12.4142 5.25 12 5.25C11.5858 5.25 11.25 5.58579 11.25 6Z" fill="#0B0C0E"/>
    <path d="M12.1256 18.7432C12.4151 18.7127 12.673 18.584 12.8609 18.4707C13.0963 18.3288 13.3365 18.1403 13.566 17.9375C14.0269 17.5303 14.5193 17.0015 14.9615 16.4922C15.4069 15.9793 15.8163 15.4681 16.1139 15.0869C16.2629 14.8959 16.3847 14.7361 16.4693 14.624C16.5117 14.568 16.5452 14.5237 16.568 14.4932C16.5792 14.4781 16.5874 14.4661 16.5934 14.458C16.5964 14.4539 16.5996 14.4504 16.6012 14.4482C16.6019 14.4473 16.6027 14.4468 16.6031 14.4463V14.4453C16.6032 14.4452 16.6035 14.4448 15.9996 14L16.6031 14.4443C16.8487 14.1108 16.7774 13.6421 16.4439 13.3965C16.1312 13.1662 15.6991 13.2141 15.4439 13.4961L15.3961 13.5557H15.3951L15.3941 13.5576L15.3648 13.5967C15.3439 13.6248 15.3124 13.6664 15.2721 13.7197C15.1915 13.8264 15.0748 13.9802 14.9313 14.1641C14.6436 14.5326 14.2512 15.0212 13.8287 15.5078C13.4028 15.9983 12.9607 16.4698 12.5729 16.8125C12.378 16.9846 12.2139 17.1087 12.0865 17.1855C12.0501 17.2075 12.0206 17.2203 11.9996 17.2305C11.9786 17.2203 11.9491 17.2075 11.9127 17.1855C11.7853 17.1087 11.6212 16.9846 11.4264 16.8125C11.0385 16.4698 10.5964 15.9983 10.1705 15.5078C9.74806 15.0212 9.35562 14.5326 9.06797 14.1641C8.92446 13.9802 8.80773 13.8264 8.72715 13.7197C8.68687 13.6664 8.65531 13.6248 8.63438 13.5967L8.60508 13.5576L8.6041 13.5557H8.60313C8.35752 13.2222 7.88879 13.1509 7.55528 13.3965C7.22178 13.6421 7.15054 14.1108 7.3961 14.4443L7.99961 14L7.3961 14.4453V14.4463C7.3965 14.4468 7.39737 14.4473 7.39805 14.4482C7.39967 14.4504 7.40285 14.4539 7.40586 14.458C7.41187 14.4661 7.42006 14.4781 7.43125 14.4932C7.45398 14.5237 7.48755 14.568 7.52989 14.624C7.61449 14.736 7.73639 14.8951 7.88535 15.0859C8.1829 15.4672 8.59221 15.9791 9.0377 16.4922C9.47992 17.0015 9.97233 17.5303 10.4332 17.9375C10.6627 18.1403 10.9029 18.3288 11.1383 18.4707C11.3531 18.6002 11.6592 18.75 11.9996 18.75L12.1256 18.7432Z" fill="#0B0C0E"/>
  </symbol>
  <symbol id="arrow-up-03-round" viewBox="0 0 24 24">
    <path d="M11.25 18V6C11.25 5.58579 11.5858 5.25 12 5.25C12.4142 5.25 12.75 5.58579 12.75 6V18C12.75 18.4142 12.4142 18.75 12 18.75C11.5858 18.75 11.25 18.4142 11.25 18Z" fill="#0B0C0E"/>
    <path d="M12.1256 5.25684C12.4151 5.28731 12.673 5.41602 12.8609 5.5293C13.0963 5.6712 13.3365 5.85968 13.566 6.0625C14.0269 6.46972 14.5193 6.99847 14.9615 7.50781C15.4069 8.02073 15.8163 8.53185 16.1139 8.91309C16.2629 9.10406 16.3847 9.26392 16.4693 9.37598C16.5117 9.43203 16.5452 9.47634 16.568 9.50684C16.5792 9.52186 16.5874 9.53389 16.5934 9.54199C16.5964 9.54606 16.5996 9.54956 16.6012 9.55176C16.6019 9.55267 16.6027 9.55316 16.6031 9.55371V9.55469C16.6032 9.55477 16.6035 9.55524 15.9996 10L16.6031 9.55566C16.8487 9.88918 16.7774 10.3579 16.4439 10.6035C16.1312 10.8338 15.6991 10.7859 15.4439 10.5039L15.3961 10.4443H15.3951L15.3941 10.4424L15.3648 10.4033C15.3439 10.3752 15.3124 10.3336 15.2721 10.2803C15.1915 10.1736 15.0748 10.0198 14.9313 9.83594C14.6436 9.46736 14.2512 8.97877 13.8287 8.49219C13.4028 8.00171 12.9607 7.53022 12.5729 7.1875C12.378 7.01537 12.2139 6.89126 12.0865 6.81445C12.0501 6.79251 12.0206 6.77971 11.9996 6.76953C11.9786 6.77971 11.9491 6.79251 11.9127 6.81445C11.7853 6.89126 11.6212 7.01537 11.4264 7.1875C11.0385 7.53022 10.5964 8.00169 10.1705 8.49219C9.74806 8.97877 9.35562 9.46736 9.06797 9.83594C8.92446 10.0198 8.80773 10.1736 8.72715 10.2803C8.68687 10.3336 8.65531 10.3752 8.63438 10.4033L8.60508 10.4424L8.6041 10.4443H8.60313C8.35752 10.7778 7.88879 10.8491 7.55528 10.6035C7.22178 10.3579 7.15054 9.88918 7.3961 9.55566L7.99961 10L7.3961 9.55469V9.55371C7.3965 9.55316 7.39737 9.55267 7.39805 9.55176C7.39967 9.54956 7.40285 9.54606 7.40586 9.54199C7.41187 9.53389 7.42006 9.52185 7.43125 9.50684C7.45398 9.47634 7.48755 9.43203 7.52989 9.37598C7.61449 9.26396 7.73639 9.10495 7.88535 8.91406C8.1829 8.53278 8.59221 8.02091 9.0377 7.50781C9.47992 6.99848 9.97233 6.46972 10.4332 6.0625C10.6627 5.85969 10.9029 5.6712 11.1383 5.5293C11.3531 5.39983 11.6592 5.25 11.9996 5.25L12.1256 5.25684Z" fill="#0B0C0E"/>
  </symbol>
  <symbol id="home-05" viewBox="0 0 25 24">
    <path fill-rule="evenodd" clip-rule="evenodd" d="M3.75 10.6868L3.19211 11.2218C2.79347 11.604 2.16045 11.5907 1.77821 11.1921C1.39597 10.7935 1.40926 10.1604 1.80789 9.77821L6.20301 5.56386C7.49217 4.32768 8.53207 3.33052 9.4598 2.6518C10.4246 1.94593 11.3777 1.5 12.5 1.5C13.6223 1.5 14.5754 1.94593 15.5402 2.6518C16.4679 3.33053 17.5078 4.32768 18.797 5.56387L23.1921 9.77821C23.5907 10.1604 23.604 10.7935 23.2218 11.1921C22.8396 11.5907 22.2065 11.604 21.8079 11.2218L21.25 10.6868V13.5565C21.25 15.3942 21.25 16.8498 21.0969 17.989C20.9392 19.1614 20.6071 20.1104 19.8588 20.8588C19.1104 21.6071 18.1614 21.9392 16.989 22.0969C15.8498 22.25 14.3942 22.25 12.5564 22.25H12.4435C10.6058 22.25 9.15018 22.25 8.01098 22.0969C6.83856 21.9392 5.88961 21.6071 5.14124 20.8588C4.39288 20.1104 4.06076 19.1614 3.90314 17.989C3.74997 16.8498 3.74999 15.3942 3.75 13.5564V13.5564V13.5564V10.6868ZM11.25 17C11.25 16.3096 11.8076 15.75 12.4955 15.75C13.1777 15.75 13.75 16.3117 13.75 17C13.75 17.6883 13.1777 18.25 12.4955 18.25C11.8076 18.25 11.25 17.6904 11.25 17Z" fill="#0B0C0E"/>
  </symbol>
  <symbol id="briefcase-01" viewBox="0 0 25 24">
    <path d="M3.87918 5.82006C4.16213 5.74934 4.49261 5.74963 4.88875 5.74999H20.1096C20.5058 5.74963 20.8362 5.74934 21.1192 5.82006C21.9283 6.0223 22.5907 6.65574 22.7284 7.50118C22.776 7.79355 22.7302 8.11985 22.6821 8.46269C22.5677 9.28577 22.5054 10.1551 22.1868 10.9306C21.5183 12.5579 20.0101 13.7367 18.2102 14.1179C17.6858 14.229 17.0975 14.2468 16.221 14.2496C16.021 14.2502 15.921 14.2505 15.8622 14.1918C15.8034 14.1331 15.8035 14.0285 15.8037 13.8193C15.8039 13.6344 15.7992 13.4494 15.7993 13.2653C15.8003 13.0376 15.8017 12.7073 15.7207 12.4048C15.508 11.6111 14.888 10.9911 14.0943 10.7785C13.7916 10.6973 13.4767 10.6992 13.1657 10.7001H11.8324C11.5214 10.6992 11.2066 10.6973 10.9038 10.7785C10.1101 10.9911 9.4901 11.6111 9.27742 12.4048C9.19638 12.7073 9.19784 13.0376 9.19885 13.2653C9.1989 13.4494 9.19417 13.6344 9.19437 13.8193C9.1946 14.0285 9.19471 14.1331 9.1359 14.1918C9.07708 14.2505 8.97707 14.2502 8.77706 14.2496C7.90072 14.2468 7.31249 14.229 6.78811 14.1179C4.9883 13.7367 3.48003 12.5579 2.81153 10.9306C2.49296 10.1551 2.43064 9.28577 2.31625 8.46268C2.26814 8.11985 2.22236 7.79354 2.26997 7.50118C2.40765 6.65574 3.07009 6.0223 3.87918 5.82006Z" fill="#0B0C0E"/>
    <path fill-rule="evenodd" clip-rule="evenodd" d="M12.3286 1.50001C12.4418 1.50004 12.5552 1.50004 12.6681 1.50001C13.2184 1.49988 13.7509 1.49976 14.1991 1.57774C14.7274 1.66965 15.214 1.87907 15.6247 2.33013C16.0028 2.74536 16.2186 3.25975 16.3871 3.81184C16.5526 4.35377 16.7041 5.04679 16.8888 5.89118L16.9753 6.28632L15.0215 6.71372L14.9442 6.3605C14.7481 5.46386 14.6132 4.85081 14.4743 4.39582C14.3357 3.94205 14.2261 3.76475 14.1459 3.67662C14.0983 3.62432 14.0514 3.58207 13.8563 3.54814C13.5995 3.50347 13.2441 3.50002 12.6007 3.50002H12.396C11.7527 3.50002 11.3972 3.50347 11.1404 3.54814C10.9454 3.58207 10.8985 3.62432 10.8509 3.67662C10.7706 3.76475 10.661 3.94205 10.5225 4.39582C10.3836 4.85081 10.2487 5.46386 10.0526 6.3605L9.97528 6.71372L8.02148 6.28632L8.10792 5.89119C8.29262 5.0468 8.44421 4.35378 8.60965 3.81184C8.7782 3.25975 8.99399 2.74536 9.37205 2.33013C9.78274 1.87907 10.2694 1.66965 10.7977 1.57774C11.2459 1.49976 11.7783 1.49988 12.3286 1.50001Z" fill="#0B0C0E"/>
    <path d="M9.47912 15.7477C9.58464 15.7477 9.6374 15.7477 9.68025 15.7696C9.72309 15.7915 9.75684 15.8381 9.82433 15.9313C10.4239 16.7594 11.3986 17.2982 12.4992 17.2982C13.5997 17.2982 14.5744 16.7594 15.174 15.9313C15.2415 15.8381 15.2752 15.7915 15.3181 15.7696C15.3609 15.7477 15.4137 15.7477 15.5192 15.7477L15.8217 15.7477C16.8811 15.7481 17.7402 15.7484 18.5209 15.583C19.5762 15.3595 20.5667 14.9114 21.4105 14.276C21.5625 14.1615 21.6386 14.1042 21.694 14.1319C21.7494 14.1596 21.7492 14.2526 21.7488 14.4386C21.7454 15.8667 21.7254 17.0341 21.6051 17.9814C21.4572 19.1463 21.1462 20.0916 20.4382 20.8412C19.7244 21.597 18.8148 21.9345 17.6948 22.0939C16.6132 22.2479 15.2336 22.2479 13.5029 22.2478H11.4959C9.76519 22.2479 8.38559 22.2479 7.30402 22.0939C6.184 21.9345 5.27437 21.597 4.56064 20.8412C3.85262 20.0916 3.54161 19.1463 3.3937 17.9814C3.27343 17.0343 3.2534 15.8671 3.25007 14.4393C3.24964 14.2533 3.24942 14.1604 3.30482 14.1326C3.36022 14.1049 3.43626 14.1622 3.58833 14.2766C4.43187 14.9117 5.42203 15.3596 6.47703 15.583C7.25776 15.7484 8.11668 15.7481 9.1761 15.7477L9.47912 15.7477Z" fill="#0B0C0E"/>
    <path d="M10.5 13.3333C10.5 13.0233 10.5 12.8683 10.5341 12.7412C10.6265 12.3961 10.8961 12.1265 11.2412 12.0341C11.3683 12 11.5233 12 11.8333 12H13.1667C13.4767 12 13.6317 12 13.7588 12.0341C14.1039 12.1265 14.3735 12.3961 14.4659 12.7412C14.5 12.8683 14.5 13.0233 14.5 13.3333V14C14.5 15.1046 13.6046 16 12.5 16C11.3954 16 10.5 15.1046 10.5 14V13.3333Z" fill="#0B0C0E"/>
  </symbol>
  <symbol id="plus-sign-square" viewBox="0 0 25 24">
    <path d="M12.5576 1.75C14.7479 1.74999 16.4683 1.75012 17.8115 1.93066C19.1882 2.11575 20.2805 2.50313 21.1387 3.36133C21.9969 4.21953 22.3842 5.31182 22.5693 6.68848C22.7499 8.03174 22.75 9.75212 22.75 11.9424V12.0576L22.7471 13.6133C22.7386 15.0843 22.7048 16.304 22.5693 17.3115C22.3842 18.6882 21.9969 19.7805 21.1387 20.6387C20.2805 21.4969 19.1882 21.8842 17.8115 22.0693C16.4683 22.2499 14.7479 22.25 12.5576 22.25H12.4424L10.8867 22.2471C9.41571 22.2386 8.19601 22.2048 7.18848 22.0693C5.81182 21.8842 4.71953 21.4969 3.86133 20.6387C3.00313 19.7805 2.61575 18.6882 2.43066 17.3115C2.25012 15.9683 2.24999 14.2479 2.25 12.0576V11.9424C2.24999 9.75213 2.25012 8.03174 2.43066 6.68848C2.61575 5.31182 3.00313 4.21953 3.86133 3.36133C4.71953 2.50313 5.81182 2.11575 7.18848 1.93066C8.53174 1.75012 10.2521 1.74999 12.4424 1.75H12.5576ZM12.5 7C11.9477 7 11.5 7.44772 11.5 8V11H8.5C7.94772 11 7.5 11.4477 7.5 12C7.5 12.5523 7.94772 13 8.5 13H11.5V16C11.5 16.5523 11.9477 17 12.5 17C13.0523 17 13.5 16.5523 13.5 16V13H16.5C17.0523 13 17.5 12.5523 17.5 12C17.5 11.4477 17.0523 11 16.5 11H13.5V8C13.5 7.44772 13.0523 7 12.5 7Z" fill="#0B0C0E"/>
  </symbol>
  <symbol id="multiplication-sign-square" viewBox="0 0 25 24">
    <path d="M12.5576 1.75C14.7479 1.74999 16.4683 1.75012 17.8115 1.93066C19.1882 2.11575 20.2805 2.50313 21.1387 3.36133C21.9969 4.21953 22.3842 5.31182 22.5693 6.68848C22.7499 8.03174 22.75 9.75212 22.75 11.9424V12.0576L22.7471 13.6133C22.7386 15.0843 22.7048 16.304 22.5693 17.3115C22.3842 18.6882 21.9969 19.7805 21.1387 20.6387C20.2805 21.4969 19.1882 21.8842 17.8115 22.0693C16.4683 22.2499 14.7479 22.25 12.5576 22.25H12.4424L10.8867 22.2471C9.41571 22.2386 8.19601 22.2048 7.18848 22.0693C5.81182 21.8842 4.71953 21.4969 3.86133 20.6387C3.00313 19.7805 2.61575 18.6882 2.43066 17.3115C2.25012 15.9683 2.24999 14.2479 2.25 12.0576V11.9424C2.24999 9.75213 2.25012 8.03174 2.43066 6.68848C2.61575 5.31182 3.00313 4.21953 3.86133 3.36133C4.71953 2.50313 5.81182 2.11575 7.18848 1.93066C8.53174 1.75012 10.2521 1.74999 12.4424 1.75H12.5576ZM17.207 7.29297C16.8165 6.90244 16.1835 6.90244 15.793 7.29297L12.5 10.5859L9.20703 7.29297C8.81651 6.90244 8.18349 6.90244 7.79297 7.29297C7.40244 7.68349 7.40244 8.31651 7.79297 8.70703L11.0859 12L7.79297 15.293C7.40244 15.6835 7.40244 16.3165 7.79297 16.707C8.18349 17.0976 8.81651 17.0976 9.20703 16.707L12.5 13.4141L15.793 16.707C16.1835 17.0976 16.8165 17.0976 17.207 16.707C17.5976 16.3165 17.5976 15.6835 17.207 15.293L13.9141 12L17.207 8.70703C17.5976 8.31651 17.5976 7.68349 17.207 7.29297Z" fill="#0B0C0E"/>
  </symbol>
  <symbol id="menu-square" viewBox="0 0 25 24">
    <path fill-rule="evenodd" clip-rule="evenodd" d="M18.5365 1.25H18.4635H18.4634C17.7243 1.24999 17.1168 1.24998 16.6253 1.29671C16.1146 1.34527 15.6522 1.44953 15.2317 1.70725C14.8141 1.96311 14.4631 2.31414 14.2072 2.73166C13.9495 3.15221 13.8453 3.61456 13.7967 4.12529C13.75 4.61679 13.75 5.2243 13.75 5.96344V5.96345V6.03655V6.03656C13.75 6.7757 13.75 7.38322 13.7967 7.87471C13.8453 8.38545 13.9495 8.84779 14.2072 9.26834C14.4631 9.68586 14.8141 10.0369 15.2317 10.2928C15.6522 10.5505 16.1146 10.6547 16.6253 10.7033C17.1168 10.75 17.7243 10.75 18.4634 10.75H18.5366C19.2757 10.75 19.8832 10.75 20.3747 10.7033C20.8854 10.6547 21.3478 10.5505 21.7683 10.2928C22.1859 10.0369 22.5369 9.68586 22.7928 9.26834C23.0505 8.84779 23.1547 8.38545 23.2033 7.87471C23.25 7.38322 23.25 6.7757 23.25 6.03656V5.96344C23.25 5.2243 23.25 4.61679 23.2033 4.12529C23.1547 3.61456 23.0505 3.15221 22.7928 2.73166C22.5369 2.31414 22.1859 1.96311 21.7683 1.70725C21.3478 1.44953 20.8854 1.34527 20.3747 1.29671C19.8832 1.24998 19.2757 1.24999 18.5365 1.25ZM6.46345 1.25H6.53655H6.53656C7.2757 1.24999 7.88321 1.24998 8.37471 1.29671C8.88544 1.34527 9.34779 1.44953 9.76834 1.70725C10.1859 1.9631 10.5369 2.31414 10.7928 2.73166C11.0505 3.15221 11.1547 3.61456 11.2033 4.12529C11.25 4.61678 11.25 5.2243 11.25 5.96344V6.03656C11.25 6.7757 11.25 7.38322 11.2033 7.87471C11.1547 8.38544 11.0505 8.84779 10.7928 9.26834C10.5369 9.68586 10.1859 10.0369 9.76834 10.2928C9.34779 10.5505 8.88544 10.6547 8.37471 10.7033C7.88322 10.75 7.2757 10.75 6.53656 10.75H6.53658H6.53656H6.46344H6.46343H6.46341C5.72428 10.75 5.11678 10.75 4.62529 10.7033C4.11456 10.6547 3.65221 10.5505 3.23166 10.2928C2.81414 10.0369 2.46311 9.68586 2.20725 9.26834C1.94953 8.84779 1.84527 8.38544 1.79671 7.87471C1.74998 7.38321 1.74999 6.7757 1.75 6.03655V6.03655V5.96345V5.96344C1.74999 5.22431 1.74998 4.61679 1.79671 4.12529C1.84527 3.61456 1.94953 3.15221 2.20725 2.73166C2.4631 1.9631 2.81414 1.9631 3.23166 1.70725C3.65221 1.44953 4.11456 1.34527 4.62529 1.29671C5.11679 1.24998 5.72431 1.24999 6.46345 1.25H6.46345ZM6.53655 13.25H6.46345H6.46344H6.46343H6.46341C5.72428 13.25 5.11678 13.25 4.62529 13.2967C4.11456 13.3453 3.65221 13.4495 3.23166 13.7072C2.81414 13.9631 2.46311 14.3141 2.20725 14.7317C1.94953 15.1522 1.84527 15.6146 1.79671 16.1253C1.74998 16.6168 1.74999 17.2243 1.75 17.9635V18.0365V18.0366C1.74999 18.7757 1.74998 19.3832 1.79671 19.8747C1.84527 20.3854 1.94953 20.8478 2.20725 21.2683C2.46311 21.6859 2.81414 22.0369 3.23166 22.2928C3.65221 22.5505 4.11456 22.6547 4.62529 22.7033C5.11679 22.75 5.7243 22.75 6.46344 22.75H6.53656C7.2757 22.75 7.88322 22.75 8.37471 22.7033C8.88545 22.6547 9.34779 22.5505 9.76834 22.2928C10.1859 22.0369 10.5369 21.6859 10.7928 21.2683C11.0505 20.8478 11.1547 20.3854 11.2033 19.8747C11.25 19.3832 11.25 18.7757 11.25 18.0366V17.9634C11.25 17.2243 11.25 16.6168 11.2033 16.1253C11.1547 15.6146 11.0505 15.1522 10.7928 14.7317C10.5369 14.3141 10.1859 13.9631 9.76834 13.7072C9.34779 13.4495 8.88545 13.3453 8.37471 13.2967C7.88322 13.25 7.27572 13.25 6.53659 13.25H6.53658H6.53656H6.53655ZM18.5365 13.25H18.4635C17.7243 13.25 17.1168 13.25 16.6253 13.2967C16.1146 13.3453 15.6522 13.4495 15.2317 13.7072C14.8141 13.9631 14.4631 14.3141 14.2072 14.7317C13.9495 15.1522 13.8453 15.6146 13.7967 16.1253C13.75 16.6168 13.75 17.2243 13.75 17.9635V18.0365C13.75 18.7757 13.75 19.3832 13.7967 19.8747C13.8453 20.3854 13.9495 20.8478 14.2072 21.2683C14.4631 21.6859 14.8141 22.0369 15.2317 22.2928C15.6522 22.5505 16.1146 22.6547 16.6253 22.7033C17.1168 22.75 17.7243 22.75 18.4634 22.75H18.5366C19.2757 22.75 19.8832 22.75 20.3747 22.7033C20.8854 22.6547 21.3478 22.5505 21.7683 22.2928C22.1859 22.0369 22.5369 21.6859 22.7928 21.2683C23.0505 20.8478 23.1547 20.3854 23.2033 19.8747C23.25 19.3832 23.25 18.7757 23.25 18.0366V17.9634C23.25 17.2243 23.25 16.6168 23.2033 16.1253C23.1547 15.6146 23.0505 15.1522 22.7928 14.7317C22.5369 14.3141 22.1859 13.9631 21.7683 13.7072C21.3478 13.4495 20.8854 13.3453 20.3747 13.2967C19.8832 13.25 19.2757 13.25 18.5365 13.25Z" fill="#0B0C0E"/>
  </symbol>
  <symbol id="edit-01" viewBox="0 0 24 24">
    <path d="M17.9799 1.33814C18.6382 1.05395 19.3846 1.05395 20.043 1.33814C20.3076 1.45237 20.5299 1.61728 20.745 1.80587C20.9512 1.9866 21.1861 2.22154 21.4653 2.50074L21.4993 2.53471C21.7785 2.81389 22.0134 3.04883 22.1941 3.25496C22.3827 3.47007 22.5476 3.6924 22.6619 3.95701C22.9461 4.61536 22.9461 5.36178 22.6619 6.02013C22.5476 6.28474 22.3827 6.50707 22.1941 6.72218C22.0134 6.9283 21.7785 7.16322 21.4993 7.44237L21.4993 7.44243L16.3602 12.5815L16.3602 12.5815C15.2196 13.7225 14.5141 14.4282 13.6205 14.851C12.7269 15.2737 11.5924 15.3855 9.98688 15.5436L9.19865 15.6214C8.97513 15.6434 8.75349 15.5641 8.59467 15.4053C8.43585 15.2465 8.35657 15.0249 8.37863 14.8014L8.4564 14.0131C8.61455 12.4076 8.72631 11.2731 9.14905 10.3795C9.5718 9.48586 10.2775 8.78038 11.4185 7.63978L16.5575 2.50077C16.8367 2.22156 17.0717 1.9866 17.2778 1.80587C17.4929 1.61728 17.7153 1.45237 17.9799 1.33814Z" fill="#0B0C0E"/>
    <path fill-rule="evenodd" clip-rule="evenodd" d="M1.125 16.625C1.125 15.1062 2.35622 13.875 3.875 13.875H6.125C6.67728 13.875 7.125 14.3227 7.125 14.875C7.125 15.4273 6.67728 15.875 6.125 15.875H3.875C3.46079 15.875 3.125 16.2108 3.125 16.625C3.125 17.0392 3.46079 17.375 3.875 17.375H13.375C14.8938 17.375 16.125 18.6062 16.125 20.125C16.125 21.6438 14.8938 22.875 13.375 22.875H11.125C10.5727 22.875 10.125 22.4273 10.125 21.875C10.125 21.3227 10.5727 20.875 11.125 20.875H13.375C13.7892 20.875 14.125 20.5392 14.125 20.125C14.125 19.7108 13.7892 19.375 13.375 19.375H3.875C2.35622 19.375 1.125 18.1438 1.125 16.625Z" fill="#0B0C0E"/>
  </symbol>
  <symbol id="document-text" viewBox="0 0 25 24">
    <path d="M16.3001 2.20999C15.8901 1.79999 15.1801 2.07999 15.1801 2.64999V6.13999C15.1801 7.59999 16.4201 8.80999 17.9301 8.80999C18.8801 8.81999 20.2001 8.81999 21.3301 8.81999C21.9001 8.81999 22.2001 8.14999 21.8001 7.74999C20.3601 6.29999 17.7801 3.68999 16.3001 2.20999Z" fill="#0B0C0E"/>
    <path d="M21 10.19H18.11C15.74 10.19 13.81 8.26 13.81 5.89V3C13.81 2.45 13.36 2 12.81 2H8.57C5.49 2 3 4 3 7.57V16.43C3 20 5.49 22 8.57 22H16.43C19.51 22 22 20 22 16.43V11.19C22 10.64 21.55 10.19 21 10.19ZM12 17.75H8C7.59 17.75 7.25 17.41 7.25 17C7.25 16.59 7.59 16.25 8 16.25H12C12.41 16.25 12.75 16.59 12.75 17C12.75 17.41 12.41 17.75 12 17.75ZM14 13.75H8C7.59 13.75 7.25 13.41 7.25 13C7.25 12.59 7.59 12.25 8 12.25H14C14.41 12.25 14.75 12.59 14.75 13C14.75 13.41 14.41 13.75 14 13.75Z" fill="#0B0C0E"/>
  </symbol>
  <symbol id="widget" viewBox="0 0 25 24">
    <path fill-rule="evenodd" clip-rule="evenodd" d="M6.46345 13.25H18.5365C19.2757 13.25 19.8832 13.25 20.3747 13.2967C20.8854 13.3453 21.3478 13.4495 21.7683 13.7072C22.1859 13.9631 22.5369 14.3141 22.7928 14.7317C23.0505 15.1522 23.1547 15.6146 23.2033 16.1253C23.25 16.6168 23.25 17.2243 23.25 17.9634V18.0366C23.25 18.7757 23.25 19.3832 23.2033 19.8747C23.1547 20.3854 23.0505 20.8478 22.7928 21.2683C22.5369 21.6859 22.1859 22.0369 21.7683 22.2928C21.3478 22.5505 20.8854 22.6547 20.3747 22.7033C19.8832 22.75 19.2757 22.75 18.5366 22.75H6.46344C5.7243 22.75 5.11678 22.75 4.62529 22.7033C4.11456 22.6547 3.65221 22.5505 3.23166 22.2928C2.81414 22.0369 2.4631 21.6859 2.20725 21.2683C1.94953 20.8478 1.84527 20.3854 1.79671 19.8747C1.74998 19.3832 1.74999 18.7757 1.75 18.0365V17.9635C1.74999 17.2243 1.74998 16.6168 1.79671 16.1253C1.84527 15.6146 1.94953 15.1522 2.20725 14.7317C2.4631 14.3141 2.81414 13.9631 3.23166 13.7072C3.65221 13.4495 4.11456 13.3453 4.62529 13.2967C5.11679 13.25 5.72431 13.25 6.46345 13.25Z" fill="#0B0C0E"/>
    <path fill-rule="evenodd" clip-rule="evenodd" d="M6.46345 1.25H6.53655C7.2757 1.24999 7.88321 1.24998 8.37471 1.29671C8.88544 1.34527 9.34779 1.44953 9.76834 1.70725C10.1859 1.9631 10.5369 2.31414 10.7928 2.73166C11.0505 3.15221 11.1547 3.61456 11.2033 4.12529C11.25 4.61678 11.25 5.2243 11.25 5.96344V6.03656C11.25 6.7757 11.25 7.38322 11.2033 7.87471C11.1547 8.38544 11.0505 8.84779 10.7928 9.26834C10.5369 9.68586 10.1859 10.0369 9.76834 10.2928C9.34779 10.5505 8.88544 10.6547 8.37471 10.7033C7.88322 10.75 7.2757 10.75 6.53656 10.75H6.46344C5.7243 10.75 5.11678 10.75 4.62529 10.7033C4.11456 10.6547 3.65221 10.5505 3.23166 10.2928C2.81414 10.0369 2.46311 9.68586 2.20725 9.26834C1.94953 8.84779 1.84527 8.38544 1.79671 7.87471C1.74998 7.38321 1.74999 6.7757 1.75 6.03655V5.96345C1.74999 5.22431 1.74998 4.61679 1.79671 4.12529C1.84527 3.61456 1.94953 3.15221 2.20725 2.73166C2.4631 1.9631 2.81414 1.9631 3.23166 1.70725C3.65221 1.44953 4.11456 1.34527 4.62529 1.29671C5.11679 1.24998 5.72431 1.24999 6.46345 1.25H6.46345ZM6.53655 13.25H6.46345H6.46344H6.46343H6.46341C5.72428 13.25 5.11678 13.25 4.62529 13.2967C4.11456 13.3453 3.65221 13.4495 3.23166 13.7072C2.81414 13.9631 2.46311 14.3141 2.20725 14.7317C1.94953 15.1522 1.84527 15.6146 1.79671 16.1253C1.74998 16.6168 1.74999 17.2243 1.75 17.9635V18.0365C1.74999 18.7757 1.74998 19.3832 1.79671 19.8747C1.84527 20.3854 1.94953 20.8478 2.20725 21.2683C2.46311 21.6859 2.81414 22.0369 3.23166 22.2928C3.65221 22.5505 4.11456 22.6547 4.62529 22.7033C5.11679 22.75 5.7243 22.75 6.46344 22.75H6.53656C7.2757 22.75 7.88322 22.75 8.37471 22.7033C8.88545 22.6547 9.34779 22.5505 9.76834 22.2928C10.1859 22.0369 10.5369 21.6859 10.7928 21.2683C11.0505 20.8478 11.1547 20.3854 11.2033 19.8747C11.25 19.3832 11.25 18.7757 11.25 18.0366V17.9634C11.25 17.2243 11.25 16.6168 11.2033 16.1253C11.1547 15.6146 11.0505 15.1522 10.7928 14.7317C10.5369 14.3141 10.1859 13.9631 9.76834 13.7072C9.34779 13.4495 8.88545 13.3453 8.37471 13.2967C7.88322 13.25 7.27572 13.25 6.53659 13.25H6.53658H6.53656H6.53655ZM18.5365 13.25H18.4635C17.7243 13.25 17.1168 13.25 16.6253 13.2967C16.1146 13.3453 15.6522 13.4495 15.2317 13.7072C14.8141 13.9631 14.4631 14.3141 14.2072 14.7317C13.9495 15.1522 13.8453 15.6146 13.7967 16.1253C13.75 16.6168 13.75 17.2243 13.75 17.9635V18.0365C13.75 18.7757 13.75 19.3832 13.7967 19.8747C13.8453 20.3854 13.9495 20.8478 14.2072 21.2683C14.4631 21.6859 14.8141 22.0369 15.2317 22.2928C15.6522 22.5505 16.1146 22.6547 16.6253 22.7033C17.1168 22.75 17.7243 22.75 18.4634 22.75H18.5366C19.2757 22.75 19.8832 22.75 20.3747 22.7033C20.8854 22.6547 21.3478 22.5505 21.7683 22.2928C22.1859 22.0369 22.5369 21.6859 22.7928 21.2683C23.0505 20.8478 23.1547 20.3854 23.2033 19.8747C23.25 19.3832 23.25 18.7757 23.25 18.0366V17.9634C23.25 17.2243 23.25 16.6168 23.2033 16.1253C23.1547 15.6146 23.0505 15.1522 22.7928 14.7317C22.5369 14.3141 22.1859 13.9631 21.7683 13.7072C21.3478 13.4495 20.8854 13.3453 20.3747 13.2967C19.8832 13.25 19.2757 13.25 18.5365 13.25Z" fill="#0B0C0E"/>
  </symbol>
  <symbol id="coins-swap" viewBox="0 0 25 24">
    <path d="M1.75 16C1.75 12.2721 4.77208 9.25 8.5 9.25C12.2279 9.25 15.25 12.2721 15.25 16C15.25 19.7279 12.2279 22.75 8.5 22.75C4.77208 22.75 1.75 19.7279 1.75 16Z" fill="#0B0C0E"/>
    <path d="M16.4999 1.25C20.2279 1.25 23.2499 4.27208 23.2499 8C23.2499 11.4976 20.5898 14.3738 17.1824 14.7159C16.947 14.7396 16.8292 14.7514 16.7368 14.6843C16.6443 14.6172 16.616 14.4879 16.5595 14.2294C15.8739 11.0943 13.4056 8.62605 10.2706 7.94046C10.012 7.88392 9.88277 7.85565 9.81567 7.76318C9.74856 7.6707 9.76038 7.55298 9.78402 7.31753C10.1261 3.91012 13.0024 1.25 16.4999 1.25Z" fill="#0B0C0E"/>
    <path fill-rule="evenodd" clip-rule="evenodd" d="M6.27448 4.24219L7.0663 5.19395C7.22824 5.38861 7.47748 5.48841 7.72902 5.45932C7.98056 5.43023 8.20044 5.27618 8.31368 5.0497L9.17082 3.33541C9.28707 3.10292 9.27464 2.82681 9.13799 2.6057C9.00133 2.38459 8.75993 2.25 8.5 2.25C7.71245 2.25 6.95502 2.38478 6.25052 2.63328C3.62763 3.55843 1.75 6.05696 1.75 9C1.75 9.41421 2.08579 9.75 2.5 9.75C2.91421 9.75 3.25 9.41421 3.25 9C3.25 6.89355 4.48604 5.07881 6.27448 4.24219Z" fill="#0B0C0E"/>
    <path fill-rule="evenodd" clip-rule="evenodd" d="M18.7255 19.7578L17.9337 18.806C17.7718 18.6114 17.5225 18.5116 17.271 18.5407C17.0194 18.5698 16.7996 18.7238 16.6863 18.9503L15.8292 20.6646C15.7129 20.8971 15.7254 21.1732 15.862 21.3943C15.9987 21.6154 16.2401 21.75 16.5 21.75C17.2875 21.75 18.045 21.6152 18.7495 21.3667C21.3724 20.4416 23.25 17.943 23.25 15C23.25 14.5858 22.9142 14.25 22.5 14.25C22.0858 14.25 21.75 14.5858 21.75 15C21.75 17.1064 20.514 18.9212 18.7255 19.7578Z" fill="#0B0C0E"/>
  </symbol>
  <symbol id="stars" viewBox="0 0 24 24">
    <path d="M12 2.25C12.4142 2.25 12.75 2.58579 12.75 3C12.75 5.00608 13.7606 7.07493 15.3428 8.65717C16.9251 10.2394 18.9939 11.25 21 11.25C21.4142 11.25 21.75 11.5858 21.75 12C21.75 12.4142 21.4142 12.75 21 12.75C18.9939 12.75 16.9251 13.7606 15.3428 15.3428C13.7606 16.9251 12.75 18.9939 12.75 21C12.75 21.4142 12.4142 21.75 12 21.75C11.5858 21.75 11.25 21.4142 11.25 21C11.25 18.9939 10.2394 16.9251 8.65717 15.3428C7.07493 13.7606 5.00608 12.75 3 12.75C2.58579 12.75 2.25 12.4142 2.25 12C2.25 11.5858 2.58579 11.25 3 11.25C5.00608 11.25 7.07493 10.2394 8.65717 8.65717C10.2394 7.07493 11.25 5.00608 11.25 3C11.25 2.58579 11.5858 2.25 12 2.25Z" fill="#0B0C0E"/>
    <path d="M19.25 1.25C19.4635 1.25 19.6484 1.39794 19.6954 1.6062L19.9296 2.64601C20.0895 3.35601 20.644 3.91047 21.354 4.07041L22.3938 4.30464C22.6021 4.35155 22.75 4.53652 22.75 4.75C22.75 4.96348 22.6021 5.14845 22.3938 5.19536L21.354 5.42959C20.644 5.58953 20.0895 6.14398 19.9296 6.85398L19.6954 7.8938C19.6484 8.10206 19.4635 8.25 19.25 8.25C19.0365 8.25 18.8516 8.10206 18.8046 7.8938L18.5704 6.85398C18.4105 6.14398 17.856 5.58953 17.146 5.42959L16.1062 5.19536C15.8979 5.14845 15.75 4.96348 15.75 4.75C15.75 4.53652 15.8979 4.35155 16.1062 4.30464L17.146 4.07041C17.856 3.91047 18.4105 3.35602 18.5704 2.64601L18.8046 1.6062C18.8516 1.39794 19.0365 1.25 19.25 1.25Z" fill="#0B0C0E"/>
    <path d="M4.75 15.75C4.96348 15.75 5.14845 15.8979 5.19536 16.1062L5.42959 17.146C5.58953 17.856 6.14398 18.4105 6.85398 18.5704L7.8938 18.8046C8.10206 18.8516 8.25 19.0365 8.25 19.25C8.25 19.4635 8.10206 19.6484 7.8938 19.6954L6.85398 19.9296C6.14398 20.0895 5.58953 20.644 5.42959 21.354L5.19536 22.3938C5.14845 22.6021 4.96348 22.75 4.75 22.75C4.53652 22.75 4.35155 22.6021 4.30464 22.3938L4.07041 21.354C3.91047 20.644 3.35602 20.0895 2.64601 19.9296L1.6062 19.6954C1.39794 19.6484 1.25 19.4635 1.25 19.25C1.25 19.0365 1.39794 18.8516 1.6062 18.8046L2.64601 18.5704C3.35602 18.4105 3.91047 17.856 4.07041 17.146L4.30464 16.1062C4.35155 15.8979 4.53652 15.75 4.75 15.75Z" fill="#0B0C0E"/>
  </symbol>
  <symbol id="chart-ring" viewBox="0 0 24 24">
    <g opacity="0.35">
      <path d="M5.33882 4.27458C5.13391 4.06966 5.14495 3.73311 5.37272 3.55394C7.20716 2.11083 9.52122 1.25 12.0363 1.25C17.5583 1.25 22.1112 5.39949 22.7468 10.7505C22.781 11.0381 22.5509 11.2838 22.2612 11.2838H16.3935C16.1533 11.2838 15.9503 11.1117 15.8813 10.8816C15.3853 9.22785 13.8515 8.02282 12.0363 8.02282C11.3481 8.02282 10.7002 8.19607 10.1341 8.50135C9.92272 8.61534 9.65762 8.59338 9.4878 8.42355L5.33882 4.27458Z" fill="#0B0C0E"/>
      <path d="M4.27458 5.33882C4.06966 5.13391 3.73311 5.14495 3.55394 5.37272C2.11083 7.20716 1.25 9.52122 1.25 12.0363C1.25 17.5583 5.39949 22.1112 10.7505 22.7468C11.0381 22.781 11.2838 22.5509 11.2838 22.2612V16.3935C11.2838 16.1533 11.1117 15.9503 10.8816 15.8813C9.22785 15.3853 8.02282 13.8515 8.02282 12.0363C8.02282 11.3481 8.19607 10.7002 8.50135 10.1341C8.61534 9.92272 8.59338 9.65762 8.42355 9.4878L4.27458 5.33882Z" fill="#0B0C0E"/>
    </g>
    <path opacity="0.65" d="M13.1912 15.8812C12.9612 15.9502 12.7891 16.1532 12.7891 16.3934V22.2611C12.7891 22.5508 13.0348 22.7809 13.3225 22.7468C18.2517 22.1612 22.1614 18.2515 22.747 13.3222C22.7812 13.0346 22.5511 12.7888 22.2614 12.7888H16.3937C16.1535 12.7888 15.9505 12.9609 15.8815 13.191C15.4952 14.4791 14.4793 15.4949 13.1912 15.8812Z" fill="#0B0C0E"/>
    <path d="M5.3391 4.27458C5.13419 4.06966 5.14524 3.73311 5.373 3.55394C7.20744 2.11083 9.5215 1.25 12.0366 1.25C17.5586 1.25 22.1115 5.39949 22.7471 10.7505C22.7813 11.0381 22.5511 11.2838 22.2615 11.2838H16.3938C16.1536 11.2838 15.9505 11.1117 15.8815 10.8816C15.3856 9.22785 13.8518 8.02282 12.0366 8.02282C11.3483 8.02282 10.7005 8.19607 10.1344 8.50135C9.92301 8.61534 9.65791 8.59338 9.48808 8.42355L5.3391 4.27458Z" fill="#0B0C0E"/>
  </symbol>
  <symbol id="clock-01" viewBox="0 0 24 24">
    <path opacity="0.35" d="M1.25 12C1.25 6.06294 6.06294 1.25 12 1.25C17.9371 1.25 22.75 6.06294 22.75 12C22.75 17.9371 17.9371 22.75 12 22.75C6.06294 22.75 1.25 17.9371 1.25 12Z" fill="#0B0C0E"/>
    <path fill-rule="evenodd" clip-rule="evenodd" d="M12 7C12.5523 7 13 7.44772 13 8V11.5858L14.7071 13.2929C15.0976 13.6834 15.0976 14.3166 14.7071 14.7071C14.3166 15.0976 13.6834 15.0976 13.2929 14.7071L11.2929 12.7071C11.1054 12.5196 11 12.2652 11 12V8C11 7.44772 11.4477 7 12 7Z" fill="#0B0C0E"/>
  </symbol>
  <symbol id="setting-01" viewBox="0 0 24 24">
    <path fill-rule="evenodd" clip-rule="evenodd" d="M11.4698 1.25782H12.6553C12.972 1.25778 13.2696 1.25774 13.519 1.28627C13.7969 1.31807 14.0892 1.3916 14.3619 1.58855C14.6345 1.78542 14.7963 2.0397 14.9141 2.29341C15.0199 2.52128 15.1139 2.80398 15.2141 3.10512L15.2248 3.13723L15.553 4.11747C15.6477 4.35625 15.8134 4.55976 16.0273 4.7005L16.3297 4.87498C16.5828 5.00091 16.871 5.03679 17.1471 4.97683L18.348 4.63858L18.3827 4.62874C18.7107 4.53561 19.0174 4.44852 19.2815 4.40659C19.5753 4.35995 19.8967 4.354 20.229 4.48915C20.5611 4.62426 20.7872 4.85276 20.9652 5.09105C21.1253 5.30543 21.2846 5.58194 21.455 5.87785L21.9851 6.79775C22.1448 7.0748 22.2946 7.33479 22.3951 7.56693C22.5071 7.82544 22.5897 8.11728 22.5543 8.45385C22.5189 8.79046 22.3775 9.05876 22.2142 9.28833C22.0676 9.49447 21.867 9.71754 21.6532 9.95521L21.6308 9.98013L21.6295 9.9816L20.6184 11.112C20.492 11.2833 20.3599 11.6555 20.3599 12.0077C20.3599 12.3602 20.492 12.7323 20.6183 12.9035L21.6308 14.0354L21.6533 14.0604C21.867 14.298 22.0676 14.5211 22.2142 14.7272C22.3775 14.9568 22.5189 15.2251 22.5543 15.5617C22.5897 15.8983 22.5071 16.1901 22.3951 16.4486C22.2946 16.6808 22.1447 16.9408 21.985 17.2179L21.4551 18.1377C21.2846 18.4336 21.1253 18.7101 20.9652 18.9245C20.7872 19.1628 20.5612 19.3913 20.2289 19.5264C19.8966 19.6615 19.5753 19.6556 19.2815 19.6089C19.0174 19.567 18.7106 19.4799 18.3826 19.3868L18.348 19.3769L17.1471 19.0387C16.871 18.9787 16.5827 19.0146 16.3296 19.1406L16.0273 19.3151C15.8134 19.4558 15.6477 19.6593 15.553 19.898L15.2252 20.877L15.2141 20.9105C15.1139 21.2117 15.0199 21.4944 14.9141 21.7222C14.7963 21.9759 14.6345 22.2302 14.3619 22.4271C14.0892 22.624 13.7969 22.6976 13.519 22.7294C13.2696 22.7579 12.9719 22.7579 12.6552 22.7578H11.4698C11.1531 22.7579 10.8555 22.7579 10.6061 22.7294C10.3282 22.6976 10.0359 22.624 9.76314 22.4271C9.49053 22.2302 9.32874 21.9759 9.21094 21.7222C9.10514 21.4943 9.01112 21.2116 8.91098 20.9105L8.89985 20.877L8.57206 19.898C8.47735 19.6593 8.31166 19.4558 8.0978 19.3151L7.79548 19.1406C7.54234 19.0146 7.25404 18.9787 6.97796 19.0387L5.77713 19.3769L5.74246 19.3868C5.41444 19.4799 5.1077 19.567 4.84357 19.6089C4.54981 19.6556 4.22844 19.6615 3.89613 19.5264C3.56393 19.3913 3.33788 19.1628 3.15991 18.9245C2.99978 18.7101 2.84049 18.4336 2.67003 18.1377L2.65132 18.1052L2.14002 17.2178C1.98032 16.9408 1.83046 16.6808 1.72993 16.4486C1.618 16.1901 1.53542 15.8983 1.57078 15.5617C1.60614 15.2251 1.74758 14.9568 1.91085 14.7272C2.05745 14.5211 2.25809 14.298 2.47185 14.0603L2.49427 14.0354L2.49559 14.0339L3.50674 12.9035C3.63313 12.7322 3.76522 12.3602 3.76522 12.0077C3.76522 11.6555 3.6331 11.2833 3.50672 11.1121L2.49558 9.9816L2.49427 9.98013L2.47185 9.95521C2.25808 9.71754 2.05745 9.49447 1.91085 9.28833C1.74758 9.05876 1.60614 8.79046 1.57078 8.45386C1.53542 8.11728 1.61799 7.82544 1.72993 7.56693C1.83046 7.33478 1.98032 7.07478 2.14002 6.79771C2.14591 6.78748 2.15182 6.77723 2.15774 6.76695L2.65133 5.91035C2.65758 5.89951 2.66382 5.88869 2.67003 5.87789C2.8405 5.58196 2.99979 5.30544 3.15992 5.09105C3.33789 4.85276 3.56393 4.62426 3.89612 4.48915C4.22843 4.354 4.54979 4.35995 4.84354 4.40659C5.10768 4.44852 5.41441 4.53561 5.74242 4.62873C5.75415 4.63206 5.76591 4.6354 5.77769 4.63874C5.77741 4.63867 5.77796 4.63882 5.77769 4.63874L6.97801 4.97683C7.25403 5.03679 7.54225 5.00091 7.79536 4.87498L8.09775 4.7005C8.31165 4.55976 8.47737 4.35626 8.57209 4.11748L8.89985 3.13861C8.89978 3.13883 8.89992 3.1384 8.89985 3.13861C8.9035 3.12765 8.90735 3.11607 8.91098 3.10516C9.01112 2.80401 9.10514 2.52129 9.21094 2.29341C9.32874 2.0397 9.49054 1.78542 9.76314 1.58855C10.0359 1.3916 10.3281 1.31807 10.6061 1.28627C10.8555 1.25774 11.1531 1.25778 11.4698 1.25782ZM10.6413 2.8046L10.6405 2.80531C10.6399 2.80589 10.6371 2.80875 10.6321 2.81549C10.6213 2.83007 10.601 2.8615 10.5715 2.92509C10.506 3.06598 10.4384 3.26573 10.3232 3.61212L9.9836 4.62623L9.9778 4.64134C9.76766 5.1892 9.38793 5.65557 8.89389 5.97199L8.87925 5.98136L8.5115 6.19355L8.49525 6.2019C7.919 6.49797 7.25674 6.58058 6.62547 6.435L6.60796 6.43097L5.36901 6.082C4.99228 5.97509 4.7731 5.91419 4.60833 5.88803C4.53382 5.8762 4.49394 5.8758 4.47497 5.87695C4.46625 5.87748 4.46237 5.87832 4.46184 5.87844L4.46062 5.87894C4.4601 5.87926 4.45668 5.88141 4.44999 5.88718C4.43545 5.89973 4.40701 5.928 4.36172 5.98864C4.26165 6.12263 4.14675 6.31955 3.95101 6.65925L3.45742 7.51585C3.2738 7.83451 3.16865 8.01928 3.10642 8.16298C3.07834 8.22784 3.06827 8.26425 3.06457 8.28229C3.06286 8.29064 3.06259 8.29474 3.06254 8.29566L3.06257 8.29713L3.06284 8.29856C3.06308 8.29943 3.06419 8.30337 3.06759 8.31116C3.07493 8.32798 3.09232 8.36145 3.13325 8.419C3.22394 8.54652 3.36514 8.70526 3.61097 8.97865L3.61229 8.98011L4.65863 10.1499L4.67286 10.1679C5.04727 10.6419 5.26522 11.3703 5.26522 12.0077C5.26522 12.6452 5.04736 13.3735 4.67289 13.8476L4.65866 13.8656L3.61229 15.0354L3.61097 15.0369C3.36514 15.3103 3.22394 15.469 3.13325 15.5966C3.09232 15.6541 3.07494 15.6876 3.06759 15.7044C3.06419 15.7122 3.06308 15.7161 3.06284 15.717L3.06257 15.7184L3.06254 15.7199C3.06259 15.7208 3.06286 15.7249 3.06457 15.7333C3.06827 15.7513 3.07834 15.7877 3.10643 15.8526C3.16865 15.9963 3.2738 16.1811 3.45742 16.4997L3.95099 17.3563C4.14673 17.696 4.26163 17.8929 4.36171 18.0269C4.407 18.0875 4.43544 18.1158 4.44999 18.1284C4.45668 18.1341 4.4601 18.1363 4.46062 18.1366L4.46183 18.1371C4.46237 18.1372 4.46624 18.1381 4.47496 18.1386C4.49393 18.1397 4.53381 18.1393 4.60833 18.1275C4.7731 18.1013 4.99228 18.0404 5.36902 17.9335L6.6079 17.5845L6.62541 17.5805C7.25679 17.4349 7.91919 17.5176 8.49551 17.8137L8.51175 17.8221L8.87945 18.0343L8.89408 18.0437C9.38802 18.3601 9.76767 18.8264 9.97777 19.3742L9.98357 19.3893L10.3232 20.4035C10.4384 20.7499 10.506 20.9497 10.5715 21.0906C10.601 21.1541 10.6213 21.1856 10.6321 21.2001C10.6371 21.2069 10.6399 21.2097 10.6405 21.2103L10.6413 21.211C10.642 21.2114 10.6464 21.2136 10.6542 21.2162C10.6712 21.2218 10.7072 21.2311 10.7766 21.2391C10.9304 21.2567 11.1407 21.2578 11.5052 21.2578H12.6199C12.9844 21.2578 13.1947 21.2567 13.3485 21.2391C13.4179 21.2311 13.4538 21.2218 13.4709 21.2162C13.4787 21.2136 13.4822 21.2119 13.4829 21.2115L13.4846 21.2103C13.4851 21.2097 13.4879 21.2069 13.493 21.2001C13.5038 21.1856 13.5241 21.1541 13.5536 21.0906C13.619 20.9497 13.6867 20.7499 13.8019 20.4035L13.8024 20.4021L14.1415 19.3893L14.1473 19.3742C14.3574 18.8264 14.7371 18.3601 15.231 18.0437L15.2456 18.0343L15.6133 17.8221L15.6296 17.8137C16.2059 17.5176 16.8683 17.4349 17.4997 17.5805L17.5172 17.5845L18.7561 17.9335C19.1328 18.0404 19.352 18.1013 19.5168 18.1275C19.5913 18.1393 19.6311 18.1397 19.6501 18.1386C19.6588 18.1381 19.6627 18.1372 19.6632 18.1371L19.6645 18.1366C19.665 18.1363 19.6684 18.1341 19.6751 18.1284C19.6896 18.1158 19.7181 18.0875 19.7634 18.0269C19.8634 17.8929 19.9784 17.696 20.1741 17.3563L20.6677 16.4997C20.8513 16.1811 20.9564 15.9963 21.0187 15.8526C21.0467 15.7877 21.0568 15.7513 21.0605 15.7333C21.0622 15.7249 21.0625 15.7208 21.0625 15.7199L21.0625 15.7184L21.0622 15.717C21.062 15.7161 21.0609 15.7122 21.0575 15.7044C21.0501 15.6876 21.0328 15.6541 20.9918 15.5966C20.9011 15.469 20.7599 15.3103 20.5141 15.0369L19.4664 13.8656L19.4522 13.8476C19.0777 13.3735 18.8599 12.6452 18.8599 12.0077C18.8599 11.3703 19.0778 10.6419 19.4522 10.1679L19.4665 10.1499L20.5128 8.98012L20.5141 8.97865C20.7599 8.70526 20.9011 8.54652 20.9918 8.419C21.0328 8.36145 21.0501 8.32798 21.0575 8.31116C21.0609 8.30337 21.062 8.29943 21.0622 8.29856L21.0625 8.29714L21.0625 8.29566C21.0625 8.29474 21.0622 8.29064 21.0605 8.28229C21.0568 8.26425 21.0467 8.22784 21.0187 8.16298C20.9564 8.01928 20.8513 7.83451 20.6677 7.51585L20.1741 6.65925C19.9783 6.31955 19.8634 6.12263 19.7634 5.98864C19.7181 5.928 19.6896 5.89973 19.6751 5.88718C19.6684 5.88141 19.665 5.87926 19.6645 5.87894L19.6632 5.87844C19.6627 5.87832 19.6588 5.87748 19.6501 5.87695C19.6311 5.8758 19.5913 5.8762 19.5167 5.88803C19.352 5.91419 19.1328 5.97509 18.7561 6.082L17.5171 6.43097L17.4996 6.435C16.8683 6.58058 16.2061 6.49797 15.6298 6.2019L15.6136 6.19355L15.2458 5.98136L15.2312 5.97199C14.7372 5.65557 14.3574 5.1892 14.1473 4.64134L14.1415 4.62623L13.8019 3.61212C13.6867 3.26573 13.619 3.06598 13.5536 2.92509C13.5241 2.8615 13.5038 2.83007 13.493 2.81549C13.488 2.80875 13.4851 2.80589 13.4846 2.80531L13.4837 2.8046C13.4831 2.80426 13.4787 2.80203 13.4709 2.79942C13.4538 2.79379 13.4179 2.78449 13.3485 2.77655C13.1947 2.75896 12.9844 2.75782 12.6199 2.75782H11.5052C11.1407 2.75782 10.9304 2.75896 10.7766 2.77655C10.7072 2.78449 10.6712 2.79379 10.6542 2.79942C10.6464 2.80203 10.642 2.80426 10.6413 2.8046Z" fill="#0B0C0E"/>
    <path fill-rule="evenodd" clip-rule="evenodd" d="M12.0195 9.25C10.5007 9.25 9.26953 10.4812 9.26953 12C9.26953 13.5188 10.5007 14.75 12.0195 14.75C13.5383 14.75 14.7695 13.5188 14.7695 12C14.7695 10.4812 13.5383 9.25 12.0195 9.25ZM7.76953 12C7.76953 9.65279 9.67232 7.75 12.0195 7.75C14.3667 7.75 16.2695 9.65279 16.2695 12C16.2695 14.3472 14.3667 16.25 12.0195 16.25C9.67232 16.25 7.76953 14.3472 7.76953 12Z" fill="#0B0C0E"/>
  </symbol>
  <symbol id="setting-02" viewBox="0 0 24 24">
    <path d="M15.2979 2.00972C15.5823 1.97163 15.8221 2.05372 15.9854 2.12495C16.1354 2.19042 16.3046 2.28614 16.4688 2.37886L18.7178 3.66694C18.8635 3.77006 19.0607 3.93457 19.1738 4.20015C19.2973 4.49024 19.2579 4.78298 19.2285 4.9521C19.1968 5.13507 19.1304 5.38683 19.0674 5.62788C18.6712 7.14463 19.6393 8.77623 21.2061 9.19624L21.2334 9.20405C21.4705 9.26756 21.6935 9.32697 21.8672 9.3896C22.0298 9.44823 22.301 9.55848 22.4922 9.80659C22.6681 10.0348 22.7151 10.2849 22.7334 10.4619C22.7503 10.6251 22.75 10.8207 22.75 11.0107V12.9892C22.75 13.1792 22.7503 13.3748 22.7334 13.538C22.7151 13.715 22.668 13.9651 22.4922 14.1933C22.301 14.4414 22.0298 14.5517 21.8672 14.6103C21.6935 14.6729 21.2061 14.8037 21.2061 14.8037C19.6399 15.2236 18.6729 16.8551 19.0693 18.372C19.0725 18.3842 19.1981 18.8671 19.2295 19.0478C19.2588 19.2169 19.2992 19.5096 19.1758 19.7998C19.0627 20.0654 18.8655 20.2298 18.7197 20.333L16.4707 21.621L16.2236 21.7578C16.142 21.8015 16.0624 21.8422 15.9873 21.875C15.8241 21.9462 15.5841 22.0282 15.2998 21.9902C14.9906 21.9488 14.7607 21.7723 14.6289 21.6621C14.4903 21.5461 14.1451 21.2036 14.1377 21.1962C13.5543 20.6176 12.7771 20.3283 12 20.3281C11.2229 20.3283 10.4457 20.6176 9.86231 21.1962C9.85494 21.2036 9.50972 21.5461 9.3711 21.6621C9.23932 21.7723 9.00938 21.9488 8.7002 21.9902C8.41595 22.0282 8.17587 21.9462 8.0127 21.875C7.86277 21.8095 7.69336 21.7137 7.5293 21.621L5.28028 19.333C5.13449 19.2298 4.93732 19.0654 4.82423 18.7998C4.70078 18.5096 4.74117 18.2169 4.77051 18.0478C4.80189 17.8671 4.92748 17.3842 4.93067 17.372C5.32714 15.8551 4.36011 14.2236 2.79395 13.8037C2.79395 13.8037 2.30654 13.6729 2.13282 13.6103C1.97026 13.5517 1.69905 13.4414 1.50782 13.1933C1.33198 12.9651 1.28495 12.715 1.26661 12.538C1.2497 12.3748 1.24996 12.1792 1.25001 11.9892V11.0107C1.24996 10.8207 1.24969 10.6251 1.26661 10.4619C1.28496 10.2849 1.33195 10.0348 1.50782 9.80659C1.69905 9.55848 1.97025 9.44823 2.13282 9.3896C2.30654 9.32697 2.52955 9.26756 2.76661 9.20405L2.79395 9.19624C4.3607 8.77623 5.32885 7.14463 4.93262 5.62788C4.86963 5.38683 4.80323 5.13507 4.77149 4.9521C4.74216 4.78298 4.70272 4.49024 4.82618 4.20015C4.93928 3.93457 5.13647 3.77006 5.28223 3.66694L7.53126 2.37886C7.69546 2.28614 7.86463 2.19042 8.01466 2.12495C8.17788 2.05372 8.41776 1.97163 8.70216 2.00972C9.01128 2.05114 9.24031 2.22768 9.37208 2.33784C9.51202 2.45485 9.86426 2.80366 9.86426 2.80366C10.4473 3.38172 11.2236 3.67063 12 3.67085C12.7764 3.67063 13.5527 3.38172 14.1357 2.80366C14.1357 2.80366 14.488 2.45485 14.6279 2.33784C14.7597 2.22768 14.9887 2.05114 15.2979 2.00972ZM12 8.49995C10.067 8.49995 8.50001 10.067 8.50001 12C8.50001 13.9329 10.067 15.5 12 15.5C13.933 15.5 15.5 13.9329 15.5 12C15.5 10.067 13.933 8.49995 12 8.49995Z" fill="#0B0C0E"/>
  </symbol>
  <symbol id="file-01" viewBox="0 0 24 24">
    <path d="M19.75 11.8184V9.27246C19.75 7.71997 19.749 6.62091 19.6494 5.77441C19.5641 5.04943 19.4129 4.57975 19.1738 4.21875L19.0654 4.06934C18.9173 3.88312 18.7476 3.71198 18.5596 3.55859L18.3652 3.41113C17.9481 3.11726 17.4025 2.9392 16.5059 2.8457C15.5969 2.75097 14.4192 2.75 12.7725 2.75H12C9.97655 2.75 8.52994 2.75153 7.43067 2.89063C6.3486 3.02756 5.71724 3.28629 5.25879 3.71777C4.80681 4.14318 4.54093 4.7195 4.39844 5.7168C4.25217 6.74073 4.25 8.09189 4.25 10V16.1816C4.25 17.0382 4.25074 17.6446 4.28223 18.1221C4.31326 18.5923 4.37167 18.8858 4.46484 19.1211L4.53516 19.2832C4.90557 20.0827 5.61279 20.7238 6.51367 21.04L6.73633 21.1064C7.28322 21.2418 8.05252 21.25 9.68164 21.25C12.8935 21.25 14.3069 21.2389 15.4131 20.8506L15.751 20.7227C17.4154 20.0397 18.7062 18.7541 19.334 17.1699L19.4023 16.9824C19.5539 16.5323 19.6442 15.9954 19.6934 15.25C19.7499 14.3918 19.75 13.3096 19.75 11.8184ZM21.25 11.8184C21.25 13.2898 21.25 14.4296 21.1895 15.3486C21.136 16.1587 21.0333 16.837 20.8242 17.459L20.7285 17.7227C19.9428 19.7053 18.3425 21.2804 16.3203 22.1104L15.9102 22.2666C14.5018 22.761 12.7665 22.75 9.68164 22.75C8.0545 22.75 7.02097 22.7592 6.18164 22.5088L6.0166 22.4551C4.75176 22.0111 3.72193 21.0975 3.17383 19.9141L3.07031 19.6738C2.89579 19.2332 2.82109 18.7654 2.78516 18.2207C2.74966 17.6825 2.75 17.0184 2.75 16.1816V10C2.75 8.13689 2.74816 6.65945 2.91309 5.50488C3.0818 4.32384 3.43771 3.37113 4.23047 2.625C5.01674 1.88501 6.00979 1.55832 7.24219 1.40234C8.45759 1.24855 10.0165 1.25 12 1.25H12.7725C14.3869 1.25 15.6564 1.24879 16.6611 1.35352C17.6776 1.45948 18.5134 1.68086 19.2285 2.18457L19.5078 2.39551C19.7781 2.61593 20.0232 2.86419 20.2393 3.13574L20.4297 3.39844C20.8423 4.02484 21.0386 4.74801 21.1387 5.59863C21.251 6.55312 21.25 7.75606 21.25 9.27246V11.8184Z" fill="#0B0C0E"/>
    <path d="M13.083 18.667C13.083 18.5199 13.0766 18.3612 13.0684 18.1836C13.0604 18.0113 13.0509 17.8182 13.0469 17.626C13.039 17.2461 13.0514 16.8029 13.166 16.375L13.2129 16.2207C13.4716 15.461 14.0931 14.8755 14.875 14.666L15.0352 14.627C15.4121 14.5479 15.7934 14.54 16.126 14.5469C16.3182 14.5509 16.5113 14.5604 16.6836 14.5684C16.8612 14.5766 17.0199 14.583 17.167 14.583L17.4307 14.5703C18.7334 14.4381 19.75 13.3376 19.75 12C19.75 11.5858 20.0858 11.25 20.5 11.25C20.9142 11.25 21.25 11.5858 21.25 12C21.25 14.1846 19.5344 15.9687 17.377 16.0781L17.167 16.083C16.9812 16.083 16.7913 16.0756 16.6143 16.0674C16.4319 16.0589 16.2628 16.0504 16.0947 16.0469C15.8395 16.0416 15.6225 16.0491 15.4375 16.0781L15.2627 16.1143C14.9859 16.1884 14.7617 16.387 14.6533 16.6475L14.6143 16.7627C14.5556 16.9818 14.5398 17.2543 14.5469 17.5947C14.5504 17.7628 14.5589 17.9319 14.5674 18.1143C14.5756 18.2913 14.583 18.4812 14.583 18.667C14.5828 20.922 12.7551 22.75 10.5 22.75C10.0858 22.75 9.75 22.4142 9.75 22C9.75 21.5858 10.0858 21.25 10.5 21.25C11.9266 21.25 13.0828 20.0936 13.083 18.667Z" fill="#0B0C0E"/>
    <path d="M15 6.25C15.4142 6.25 15.75 6.58579 15.75 7C15.75 7.41421 15.4142 7.75 15 7.75H8C7.58579 7.75 7.25 7.41421 7.25 7C7.25 6.58579 7.58579 6.25 8 6.25H15Z" fill="#0B0C0E"/>
    <path d="M11 10.25C11.4142 10.25 11.75 10.5858 11.75 11C11.75 11.4142 11.4142 11.75 11 11.75H8C7.58579 11.75 7.25 11.4142 7.25 11C7.25 10.5858 7.58579 10.25 8 10.25H11Z" fill="#0B0C0E"/>
  </symbol>

</svg> 