<svg xmlns="http://www.w3.org/2000/svg" style="display:none">
  <!-- Paste your <symbol id="icon-name">...</symbol> icons here -->
  <symbol id="circle-arrow-up-right-round" viewBox="0 0 33 32">
    <circle cx="16.5" cy="16" r="14" fill="#007BFF"/>
    <path d="M20.6597 11.3403L12 20M20.6597 11.3403C19.9017 10.5823 16.3268 11.325 15.2474 11.3403M20.6597 11.3403C21.4177 12.0983 20.675 15.6732 20.6597 16.7526" stroke="white" stroke-width="1.5" stroke-linecap="round" stroke-linejoin="round"/>
  </symbol>
  <symbol id="plus-sign-circle" viewBox="0 0 33 32">
    <circle cx="16" cy="16" r="14" fill="#007BFF"/>
    <path d="M16 10V22M22 16H10" stroke="white" stroke-width="1.5" stroke-linecap="round" stroke-linejoin="round"/>
  </symbol>
  <symbol id="circle-arrow-reload-01-round" viewBox="0 0 33 32">
    <circle cx="16.5" cy="16" r="14" fill="#007BFF"/>
    <path d="M22.5 13.4286H11.9216C11.0595 13.4286 10.6285 13.4286 10.5212 13.164C10.4139 12.8995 10.7187 12.5881 11.3283 11.9654L13.2522 10M10.5 18.5715H21.0784C21.9405 18.5715 22.3715 18.5715 22.4788 18.836C22.5861 19.1006 22.2813 19.412 21.6717 20.0347L19.7478 22" stroke="white" stroke-width="1.5" stroke-linecap="round" stroke-linejoin="round"/>
  </symbol>
  <symbol id="clock-02" viewBox="0 0 33 32">
    <circle cx="16.5" cy="16" r="14" fill="#007BFF"/>
    <path d="M9.87649 13.5177C11.136 10.1934 14.7521 8.29998 18.2777 9.24136C22.0328 10.244 24.2633 14.0828 23.2596 17.8155C22.2559 21.5482 18.3981 23.7614 14.643 22.7587C11.8549 22.0143 9.90734 19.7063 9.5 17.0391M9.87649 13.5177L13.5 13M9.87649 13.5177L8.5 10.5" stroke="white" stroke-width="1.5" stroke-linecap="round" stroke-linejoin="round"/>
  </symbol>
  <symbol id="circle-arrow-down-left-round" viewBox="0 0 33 32">
    <circle cx="16.5" cy="16" r="14" fill="#007BFF"/>
    <path d="M12.8025 19.6975L20.5 12M12.8025 19.6975C13.4762 20.3713 16.6539 19.7112 17.6134 19.6975M12.8025 19.6975C12.1287 19.0238 12.7889 15.8461 12.8025 14.8866" stroke="white" stroke-width="1.5" stroke-linecap="round" stroke-linejoin="round"/>
  </symbol>
</svg> 