<svg xmlns="http://www.w3.org/2000/svg" style="display:none">
  <!-- Paste your <symbol id="icon-name">...</symbol> icons here -->
  <symbol id="circle-arrow-up-right-round" viewBox="0 0 33 32">
    <circle cx="16.5" cy="16" r="14" fill="#007BFF"/>
    <path d="M20.6597 11.3403L12 20M20.6597 11.3403C19.9017 10.5823 16.3268 11.325 15.2474 11.3403M20.6597 11.3403C21.4177 12.0983 20.675 15.6732 20.6597 16.7526" stroke="white" stroke-width="1.5" stroke-linecap="round" stroke-linejoin="round"/>
  </symbol>
  <symbol id="plus-sign-circle" viewBox="0 0 33 32">
    <circle cx="16" cy="16" r="14" fill="#007BFF"/>
    <path d="M16 10V22M22 16H10" stroke="white" stroke-width="1.5" stroke-linecap="round" stroke-linejoin="round"/>
  </symbol>
  <symbol id="circle-arrow-reload-01-round" viewBox="0 0 33 32">
    <circle cx="16.5" cy="16" r="14" fill="#007BFF"/>
    <path d="M22.5 13.4286H11.9216C11.0595 13.4286 10.6285 13.4286 10.5212 13.164C10.4139 12.8995 10.7187 12.5881 11.3283 11.9654L13.2522 10M10.5 18.5715H21.0784C21.9405 18.5715 22.3715 18.5715 22.4788 18.836C22.5861 19.1006 22.2813 19.412 21.6717 20.0347L19.7478 22" stroke="white" stroke-width="1.5" stroke-linecap="round" stroke-linejoin="round"/>
  </symbol>
  <symbol id="clock-02" viewBox="0 0 33 32">
    <circle cx="16.5" cy="16" r="14" fill="#007BFF"/>
    <path d="M9.87649 13.5177C11.136 10.1934 14.7521 8.29998 18.2777 9.24136C22.0328 10.244 24.2633 14.0828 23.2596 17.8155C22.2559 21.5482 18.3981 23.7614 14.643 22.7587C11.8549 22.0143 9.90734 19.7063 9.5 17.0391M9.87649 13.5177L13.5 13M9.87649 13.5177L8.5 10.5" stroke="white" stroke-width="1.5" stroke-linecap="round" stroke-linejoin="round"/>
  </symbol>
  <symbol id="circle-arrow-down-left-round" viewBox="0 0 33 32">
    <circle cx="16.5" cy="16" r="14" fill="#007BFF"/>
    <path d="M12.8025 19.6975L20.5 12M12.8025 19.6975C13.4762 20.3713 16.6539 19.7112 17.6134 19.6975M12.8025 19.6975C12.1287 19.0238 12.7889 15.8461 12.8025 14.8866" stroke="white" stroke-width="1.5" stroke-linecap="round" stroke-linejoin="round"/>
  </symbol>
  <symbol id="rotate-left" viewBox="0 0 24 24">
    <path d="M12 22.75C6.79996 22.75 2.57996 18.52 2.57996 13.33C2.57996 11.46 3.12996 9.65 4.16996 8.09C4.39996 7.75 4.86996 7.65 5.20996 7.88C5.54996 8.11 5.64996 8.58 5.41996 8.92C4.54996 10.22 4.08996 11.75 4.08996 13.32C4.08996 17.69 7.63996 21.24 12.01 21.24C16.38 21.24 19.93 17.69 19.93 13.32C19.93 8.95 16.37 5.4 12 5.4C11.08 5.4 10.18 5.53 9.32996 5.79C8.92996 5.91 8.50996 5.69 8.38996 5.29C8.26996 4.89 8.48996 4.47 8.88996 4.35C9.88996 4.05 10.93 3.89 12 3.89C17.2 3.89 21.42 8.12 21.42 13.31C21.42 18.5 17.2 22.75 12 22.75Z" fill="#292D32"/>
    <path d="M7.86999 6.07C7.69999 6.07 7.51999 6.01 7.37999 5.89C7.05999 5.61 7.02999 5.14 7.29999 4.83L10.19 1.51C10.46 1.2 10.94 1.16 11.25 1.44C11.56 1.71 11.59 2.19 11.32 2.5L8.42999 5.81C8.27999 5.98 8.06999 6.07 7.86999 6.07Z" fill="#292D32"/>
    <path d="M11.24 8.53C11.09 8.53 10.93 8.48 10.8 8.39L7.41995 5.92C7.08995 5.68 7.01995 5.21 7.25995 4.88C7.49995 4.54 7.96995 4.47 8.30995 4.71L11.68 7.17C12.01 7.41 12.09 7.88 11.84 8.22C11.7 8.43 11.47 8.53 11.24 8.53Z" fill="#292D32"/>
  </symbol>
  <symbol id="check-list" viewBox="0 0 24 24">
    <path fill-rule="evenodd" clip-rule="evenodd" d="M10.0001 6.00005C10.0001 5.44776 10.4478 5.00005 11.0001 5.00005L21.0001 5.00005C21.5524 5.00005 22.0001 5.44776 22.0001 6.00005C22.0001 6.55233 21.5524 7.00005 21.0001 7.00005L11.0001 7.00005C10.4478 7.00005 10.0001 6.55233 10.0001 6.00005Z" fill="#141B34"/>
    <path fill-rule="evenodd" clip-rule="evenodd" d="M10.0001 12C10.0001 11.4478 10.4478 11 11.0001 11L21.0001 11C21.5524 11 22.0001 11.4478 22.0001 12C22.0001 12.5523 21.5524 13 21.0001 13L11.0001 13C10.4478 13 10.0001 12.5523 10.0001 12Z" fill="#141B34"/>
    <path fill-rule="evenodd" clip-rule="evenodd" d="M10.0001 18C10.0001 17.4478 10.4478 17 11.0001 17L21.0001 17C21.5524 17 22.0001 17.4478 22.0001 18C22.0001 18.5523 21.5524 19 21.0001 19L11.0001 19C10.4478 19 10.0001 18.5523 10.0001 18Z" fill="#141B34"/>
    <path d="M8.84811 3.47008C9.14082 3.93842 8.99845 4.55537 8.53011 4.84808C7.75692 5.33132 6.98454 6.38665 6.36836 7.46497C6.07342 7.98111 5.83636 8.46247 5.67314 8.81488C5.61083 8.94763 5.4842 9.24113 5.42867 9.37128C5.2836 9.73364 4.94076 9.97896 4.55093 9.99879C4.16099 10.0186 3.79517 9.80971 3.61413 9.46379C3.44089 9.13278 3.16067 8.82283 2.89219 8.58023C2.78725 8.48162 2.55615 8.30596 2.45372 8.23046C1.99132 7.9288 1.86086 7.30945 2.16236 6.84689C2.46394 6.38421 3.08349 6.25361 3.54617 6.55519C3.68236 6.64696 4.01827 6.89082 4.27235 7.13209C4.38104 6.92327 4.5012 6.70138 4.63187 6.47269C5.26569 5.36352 6.24331 3.91884 7.47012 3.15208C7.93845 2.85937 8.5554 3.00174 8.84811 3.47008Z" fill="#141B34"/>
    <path d="M8.84811 14.47C9.14082 14.9383 8.99845 15.5553 8.53011 15.848C7.75692 16.3312 6.98454 17.3866 6.36836 18.4649C6.07342 18.981 5.83636 19.4624 5.67314 19.8148C5.61083 19.9476 5.4842 20.2411 5.42867 20.3712C5.2836 20.7336 4.94076 20.9789 4.55093 20.9987C4.16099 21.0186 3.79517 20.8096 3.61413 20.4637C3.44089 20.1327 3.16067 19.8228 2.89219 19.5802C2.78725 19.4815 2.55615 19.3059 2.45372 19.2304C1.99132 18.9287 1.86086 18.3094 2.16236 17.8468C2.46394 17.3841 3.08349 17.2535 3.54617 17.5551C3.68236 17.6469 4.01827 17.8907 4.27235 18.132C4.38104 17.9232 4.5012 17.7013 4.63187 17.4726C5.26569 16.3634 6.24331 14.9188 7.47012 14.152C7.93845 13.8593 8.5554 14.0017 8.84811 14.47Z" fill="#141B34"/>
  </symbol>
  <symbol id="loading" viewBox="0 0 24 24">
    <circle opacity="0.4" cx="12" cy="12" r="9" stroke="#0B0C0E" stroke-width="2"/>
    <path d="M12 21C7.02944 21 3 16.9706 3 12" stroke="#0B0C0E" stroke-width="2"/>
  </symbol>
  <symbol id="chatting-01" viewBox="0 0 24 24">
    <path fill-rule="evenodd" clip-rule="evenodd" d="M11.0793 2.75C6.4417 2.75 2.75 6.30644 2.75 10.61C2.75 12.6831 3.60011 14.5725 5.00061 15.9822L5.00063 15.9822C5.44071 16.4252 5.82963 17.1258 5.67643 17.9306L5.67619 17.9318C5.58858 18.3878 5.44472 18.8288 5.24911 19.2445C6.01063 19.2093 6.76164 19.006 7.43827 18.6493L7.45301 18.6415C7.64652 18.5395 7.81385 18.4513 7.95065 18.3869C8.08261 18.3248 8.25315 18.2514 8.4398 18.2231C8.67913 18.1869 8.92805 18.2269 9.12689 18.2611C9.53513 18.3311 9.80927 18.7189 9.73919 19.1271C9.66911 19.5354 9.28135 19.8095 8.87311 19.7394C8.77202 19.7221 8.71036 19.7136 8.66987 19.7102C8.66878 19.7101 8.66773 19.71 8.6667 19.7099C8.65102 19.7162 8.62601 19.7268 8.58959 19.744C8.48729 19.7922 8.35037 19.8641 8.13776 19.9762C6.82495 20.6683 5.29389 20.9135 3.81706 20.6412C3.55605 20.5931 3.33992 20.4106 3.24872 20.1614C3.15752 19.9122 3.20484 19.6333 3.37315 19.4281C3.79009 18.9197 4.07655 18.3075 4.20314 17.6488L4.93966 17.7903L4.20289 17.65C4.23127 17.501 4.17027 17.2747 3.93646 17.0394C2.27626 15.3682 1.25 13.106 1.25 10.61C1.25 5.40399 5.68928 1.25 11.0793 1.25C15.8497 1.25 19.8664 4.49715 20.7355 8.85326C20.8165 9.25946 20.553 9.65446 20.1467 9.7355C19.7405 9.81655 19.3455 9.55295 19.2645 9.14674C18.5433 5.53195 15.1759 2.75 11.0793 2.75Z" fill="#0B0C0E"/>
    <path fill-rule="evenodd" clip-rule="evenodd" d="M10.25 16.2617C10.25 12.9108 13.0802 10.25 16.5 10.25C19.9198 10.25 22.75 12.9108 22.75 16.2617C22.75 17.8671 22.0953 19.3213 21.039 20.3939C20.9957 20.4379 20.9721 20.478 20.9621 20.5032C20.9595 20.5098 20.9581 20.5143 20.9575 20.5171C21.0261 20.8706 21.1789 21.1975 21.3988 21.468C21.5658 21.6733 21.6121 21.9514 21.5209 22.1998C21.4296 22.4482 21.2142 22.6301 20.954 22.6785C19.9913 22.8576 18.9951 22.6961 18.1416 22.2422C18.0361 22.1861 17.9664 22.1492 17.9148 22.1234C17.8665 22.1314 17.8009 22.1436 17.7025 22.1621C17.306 22.2365 16.9034 22.2739 16.4995 22.2734C13.08 22.2731 10.25 19.6125 10.25 16.2617ZM16.4995 22.2734C16.4994 22.2734 16.4992 22.2734 16.499 22.2734L16.5 21.5234V22.2734C16.4998 22.2734 16.4997 22.2734 16.4995 22.2734ZM16.5 11.75C13.8453 11.75 11.75 13.8011 11.75 16.2617C11.75 18.7222 13.8453 20.7734 16.5 20.7734L16.501 20.7734C16.8112 20.7738 17.1206 20.7451 17.4256 20.6878L17.4403 20.6851C17.5538 20.6638 17.6643 20.643 17.7572 20.6302C17.8499 20.6175 17.9904 20.6024 18.1441 20.6259C18.303 20.6501 18.4394 20.7115 18.5235 20.7514C18.6126 20.7937 18.7192 20.8504 18.8328 20.9108L18.8459 20.9178C19.078 21.0412 19.3258 21.1314 19.5808 21.1863C19.5409 21.0565 19.508 20.9242 19.4825 20.79L19.4822 20.7887C19.366 20.1725 19.663 19.6535 19.9702 19.3415L19.9702 19.3415C20.768 18.5313 21.25 17.4485 21.25 16.2617C21.25 13.8011 19.1547 11.75 16.5 11.75ZM20.9569 20.5204C20.9569 20.5205 20.9569 20.5201 20.957 20.5195L20.9569 20.5204Z" fill="#0B0C0E"/>
  </symbol>
  <symbol id="change-screen-mode" viewBox="0 0 24 24">
    <path d="M16.0585 1.25C17.423 1.24998 18.5286 1.24996 19.3993 1.37603C20.31 1.50789 21.0719 1.79079 21.6709 2.43593C22.2627 3.07319 22.5154 3.87028 22.6344 4.8236C22.75 5.74987 22.75 6.93067 22.75 8.40963V8.40968V9.59033V9.59037C22.75 11.0693 22.75 12.2501 22.6344 13.1764C22.5154 14.1297 22.2627 14.9268 21.6709 15.5641C21.0719 16.2092 20.31 16.4921 19.3993 16.624C18.5286 16.75 17.423 16.75 16.0584 16.75H11.9416C10.577 16.75 9.47144 16.75 8.60071 16.624C7.68997 16.4921 6.92815 16.2092 6.32909 15.5641C5.73735 14.9268 5.48463 14.1297 5.36561 13.1764C5.24997 12.2501 5.24998 11.0693 5.25 9.59033V9.59032V8.40968V8.40967C5.24998 6.93069 5.24997 5.74988 5.36561 4.8236C5.48463 3.87028 5.73735 3.07319 6.32909 2.43593C6.92815 1.79079 7.68997 1.50789 8.60071 1.37603C9.47143 1.24996 10.577 1.24998 11.9415 1.25H11.9416H16.0584H16.0585Z" fill="#0B0C0E"/>
    <path fill-rule="evenodd" clip-rule="evenodd" d="M7.08324 8.1873C7.10068 8.72205 6.67976 9.16963 6.1431 9.187C4.62769 9.23605 4.11421 9.4284 3.78943 9.77734C3.55957 10.0243 3.38871 10.391 3.29377 11.1497C3.19623 11.9292 3.19445 12.9658 3.19445 14.4686V15.5133C3.19445 17.0161 3.19623 18.0528 3.29377 18.8322C3.38871 19.5909 3.55957 19.9576 3.78943 20.2046C4.00964 20.4412 4.32244 20.6106 4.99495 20.7078C5.7034 20.8101 6.65154 20.8125 8.05619 20.8125H11.9455C13.3502 20.8125 14.2983 20.8101 15.0067 20.7078C15.6792 20.6106 15.9921 20.4412 16.2123 20.2046C16.4141 19.9877 16.5695 19.6796 16.6688 19.099C16.7718 18.4962 16.7996 17.6963 16.8056 16.5529C16.8083 16.0179 17.2459 15.5864 17.7828 15.5892C18.3197 15.592 18.7528 16.0279 18.75 16.5629C18.7441 17.6917 18.7192 18.6432 18.5856 19.4244C18.4483 20.2278 18.1832 20.9362 17.6379 21.5221C17.0038 22.2034 16.2019 22.4929 15.2857 22.6252C14.4214 22.7501 13.3313 22.75 12.0185 22.75H7.98322C6.67034 22.75 5.58025 22.7501 4.71599 22.6252C3.79982 22.4929 2.9979 22.2034 2.36375 21.5221C1.73924 20.8511 1.48292 20.0202 1.36427 19.072C1.24995 18.1585 1.24997 17.0004 1.25 15.5781V14.4038C1.24997 12.9815 1.24995 11.8234 1.36427 10.9099C1.48292 9.96172 1.73924 9.1308 2.36375 8.45983C3.28608 7.46888 4.57446 7.29925 6.07997 7.25052C6.61663 7.23315 7.06581 7.65256 7.08324 8.1873Z" fill="#0B0C0E"/>
  </symbol>
  <symbol id="link-forward" viewBox="0 0 24 24">
    <path fill-rule="evenodd" clip-rule="evenodd" d="M14.2393 4.84645C14.579 4.72674 14.922 4.71822 15.2608 4.82225C15.5757 4.91889 15.8486 5.10113 16.0874 5.29546C16.5392 5.66307 17.0952 6.27477 17.7577 6.93959C18.4247 7.60895 19.0917 8.27833 19.7588 8.94766C20.331 9.52188 20.8124 10.0049 21.1441 10.4393C21.4947 10.8986 21.75 11.3933 21.75 11.9945C21.75 12.5957 21.4947 13.0903 21.1441 13.5496C20.8124 13.984 20.331 14.467 19.7588 15.0413L17.7577 17.0493C17.2162 17.5928 16.7233 18.1986 16.1384 18.6964C15.9031 18.8967 15.6259 19.0885 15.2928 19.1852C14.9371 19.2883 14.5849 19.2642 14.2394 19.1425C13.7272 18.962 13.4428 18.5542 13.2903 18.1796C13.1407 17.8117 13.0832 17.3984 13.0608 17.0336C13.0384 16.6697 13.0484 16.303 13.0627 15.9944C12.2344 15.9758 11.4153 15.9381 10.5934 15.9405C9.52472 15.9436 8.51377 16.016 7.57996 16.2711C6.19418 16.6496 5.01677 17.4867 3.72537 18.4048C3.20917 18.7718 2.25 18.9112 2.25 18C2.25 15.7826 2.63928 13.5774 3.71853 11.7859C4.81541 9.96524 6.58967 8.6333 9.21137 8.14077C10.486 7.90131 11.8445 7.94934 13.0618 7.97463C13.048 7.67021 13.0389 7.31145 13.0608 6.95538C13.0832 6.59054 13.1407 6.1772 13.2903 5.80938C13.4428 5.43471 13.7272 5.02695 14.2393 4.84645Z" fill="#0B0C0E"/>
  </symbol>
  <symbol id="plus-sign-circle" viewBox="0 0 24 24">
    <path d="M12 1.25C17.9371 1.25 22.75 6.06294 22.75 12C22.75 17.9371 17.9371 22.75 12 22.75C6.06294 22.75 1.25 17.9371 1.25 12C1.25 6.06294 6.06294 1.25 12 1.25ZM12 7C11.4477 7 11 7.44772 11 8V11H8C7.44772 11 7 11.4477 7 12C7 12.5523 7.44772 13 8 13H11V16C11 16.5523 11.4477 17 12 17C12.5523 17 13 16.5523 13 16V13H16C16.5523 13 17 12.5523 17 12C17 11.4477 16.5523 11 16 11H13V8C13 7.44772 12.5523 7 12 7Z" fill="#0B0C0E"/>
  </symbol>
  <symbol id="arrow-up-right-01-round" viewBox="0 0 24 24">
    <path fill-rule="evenodd" clip-rule="evenodd" d="M17.7071 6.29297C18.0976 6.68349 18.0976 7.31666 17.7071 7.70718L6.70711 18.7072C6.31658 19.0977 5.68342 19.0977 5.29289 18.7072C4.90237 18.3167 4.90237 17.6835 5.29289 17.293L16.2929 6.29297C16.6834 5.90245 17.3166 5.90245 17.7071 6.29297Z" fill="#0B0C0E"/>
    <path d="M17.2444 5.28976C17.5251 5.37167 17.9065 5.51528 18.1956 5.80438C18.4847 6.09349 18.6284 6.47491 18.7103 6.7556C18.8008 7.06593 18.8606 7.41695 18.9018 7.77002C18.9846 8.47874 19.0051 9.31062 18.9991 10.0841C18.993 10.8637 18.9594 11.6122 18.9277 12.1638C18.9118 12.4403 18.8962 12.6687 18.8846 12.8287C18.8788 12.908 18.8686 13.0376 18.8651 13.0822L18.865 13.0834C18.8186 13.6337 18.3348 14.0428 17.7845 13.9964C17.2342 13.95 16.8257 13.4663 16.872 12.916C16.8751 12.8765 16.8844 12.7594 16.8899 12.6837C16.9009 12.5323 16.9157 12.3139 16.931 12.0489C16.9616 11.5175 16.9934 10.8042 16.9991 10.0685C17.0049 9.32676 16.984 8.58995 16.9153 8.00194C16.8808 7.70664 16.8116 7.39689 16.7645 7.2355C16.6031 7.1884 16.2934 7.11918 15.9981 7.0847C15.41 7.01605 14.6732 6.99506 13.9315 7.00086C13.1958 7.00662 12.4825 7.0384 11.9511 7.06898C11.686 7.08423 11.4677 7.09911 11.3163 7.11011C11.2406 7.11561 11.124 7.12479 11.0844 7.12791C10.5341 7.17425 10.05 6.76578 10.0036 6.21548C9.9572 5.66514 10.3657 5.1814 10.9161 5.13501L10.9183 5.13483C10.9639 5.13124 11.0926 5.12109 11.1713 5.11537C11.3313 5.10374 11.5598 5.08819 11.8362 5.07228C12.3878 5.04054 13.1363 5.00703 13.9159 5.00092C14.6894 4.99487 15.5213 5.01545 16.23 5.0982C16.5831 5.13942 16.9341 5.19919 17.2444 5.28976Z" fill="#0B0C0E"/>
  </symbol>
  <symbol id="arrow-horizontal-round" viewBox="0 0 24 24">
    <path d="M22 12.75C22.4142 12.75 22.75 12.4142 22.75 12C22.75 11.5858 22.4142 11.25 22 11.25V12.75ZM2 11.25C1.58579 11.25 1.25 11.5858 1.25 12C1.25 12.4142 1.58579 12.75 2 12.75L2 11.25ZM22 12V11.25L2 11.25L2 12L2 12.75L22 12.75V12Z" fill="#0B0C0E"/>
    <path d="M19 9C19.6068 9.58984 22 11.1597 22 12C22 12.8403 19.6068 14.4102 19 15" stroke="#0B0C0E" stroke-width="1.5" stroke-linecap="round" stroke-linejoin="round"/>
  </symbol>
  <symbol id="user" viewBox="0 0 24 24">
    <path fill-rule="evenodd" clip-rule="evenodd" d="M17.0388 16.126C13.9576 14.2913 10.0425 14.2913 6.96134 16.126C6.79344 16.226 6.60946 16.3303 6.41674 16.4397C5.70413 16.844 4.87211 17.316 4.29202 17.8838C3.93189 18.2363 3.77838 18.5271 3.75382 18.7517C3.73433 18.9301 3.77942 19.2242 4.23005 19.6536C5.2659 20.6404 6.31848 21.25 7.59092 21.25H16.4092C17.6816 21.25 18.7342 20.6404 19.7701 19.6535C20.2207 19.2242 20.2658 18.9301 20.2463 18.7517C20.2217 18.5271 20.0682 18.2363 19.7081 17.8838C19.128 17.316 18.296 16.844 17.5834 16.4397C17.3907 16.3303 17.2067 16.226 17.0388 16.126ZM17.8062 14.8372L17.4225 15.4816L17.8062 14.8372C17.9225 14.9064 18.0662 14.9875 18.2288 15.0793C18.9417 15.4814 20.0192 16.0893 20.7573 16.8118C21.219 17.2637 21.6577 17.8592 21.7374 18.5888C21.8222 19.3646 21.4837 20.0927 20.8047 20.7396C19.6333 21.8556 18.2275 22.75 16.4092 22.75H7.59092C5.77261 22.75 4.36683 21.8556 3.19538 20.7396C2.51636 20.0927 2.1779 19.3646 2.26271 18.5888C2.34245 17.8592 2.78111 17.2637 3.24277 16.8118C3.98094 16.0893 5.05845 15.4814 5.77126 15.0793C5.93393 14.9875 6.0776 14.9064 6.19392 14.8372C9.74797 12.7209 14.2521 12.7209 17.8062 14.8372Z" fill="#0B0C0E"/>
    <path fill-rule="evenodd" clip-rule="evenodd" d="M12 2.75C9.92893 2.75 8.25 4.42893 8.25 6.5C8.25 8.57107 9.92893 10.25 12 10.25C14.0711 10.25 15.75 8.57107 15.75 6.5C15.75 4.42893 14.0711 2.75 12 2.75ZM6.75 6.5C6.75 3.6005 9.1005 1.25 12 1.25C14.8995 1.25 17.25 3.6005 17.25 6.5C17.25 9.39949 14.8995 11.75 12 11.75C9.1005 11.75 6.75 9.39949 6.75 6.5Z" fill="#0B0C0E"/>
  </symbol>
  <symbol id="wallet-02" viewBox="0 0 24 24">
    <path d="M14.668 1.29394C15.4922 1.22174 16.9263 1.09611 17.8867 2.2666C18.591 3.12499 18.7556 4.30198 18.75 5.28711C18.7471 5.80449 18.6969 6.32158 18.6221 6.7998C18.5776 7.08402 18.5549 7.22645 18.6162 7.32227C18.6776 7.41808 18.8208 7.45826 19.1064 7.53906C19.7513 7.72151 20.31 8.00158 20.7432 8.46875C21.2989 9.06816 21.5336 9.81615 21.6436 10.6992C21.7502 11.5556 21.75 12.6461 21.75 14.0049V16.1299C21.75 17.5233 21.7501 18.652 21.6191 19.541C21.4819 20.472 21.188 21.2473 20.5225 21.8555C19.8643 22.4569 19.0973 22.6849 18.1943 22.7383C17.342 22.7886 16.2259 22.6796 14.9375 22.5537C12.3231 22.2982 9.39231 21.8509 6.59375 21.0947C5.06496 20.6828 3.79959 20.3411 3.02344 19.3223C2.61082 18.7806 2.42256 18.1911 2.33398 17.5049C2.25034 16.8566 2.24998 16.0678 2.25 15.1113V5.90137C2.25 4.68136 3.01848 3.51438 4.28711 3.13769C6.2393 2.55835 9.79399 1.70787 14.668 1.29394ZM16.5 13C15.3954 13 14.5 13.8954 14.5 15C14.5 16.1046 15.3954 17 16.5 17C17.6046 17 18.5 16.1046 18.5 15C18.5 13.8954 17.6046 13 16.5 13ZM15.8418 3.15137C15.5583 3.10642 15.2217 3.12814 14.7412 3.16894C10.0188 3.56998 6.69626 4.38332 4.8584 4.92871C4.7763 4.95307 4.69649 4.99108 4.62305 5.04101C4.45186 5.15741 4.3668 5.21621 4.4043 5.41016C4.44187 5.60379 4.58677 5.6358 4.87695 5.69922C7.22697 6.21282 10.8416 6.76462 15.0557 7.05664C15.4046 7.08082 15.7401 7.10322 16.0596 7.12695C16.311 7.14563 16.437 7.15541 16.5283 7.08398C16.6196 7.01251 16.6401 6.8936 16.6807 6.65625C16.7552 6.21952 16.806 5.74233 16.8086 5.27637C16.8134 4.4146 16.6499 3.77689 16.3662 3.43066C16.2318 3.26685 16.0785 3.18894 15.8418 3.15137Z" fill="#0B0C0E"/>
  </symbol>
  <symbol id="arrow-data-transfer-horizontal-round" viewBox="0 0 24 24">
    <path fill-rule="evenodd" clip-rule="evenodd" d="M8.7355 4.46405C9.0315 4.7538 9.03656 5.22865 8.7468 5.52465L6.50227 7.81754C6.33456 7.98886 6.19774 8.12916 6.08674 8.2469C6.24248 8.24964 6.43019 8.25 6.65851 8.25H18.9999C19.4142 8.25 19.7499 8.58579 19.7499 9C19.7499 9.41421 19.4142 9.75 18.9999 9.75H6.65851C6.64079 9.75 6.62312 9.75 6.6055 9.75001C6.14852 9.75007 5.7255 9.75014 5.40412 9.70371C5.09463 9.65901 4.55474 9.52834 4.32963 8.97316C4.1077 8.42585 4.39265 7.95572 4.57792 7.70411C4.77181 7.44081 5.06979 7.13649 5.39388 6.80551C5.40601 6.79312 5.41817 6.7807 5.43036 6.76824L7.6749 4.47535C7.96465 4.17935 8.4395 4.17429 8.7355 4.46405ZM5.72834 8.68279C5.7281 8.68288 5.72924 8.68005 5.73249 8.67401C5.73021 8.67968 5.72858 8.6827 5.72834 8.68279Z" fill="#141B34"/>
    <path fill-rule="evenodd" clip-rule="evenodd" d="M17.9132 15.7531C17.7575 15.7504 17.5698 15.75 17.3414 15.75H5C4.58579 15.75 4.25 15.4142 4.25 15C4.25 14.5858 4.58579 14.25 5 14.25H17.3414C17.3592 14.25 17.3768 14.25 17.3945 14.25C17.8514 14.2499 18.2744 14.2499 18.5958 14.2963C18.9053 14.341 19.4452 14.4717 19.6703 15.0268C19.8922 15.5742 19.6073 16.0443 19.422 16.2959C19.2281 16.5592 18.9302 16.8635 18.6061 17.1945C18.5939 17.2069 18.5818 17.2193 18.5696 17.2318L16.325 19.5246C16.0353 19.8206 15.5604 19.8257 15.2644 19.5359C14.9684 19.2462 14.9634 18.7713 15.2531 18.4753L17.4977 16.1825C17.6654 16.0111 17.8022 15.8708 17.9132 15.7531ZM18.2716 15.3172C18.2718 15.3171 18.2707 15.3199 18.2675 15.326C18.2697 15.3203 18.2714 15.3173 18.2716 15.3172Z" fill="#141B34"/>
  </symbol>
  <symbol id="candle-2" viewBox="0 0 24 24">
    <path d="M22.75 17.5C22.75 17.91 22.41 18.25 22 18.25H15V18.5C15 20 14.1 20.5 13 20.5H7C5.9 20.5 5 20 5 18.5V18.25H2C1.59 18.25 1.25 17.91 1.25 17.5C1.25 17.09 1.59 16.75 2 16.75H5V16.5C5 15 5.9 14.5 7 14.5H13C14.1 14.5 15 15 15 16.5V16.75H22C22.41 16.75 22.75 17.09 22.75 17.5Z" fill="#0B0C0E"/>
    <path d="M22.75 6.5C22.75 6.91 22.41 7.25 22 7.25H19V7.5C19 9 18.1 9.5 17 9.5H11C9.9 9.5 9 9 9 7.5V7.25H2C1.59 7.25 1.25 6.91 1.25 6.5C1.25 6.09 1.59 5.75 2 5.75H9V5.5C9 4 9.9 3.5 11 3.5H17C18.1 3.5 19 4 19 5.5V5.75H22C22.41 5.75 22.75 6.09 22.75 6.5Z" fill="#0B0C0E"/>
  </symbol>
</svg> 