<svg width="20" height="20" viewBox="0 0 20 20" fill="none" xmlns="http://www.w3.org/2000/svg">
    <g clip-path="url(#clip0_5604_15544)">
        <g clip-path="url(#clip1_5604_15544)">
            <path d="M20 2.5H0V17.5H20V2.5Z" fill="#003399" />
            <path d="M10.0134 4.375L9.7672 5.13283L10.1461 5.25595L10.0134 4.375Z" fill="#FFCC00" />
            <path d="M10.0134 4.375L10.2597 5.13283L9.88075 5.25595L10.0134 4.375Z" fill="#FFCC00" />
            <path d="M10.7712 4.92554L9.98501 4.94742L9.97443 5.32395L10.7712 4.92554Z"
                fill="#FFCC00" />
            <path d="M10.7712 4.91406L10.1169 5.39392L9.89244 5.08309L10.7712 4.91406Z"
                fill="#FFCC00" />
            <path d="M10.4817 5.8103L10.2443 5.0587L9.85656 5.18805L10.4817 5.8103Z" fill="#FFCC00" />
            <path d="M10.4755 5.81653L9.83704 5.35518L10.0774 5.02584L10.4755 5.81653Z"
                fill="#FFCC00" />
            <path d="M9.25586 4.92542L10.0421 4.9473L10.0527 5.32383L9.25586 4.92542Z"
                fill="#FFCC00" />
            <path d="M9.25586 4.91394L9.91016 5.3938L10.1347 5.08297L9.25586 4.91394Z"
                fill="#FFCC00" />
            <path d="M9.54504 5.81018L9.78241 5.05858L10.1702 5.18792L9.54504 5.81018Z"
                fill="#FFCC00" />
            <path d="M9.55127 5.81641L10.1897 5.35506L9.94931 5.02572L9.55127 5.81641Z"
                fill="#FFCC00" />
            <path d="M10.0135 13.9369L9.76732 14.6947L10.1462 14.8178L10.0135 13.9369Z"
                fill="#FFCC00" />
            <path d="M10.0135 13.9369L10.2598 14.6947L9.88087 14.8178L10.0135 13.9369Z"
                fill="#FFCC00" />
            <path d="M10.7708 14.4874L9.98452 14.5093L9.97395 14.8858L10.7708 14.4874Z"
                fill="#FFCC00" />
            <path d="M10.7708 14.476L10.1164 14.9558L9.89195 14.645L10.7708 14.476Z" fill="#FFCC00" />
            <path d="M10.4817 15.3722L10.2443 14.6206L9.85656 14.7499L10.4817 15.3722Z"
                fill="#FFCC00" />
            <path d="M10.4755 15.3785L9.83704 14.9172L10.0774 14.5878L10.4755 15.3785Z"
                fill="#FFCC00" />
            <path d="M9.25623 14.4873L10.0425 14.5092L10.053 14.8857L9.25623 14.4873Z"
                fill="#FFCC00" />
            <path d="M9.25623 14.4757L9.91053 14.9556L10.135 14.6447L9.25623 14.4757Z"
                fill="#FFCC00" />
            <path d="M9.54492 15.3722L9.78229 14.6206L10.1701 14.7499L9.54492 15.3722Z"
                fill="#FFCC00" />
            <path d="M9.55115 15.3785L10.1896 14.9172L9.94918 14.5878L9.55115 15.3785Z"
                fill="#FFCC00" />
            <path d="M5.23279 9.15576L4.98656 9.91359L5.36547 10.0367L5.23279 9.15576Z"
                fill="#FFCC00" />
            <path d="M5.23279 9.15576L5.47901 9.91359L5.10011 10.0367L5.23279 9.15576Z"
                fill="#FFCC00" />
            <path d="M5.99158 9.70691L5.20535 9.72879L5.19477 10.1053L5.99158 9.70691Z"
                fill="#FFCC00" />
            <path d="M5.99158 9.69543L5.33727 10.1753L5.11277 9.86446L5.99158 9.69543Z"
                fill="#FFCC00" />
            <path d="M5.70166 10.5912L5.46429 9.83958L5.07653 9.96893L5.70166 10.5912Z"
                fill="#FFCC00" />
            <path d="M5.69543 10.5973L5.05701 10.1359L5.2974 9.8066L5.69543 10.5973Z" fill="#FFCC00" />
            <path d="M4.47534 9.70691L5.26157 9.72879L5.27215 10.1053L4.47534 9.70691Z"
                fill="#FFCC00" />
            <path d="M4.47534 9.69543L5.12965 10.1753L5.35415 9.86446L4.47534 9.69543Z"
                fill="#FFCC00" />
            <path d="M4.76453 10.5913L5.0019 9.83971L5.38966 9.96905L4.76453 10.5913Z"
                fill="#FFCC00" />
            <path d="M4.77063 10.5974L5.40905 10.1361L5.16867 9.80672L4.77063 10.5974Z"
                fill="#FFCC00" />
            <path d="M7.16089 6.45703L7.79901 5.99603L7.55832 5.66634L7.16089 6.45703Z"
                fill="#FFCC00" />
            <path d="M7.1543 6.45056L7.39123 5.69926L7.77943 5.82891L7.1543 6.45056Z" fill="#FFCC00" />
            <path d="M6.86475 5.56006L7.51483 6.03443L7.74355 5.71811L6.86475 5.56006Z"
                fill="#FFCC00" />
            <path d="M6.86475 5.56604L7.65557 5.5777L7.66155 5.96446L6.86475 5.56604Z"
                fill="#FFCC00" />
            <path d="M7.61353 5.0155L7.37649 5.76673L7.76458 5.89645L7.61353 5.0155Z" fill="#FFCC00" />
            <path d="M7.61389 5.0155L7.86898 5.77998L7.49894 5.89645L7.61389 5.0155Z" fill="#FFCC00" />
            <path d="M8.09692 6.45642L7.44647 5.98149L7.6748 5.66572L8.09692 6.45642Z"
                fill="#FFCC00" />
            <path d="M8.09082 6.46265L7.8365 5.69885L7.46571 5.81603L8.09082 6.46265Z"
                fill="#FFCC00" />
            <path d="M8.37939 5.57068L7.73906 6.03397L7.50059 5.70656L8.37939 5.57068Z"
                fill="#FFCC00" />
            <path d="M8.37463 5.5752L7.58253 5.56543L7.58722 5.95408L8.37463 5.5752Z" fill="#FFCC00" />
            <path d="M6.34192 8.20007L6.10498 7.44878L5.71678 7.57843L6.34192 8.20007Z"
                fill="#FFCC00" />
            <path d="M6.33508 8.20654L5.69696 7.74555L5.93764 7.41586L6.33508 8.20654Z"
                fill="#FFCC00" />
            <path d="M5.39844 8.20703L6.04891 7.73212L5.82058 7.41635L5.39844 8.20703Z"
                fill="#FFCC00" />
            <path d="M5.4043 8.21313L5.65862 7.44936L6.02943 7.56653L5.4043 8.21313Z" fill="#FFCC00" />
            <path d="M5.11499 7.32092L5.75533 7.78421L5.9938 7.45681L5.11499 7.32092Z"
                fill="#FFCC00" />
            <path d="M5.12024 7.32556L5.91235 7.3158L5.90766 7.70445L5.12024 7.32556Z"
                fill="#FFCC00" />
            <path d="M6.63062 7.30945L5.98053 7.78381L5.7518 7.46749L6.63062 7.30945Z"
                fill="#FFCC00" />
            <path d="M6.63062 7.31531L5.83978 7.32696L5.8338 7.71372L6.63062 7.31531Z"
                fill="#FFCC00" />
            <path d="M5.88257 6.76526L6.11961 7.51648L5.73152 7.6462L5.88257 6.76526Z"
                fill="#FFCC00" />
            <path d="M5.8822 6.76526L5.62711 7.52973L5.99716 7.6462L5.8822 6.76526Z" fill="#FFCC00" />
            <path d="M6.63098 12.097L5.84876 12.1276L5.83417 12.4954L6.63098 12.097Z" fill="#FFCC00" />
            <path d="M6.63098 12.0806L5.97296 12.5653L5.75217 12.2593L6.63098 12.0806Z"
                fill="#FFCC00" />
            <path d="M6.34155 12.9703L6.11872 12.2299L5.71641 12.3704L6.34155 12.9703Z"
                fill="#FFCC00" />
            <path d="M6.32544 12.9878L5.69682 12.5395L5.94702 12.1971L6.32544 12.9878Z"
                fill="#FFCC00" />
            <path d="M5.39575 12.9879L6.0498 12.5073L5.82503 12.1972L5.39575 12.9879Z"
                fill="#FFCC00" />
            <path d="M5.40527 12.999L5.66444 12.23L6.0304 12.3419L5.40527 12.999Z" fill="#FFCC00" />
            <path d="M5.89246 11.5463L6.12035 12.2882L5.7231 12.4272L5.89246 11.5463Z"
                fill="#FFCC00" />
            <path d="M5.89148 11.5463L5.62817 12.3202L5.98999 12.4272L5.89148 11.5463Z"
                fill="#FFCC00" />
            <path d="M5.11951 12.1119L5.91181 12.0971L5.90729 12.4807L5.11951 12.1119Z"
                fill="#FFCC00" />
            <path d="M5.11499 12.1049L5.75551 12.5654L5.9938 12.2352L5.11499 12.1049Z"
                fill="#FFCC00" />
            <path d="M8.3811 13.8473L7.59889 13.8779L7.5843 14.2457L8.3811 13.8473Z" fill="#FFCC00" />
            <path d="M8.3811 13.8311L7.72308 14.3158L7.5023 14.0098L8.3811 13.8311Z" fill="#FFCC00" />
            <path d="M8.09106 14.7209L7.86824 13.9805L7.46593 14.1211L8.09106 14.7209Z"
                fill="#FFCC00" />
            <path d="M8.07495 14.7383L7.44634 14.29L7.69654 13.9476L8.07495 14.7383Z" fill="#FFCC00" />
            <path d="M7.1449 14.738L7.79894 14.2575L7.57418 13.9473L7.1449 14.738Z" fill="#FFCC00" />
            <path d="M7.15405 14.7493L7.41322 13.9802L7.77918 14.0922L7.15405 14.7493Z"
                fill="#FFCC00" />
            <path d="M7.6416 13.2968L7.86949 14.0387L7.47224 14.1777L7.6416 13.2968Z" fill="#FFCC00" />
            <path d="M7.64026 13.2968L7.37694 14.0707L7.73876 14.1777L7.64026 13.2968Z"
                fill="#FFCC00" />
            <path d="M6.86914 13.8622L7.66143 13.8474L7.65692 14.2309L6.86914 13.8622Z"
                fill="#FFCC00" />
            <path d="M6.86475 13.8553L7.50525 14.3159L7.74355 13.9857L6.86475 13.8553Z"
                fill="#FFCC00" />
            <path d="M14.7949 9.15588L15.0411 9.91372L14.6622 10.0368L14.7949 9.15588Z"
                fill="#FFCC00" />
            <path d="M14.7949 9.15588L14.5487 9.91372L14.9276 10.0368L14.7949 9.15588Z"
                fill="#FFCC00" />
            <path d="M14.0371 9.70703L14.8233 9.72891L14.8339 10.1054L14.0371 9.70703Z"
                fill="#FFCC00" />
            <path d="M14.0371 9.69556L14.6914 10.1754L14.9159 9.86458L14.0371 9.69556Z"
                fill="#FFCC00" />
            <path d="M14.3265 10.5913L14.5639 9.83971L14.9517 9.96905L14.3265 10.5913Z"
                fill="#FFCC00" />
            <path d="M14.3326 10.5974L14.9711 10.1361L14.7307 9.80672L14.3326 10.5974Z"
                fill="#FFCC00" />
            <path d="M15.5527 9.70679L14.7665 9.72867L14.7559 10.1052L15.5527 9.70679Z"
                fill="#FFCC00" />
            <path d="M15.5527 9.69531L14.8984 10.1752L14.6739 9.86434L15.5527 9.69531Z"
                fill="#FFCC00" />
            <path d="M15.2635 10.5913L15.0262 9.83971L14.6384 9.96905L15.2635 10.5913Z"
                fill="#FFCC00" />
            <path d="M15.2574 10.5974L14.619 10.1361L14.8594 9.80672L15.2574 10.5974Z"
                fill="#FFCC00" />
            <path d="M12.8656 6.45679L12.2275 5.99579L12.4682 5.6661L12.8656 6.45679Z"
                fill="#FFCC00" />
            <path d="M12.8722 6.4502L12.6353 5.6989L12.2471 5.82855L12.8722 6.4502Z" fill="#FFCC00" />
            <path d="M13.1617 5.55994L12.5117 6.03431L12.2829 5.71798L13.1617 5.55994Z"
                fill="#FFCC00" />
            <path d="M13.1617 5.56592L12.3709 5.57757L12.3649 5.96433L13.1617 5.56592Z"
                fill="#FFCC00" />
            <path d="M12.4132 5.01538L12.6502 5.76661L12.2622 5.89633L12.4132 5.01538Z"
                fill="#FFCC00" />
            <path d="M12.4128 5.01538L12.1578 5.77986L12.5278 5.89633L12.4128 5.01538Z"
                fill="#FFCC00" />
            <path d="M11.9298 6.45642L12.5803 5.9815L12.3519 5.66573L11.9298 6.45642Z"
                fill="#FFCC00" />
            <path d="M11.9357 6.4624L12.19 5.69862L12.5608 5.81579L11.9357 6.4624Z" fill="#FFCC00" />
            <path d="M11.6469 5.57068L12.2872 6.03397L12.5257 5.70656L11.6469 5.57068Z"
                fill="#FFCC00" />
            <path d="M11.6514 5.57544L12.4435 5.56567L12.4388 5.95432L11.6514 5.57544Z"
                fill="#FFCC00" />
            <path d="M13.6854 8.19995L13.9224 7.44865L14.3106 7.5783L13.6854 8.19995Z"
                fill="#FFCC00" />
            <path d="M13.6919 8.20642L14.33 7.74542L14.0893 7.41573L13.6919 8.20642Z" fill="#FFCC00" />
            <path d="M14.6282 8.20679L13.9777 7.73187L14.206 7.41609L14.6282 8.20679Z"
                fill="#FFCC00" />
            <path d="M14.6223 8.21277L14.368 7.44899L13.9972 7.56616L14.6223 8.21277Z"
                fill="#FFCC00" />
            <path d="M14.9119 7.32092L14.2715 7.78421L14.0331 7.45681L14.9119 7.32092Z"
                fill="#FFCC00" />
            <path d="M14.907 7.32556L14.1149 7.3158L14.1196 7.70445L14.907 7.32556Z" fill="#FFCC00" />
            <path d="M13.3964 7.30933L14.0464 7.7837L14.2752 7.46738L13.3964 7.30933Z"
                fill="#FFCC00" />
            <path d="M13.3964 7.31519L14.1872 7.32684L14.1932 7.7136L13.3964 7.31519Z"
                fill="#FFCC00" />
            <path d="M14.1444 6.76514L13.9074 7.51636L14.2955 7.64609L14.1444 6.76514Z"
                fill="#FFCC00" />
            <path d="M14.1448 6.76514L14.3999 7.52961L14.0298 7.64609L14.1448 6.76514Z"
                fill="#FFCC00" />
            <path d="M13.3961 12.097L14.1783 12.1276L14.1929 12.4955L13.3961 12.097Z" fill="#FFCC00" />
            <path d="M13.3961 12.0806L14.0541 12.5653L14.2749 12.2593L13.3961 12.0806Z"
                fill="#FFCC00" />
            <path d="M13.6855 12.9703L13.9084 12.2299L14.3107 12.3705L13.6855 12.9703Z"
                fill="#FFCC00" />
            <path d="M13.7017 12.9879L14.3303 12.5396L14.0801 12.1972L13.7017 12.9879Z"
                fill="#FFCC00" />
            <path d="M14.6312 12.988L13.9772 12.5075L14.2019 12.1973L14.6312 12.988Z" fill="#FFCC00" />
            <path d="M14.6217 12.9991L14.3625 12.2301L13.9966 12.342L14.6217 12.9991Z"
                fill="#FFCC00" />
            <path d="M14.1346 11.546L13.9068 12.2879L14.304 12.427L14.1346 11.546Z" fill="#FFCC00" />
            <path d="M14.1357 11.546L14.3991 12.32L14.0372 12.427L14.1357 11.546Z" fill="#FFCC00" />
            <path d="M14.9072 12.1121L14.1149 12.0972L14.1194 12.4808L14.9072 12.1121Z"
                fill="#FFCC00" />
            <path d="M14.9117 12.1051L14.2712 12.5656L14.0329 12.2355L14.9117 12.1051Z"
                fill="#FFCC00" />
            <path d="M11.6453 13.8477L12.4275 13.8782L12.4421 14.2461L11.6453 13.8477Z"
                fill="#FFCC00" />
            <path d="M11.6453 13.8312L12.3033 14.3159L12.5241 14.0099L11.6453 13.8312Z"
                fill="#FFCC00" />
            <path d="M11.9352 14.7211L12.158 13.9807L12.5603 14.1212L11.9352 14.7211Z"
                fill="#FFCC00" />
            <path d="M11.9514 14.7384L12.58 14.2901L12.3298 13.9477L11.9514 14.7384Z" fill="#FFCC00" />
            <path d="M12.8811 14.7382L12.2271 14.2576L12.4518 13.9475L12.8811 14.7382Z"
                fill="#FFCC00" />
            <path d="M12.8718 14.7494L12.6127 13.9804L12.2467 14.0923L12.8718 14.7494Z"
                fill="#FFCC00" />
            <path d="M12.3854 13.2968L12.1575 14.0387L12.5547 14.1777L12.3854 13.2968Z"
                fill="#FFCC00" />
            <path d="M12.3867 13.2968L12.65 14.0707L12.2882 14.1777L12.3867 13.2968Z" fill="#FFCC00" />
            <path d="M13.1578 13.8622L12.3655 13.8474L12.3701 14.2309L13.1578 13.8622Z"
                fill="#FFCC00" />
            <path d="M13.1624 13.8552L12.5218 14.3158L12.2835 13.9856L13.1624 13.8552Z"
                fill="#FFCC00" />
        </g>
        <rect y="2.5" width="20" height="15" fill="url(#paint0_linear_5604_15544)"
            style="mix-blend-mode:overlay" />
    </g>
    <defs>
        <linearGradient id="paint0_linear_5604_15544" x1="20" y1="2.5" x2="1.00613e-06" y2="17.5"
            gradientUnits="userSpaceOnUse">
            <stop stop-color="white" stop-opacity="0.3" />
            <stop offset="0.262741" stop-opacity="0.27" />
            <stop offset="0.369956" stop-color="white" stop-opacity="0.26" />
            <stop offset="0.487001" stop-opacity="0.55" />
            <stop offset="0.594445" stop-opacity="0.24" />
            <stop offset="0.736408" stop-color="white" stop-opacity="0.3" />
            <stop offset="0.901459" stop-color="#272727" stop-opacity="0.22" />
            <stop offset="1" stop-opacity="0.2" />
        </linearGradient>
        <clipPath id="clip0_5604_15544">
            <rect y="2.5" width="20" height="15" rx="1.5" fill="white" />
        </clipPath>
        <clipPath id="clip1_5604_15544">
            <rect width="20" height="15" fill="white" transform="translate(0 2.5)" />
        </clipPath>
    </defs>
</svg>
    