<svg width="20" height="20" viewBox="0 0 20 20" fill="none" xmlns="http://www.w3.org/2000/svg">
    <g clip-path="url(#clip0_5604_15502)">
        <mask id="mask0_5604_15502" style="mask-type:luminance" maskUnits="userSpaceOnUse" x="0"
            y="2" width="20" height="16">
            <rect y="2.5" width="20" height="15" fill="white" />
        </mask>
        <g mask="url(#mask0_5604_15502)">
            <path fill-rule="evenodd" clip-rule="evenodd" d="M0 2.5H20V17.5H0V2.5Z" fill="#F7FCFF" />
            <path fill-rule="evenodd" clip-rule="evenodd" d="M0 11.6666V12.9166H20V11.6666H0Z"
                fill="#E31D1C" />
            <path fill-rule="evenodd" clip-rule="evenodd" d="M0 13.9584V15.2084H20V13.9584H0Z"
                fill="#E31D1C" />
            <path fill-rule="evenodd" clip-rule="evenodd" d="M0 7.08337V8.33337H20V7.08337H0Z"
                fill="#E31D1C" />
            <path fill-rule="evenodd" clip-rule="evenodd" d="M0 16.25V17.5H20V16.25H0Z"
                fill="#E31D1C" />
            <path fill-rule="evenodd" clip-rule="evenodd" d="M0 9.375V10.625H20V9.375H0Z"
                fill="#E31D1C" />
            <path fill-rule="evenodd" clip-rule="evenodd" d="M0 2.5V3.75H20V2.5H0Z" fill="#E31D1C" />
            <path fill-rule="evenodd" clip-rule="evenodd" d="M0 4.79163V6.04163H20V4.79163H0Z"
                fill="#E31D1C" />
            <rect y="2.5" width="12.5" height="8.125" fill="#2E42A5" />
            <path
                d="M1.28302 8.72998H1.73126L1.37872 9.08838L1.51544 9.65479L1.07599 9.33643L0.622864 9.65479L0.776184 9.08838L0.372864 8.72998H0.899231L1.07599 8.26807L1.28302 8.72998ZM3.78302 8.72998H4.23126L3.87872 9.08838L4.01544 9.65479L3.57599 9.33643L3.12286 9.65479L3.27618 9.08838L2.87286 8.72998H3.39923L3.57599 8.26807L3.78302 8.72998ZM6.28302 8.72998H6.73126L6.37872 9.08838L6.51544 9.65479L6.07599 9.33643L5.62286 9.65479L5.77618 9.08838L5.37286 8.72998H5.89923L6.07599 8.26807L6.28302 8.72998ZM8.78302 8.72998H9.23126L8.87872 9.08838L9.01544 9.65479L8.57599 9.33643L8.12286 9.65479L8.27618 9.08838L7.87286 8.72998H8.39923L8.57599 8.26807L8.78302 8.72998ZM11.283 8.72998H11.7313L11.3787 9.08838L11.5154 9.65479L11.076 9.33643L10.6229 9.65479L10.7762 9.08838L10.3729 8.72998H10.8992L11.076 8.26807L11.283 8.72998ZM2.53302 7.47998H2.98126L2.62872 7.83838L2.76544 8.40479L2.32599 8.08643L1.87286 8.40479L2.02618 7.83838L1.62286 7.47998H2.14923L2.32599 7.01807L2.53302 7.47998ZM5.03302 7.47998H5.48126L5.12872 7.83838L5.26544 8.40479L4.82599 8.08643L4.37286 8.40479L4.52618 7.83838L4.12286 7.47998H4.64923L4.82599 7.01807L5.03302 7.47998ZM7.53302 7.47998H7.98126L7.62872 7.83838L7.76544 8.40479L7.32599 8.08643L6.87286 8.40479L7.02618 7.83838L6.62286 7.47998H7.14923L7.32599 7.01807L7.53302 7.47998ZM10.033 7.47998H10.4813L10.1287 7.83838L10.2654 8.40479L9.82599 8.08643L9.37286 8.40479L9.52618 7.83838L9.12286 7.47998H9.64923L9.82599 7.01807L10.033 7.47998ZM1.28302 6.22998H1.73126L1.37872 6.58838L1.51544 7.15479L1.07599 6.83643L0.622864 7.15479L0.776184 6.58838L0.372864 6.22998H0.899231L1.07599 5.76807L1.28302 6.22998ZM3.78302 6.22998H4.23126L3.87872 6.58838L4.01544 7.15479L3.57599 6.83643L3.12286 7.15479L3.27618 6.58838L2.87286 6.22998H3.39923L3.57599 5.76807L3.78302 6.22998ZM6.28302 6.22998H6.73126L6.37872 6.58838L6.51544 7.15479L6.07599 6.83643L5.62286 7.15479L5.77618 6.58838L5.37286 6.22998H5.89923L6.07599 5.76807L6.28302 6.22998ZM8.78302 6.22998H9.23126L8.87872 6.58838L9.01544 7.15479L8.57599 6.83643L8.12286 7.15479L8.27618 6.58838L7.87286 6.22998H8.39923L8.57599 5.76807L8.78302 6.22998ZM11.283 6.22998H11.7313L11.3787 6.58838L11.5154 7.15479L11.076 6.83643L10.6229 7.15479L10.7762 6.58838L10.3729 6.22998H10.8992L11.076 5.76807L11.283 6.22998ZM2.53302 4.97998H2.98126L2.62872 5.33838L2.76544 5.90479L2.32599 5.58643L1.87286 5.90479L2.02618 5.33838L1.62286 4.97998H2.14923L2.32599 4.51807L2.53302 4.97998ZM5.03302 4.97998H5.48126L5.12872 5.33838L5.26544 5.90479L4.82599 5.58643L4.37286 5.90479L4.52618 5.33838L4.12286 4.97998H4.64923L4.82599 4.51807L5.03302 4.97998ZM7.53302 4.97998H7.98126L7.62872 5.33838L7.76544 5.90479L7.32599 5.58643L6.87286 5.90479L7.02618 5.33838L6.62286 4.97998H7.14923L7.32599 4.51807L7.53302 4.97998ZM10.033 4.97998H10.4813L10.1287 5.33838L10.2654 5.90479L9.82599 5.58643L9.37286 5.90479L9.52618 5.33838L9.12286 4.97998H9.64923L9.82599 4.51807L10.033 4.97998ZM1.28302 3.72998H1.73126L1.37872 4.08838L1.51544 4.65479L1.07599 4.33643L0.622864 4.65479L0.776184 4.08838L0.372864 3.72998H0.899231L1.07599 3.26807L1.28302 3.72998ZM3.78302 3.72998H4.23126L3.87872 4.08838L4.01544 4.65479L3.57599 4.33643L3.12286 4.65479L3.27618 4.08838L2.87286 3.72998H3.39923L3.57599 3.26807L3.78302 3.72998ZM6.28302 3.72998H6.73126L6.37872 4.08838L6.51544 4.65479L6.07599 4.33643L5.62286 4.65479L5.77618 4.08838L5.37286 3.72998H5.89923L6.07599 3.26807L6.28302 3.72998ZM8.78302 3.72998H9.23126L8.87872 4.08838L9.01544 4.65479L8.57599 4.33643L8.12286 4.65479L8.27618 4.08838L7.87286 3.72998H8.39923L8.57599 3.26807L8.78302 3.72998ZM11.283 3.72998H11.7313L11.3787 4.08838L11.5154 4.65479L11.076 4.33643L10.6229 4.65479L10.7762 4.08838L10.3729 3.72998H10.8992L11.076 3.26807L11.283 3.72998Z"
                fill="#F7FCFF" />
        </g>
        <rect y="2.5" width="20" height="15" fill="url(#paint0_linear_5604_15502)"
            style="mix-blend-mode:overlay" />
    </g>
    <defs>
        <linearGradient id="paint0_linear_5604_15502" x1="20" y1="2.5" x2="1.00613e-06" y2="17.5"
            gradientUnits="userSpaceOnUse">
            <stop stop-color="white" stop-opacity="0.3" />
            <stop offset="0.262741" stop-opacity="0.27" />
            <stop offset="0.369956" stop-color="white" stop-opacity="0.26" />
            <stop offset="0.487001" stop-opacity="0.55" />
            <stop offset="0.594445" stop-opacity="0.24" />
            <stop offset="0.736408" stop-color="white" stop-opacity="0.3" />
            <stop offset="0.901459" stop-color="#272727" stop-opacity="0.22" />
            <stop offset="1" stop-opacity="0.2" />
        </linearGradient>
        <clipPath id="clip0_5604_15502">
            <rect y="2.5" width="20" height="15" rx="1.5" fill="white" />
        </clipPath>
    </defs>
</svg>
    