<svg width="25" height="24" viewBox="0 0 25 24" fill="none" xmlns="http://www.w3.org/2000/svg">
    <path fill-rule="evenodd" clip-rule="evenodd"
        d="M2.00888 10.6175C8.45132 7.81061 12.7473 5.96015 14.8968 5.0661C21.034 2.5134 22.3093 2.06997 23.1405 2.05533C23.3233 2.05211 23.7321 2.09742 23.9969 2.31227C24.2204 2.49368 24.282 2.73875 24.3114 2.91075C24.3408 3.08275 24.3775 3.47457 24.3483 3.78073C24.0158 7.27518 22.5767 15.7553 21.8446 19.6691C21.5348 21.3252 20.9248 21.8805 20.3343 21.9348C19.0509 22.0529 18.0764 21.0867 16.8334 20.2719C14.8884 18.9969 13.7896 18.2032 11.9016 16.959C9.71965 15.5212 11.1341 14.7309 12.3775 13.4394C12.703 13.1014 18.3575 7.95822 18.4669 7.49166C18.4806 7.4333 18.4933 7.21579 18.3641 7.10094C18.2349 6.98609 18.0441 7.02536 17.9065 7.0566C17.7114 7.10087 14.6042 9.15464 8.58485 13.2179C7.70287 13.8235 6.904 14.1186 6.18825 14.1031C5.39918 14.0861 3.88134 13.657 2.75298 13.2902C1.369 12.8403 0.269041 12.6025 0.364823 11.8384C0.414712 11.4405 0.962732 11.0335 2.00888 10.6175Z"
        fill="white" />
    <path fill-rule="evenodd" clip-rule="evenodd"
        d="M2.00888 10.6175C8.45132 7.81061 12.7473 5.96015 14.8968 5.0661C21.034 2.5134 22.3093 2.06997 23.1405 2.05533C23.3233 2.05211 23.7321 2.09742 23.9969 2.31227C24.2204 2.49368 24.282 2.73875 24.3114 2.91075C24.3408 3.08275 24.3775 3.47457 24.3483 3.78073C24.0158 7.27518 22.5767 15.7553 21.8446 19.6691C21.5348 21.3252 20.9248 21.8805 20.3343 21.9348C19.0509 22.0529 18.0764 21.0867 16.8334 20.2719C14.8884 18.9969 13.7896 18.2032 11.9016 16.959C9.71965 15.5212 11.1341 14.7309 12.3775 13.4394C12.703 13.1014 18.3575 7.95822 18.4669 7.49166C18.4806 7.4333 18.4933 7.21579 18.3641 7.10094C18.2349 6.98609 18.0441 7.02536 17.9065 7.0566C17.7114 7.10087 14.6042 9.15464 8.58485 13.2179C7.70287 13.8235 6.904 14.1186 6.18825 14.1031C5.39918 14.0861 3.88134 13.657 2.75298 13.2902C1.369 12.8403 0.269041 12.6025 0.364823 11.8384C0.414712 11.4405 0.962732 11.0335 2.00888 10.6175Z"
        fill="url(#paint0_linear_4994_9316)" />
    <defs>
        <linearGradient id="paint0_linear_4994_9316" x1="12.359" y1="2.05518" x2="12.359"
            y2="21.7972" gradientUnits="userSpaceOnUse">
            <stop stop-color="#2AABEE" />
            <stop offset="1" stop-color="#229ED9" />
        </linearGradient>
    </defs>
</svg>
    