<svg width="25" height="24" viewBox="0 0 25 24" fill="none" xmlns="http://www.w3.org/2000/svg">
    <path
        d="M0.359009 11.5C0.359009 6.07912 0.359009 3.36867 2.04297 1.68421C3.72694 -0.000255813 6.43788 0.000244141 11.8588 0.000244141H12.8587C18.2796 0.000244141 20.9906 0.000244141 22.6745 1.68421C24.3585 3.36867 24.3585 6.07912 24.3585 11.5V12.5C24.3585 17.9209 24.3585 20.6318 22.6745 22.3158C20.9901 23.9997 18.2796 23.9997 12.8587 23.9997H11.8588C6.43788 23.9997 3.72744 23.9997 2.04297 22.3158C0.359009 20.6313 0.359009 17.9209 0.359009 12.5V11.5Z"
        fill="#2787F5" />
    <path fill-rule="evenodd" clip-rule="evenodd"
        d="M7.16864 7.50049H5.43279C4.93684 7.50049 4.83765 7.73548 4.83765 7.99547C4.83765 8.45895 5.42635 10.7579 7.5783 13.7982C9.01311 15.8746 11.0346 17.0001 12.8741 17.0001C13.9776 17.0001 14.114 16.7501 14.114 16.3196V14.7502C14.114 14.2502 14.2187 14.1502 14.5683 14.1502C14.8257 14.1502 15.2671 14.2802 16.2972 15.2812C17.4746 16.4676 17.6685 17.0001 18.3306 17.0001H20.0665C20.5629 17.0001 20.8109 16.7501 20.6681 16.2566C20.5114 15.7651 19.9489 15.0517 19.2035 14.2062C18.7988 13.7242 18.1918 13.2048 18.0083 12.9453C17.7504 12.6118 17.8238 12.4633 18.0083 12.1668C18.0083 12.1668 20.123 9.16342 20.3442 8.14396C20.4543 7.77298 20.3442 7.50049 19.8185 7.50049H18.0827C17.6413 7.50049 17.4379 7.73548 17.3273 7.99547C17.3273 7.99547 16.4445 10.1644 15.1937 11.5733C14.789 11.9813 14.605 12.1113 14.3843 12.1113C14.2737 12.1113 14.114 11.9813 14.114 11.6108V8.14396C14.114 7.69898 13.9861 7.50049 13.6181 7.50049H10.8898C10.6136 7.50049 10.4479 7.70698 10.4479 7.90297C10.4479 8.32445 11.0728 8.42195 11.1373 9.6079V12.1853C11.1373 12.7503 11.0366 12.8528 10.8159 12.8528C10.2272 12.8528 8.79538 10.6739 7.9463 8.18096C7.77966 7.69548 7.61302 7.50049 7.16864 7.50049Z"
        fill="white" />
</svg>
    