<svg width="36" height="24" viewBox="0 0 36 24" fill="none" xmlns="http://www.w3.org/2000/svg">
    <path
        d="M34.5928 3.75824C34.3936 3.03181 34.0052 2.36956 33.4661 1.83742C32.927 1.30529 32.2561 0.921843 31.5201 0.725275C28.826 0 17.9826 0 17.9826 0C17.9826 0 7.1393 0.021978 4.44517 0.747253C3.70924 0.943821 3.03831 1.32727 2.49922 1.8594C1.96012 2.39154 1.57166 3.05379 1.37252 3.78022C0.557596 8.5055 0.241424 15.7055 1.39478 20.2418C1.59392 20.9682 1.98238 21.6304 2.52148 22.1626C3.06058 22.6947 3.7315 23.0782 4.46743 23.2747C7.16157 24 18.0049 24 18.0049 24C18.0049 24 28.8483 24 31.5424 23.2747C32.2783 23.0782 32.9492 22.6947 33.4883 22.1626C34.0274 21.6304 34.4159 20.9682 34.615 20.2418C35.4745 15.5099 35.7395 8.31429 34.5928 3.75824Z"
        fill="#FF0000" />
    <path d="M14.7791 17.1056L23.6756 12.0001L14.7791 6.89465V17.1056Z" fill="white" />
</svg>